M48
; DRILL file {KiCad (6.0.1-0)} date 2023 January 29, Sunday 14:22:29
; FORMAT={-:-/ absolute / metric / decimal}
; #@! TF.CreationDate,2023-01-29T14:22:29+00:00
; #@! TF.GenerationSoftware,Kicad,Pcbnew,(6.0.1-0)
; #@! TF.FileFunction,Plated,1,2,PTH
FMAT,2
METRIC
; #@! TA.AperFunction,Plated,PTH,ViaDrill
T1C0.250
; #@! TA.AperFunction,Plated,PTH,ViaDrill
T2C0.300
; #@! TA.AperFunction,Plated,PTH,ComponentDrill
T3C0.600
; #@! TA.AperFunction,Plated,PTH,ComponentDrill
T4C0.650
; #@! TA.AperFunction,Plated,PTH,ComponentDrill
T5C1.000
; #@! TA.AperFunction,Plated,PTH,ComponentDrill
T6C3.100
%
G90
G05
T1
X83.383Y-89.701
X84.708Y-89.673
X85.954Y-86.207
X85.973Y-93.523
X86.143Y-94.926
X87.907Y-84.386
X87.981Y-89.136
X87.981Y-90.121
X89.565Y-86.018
X90.006Y-93.903
X90.31Y-90.603
X90.314Y-89.642
X91.149Y-76.957
X92.62Y-76.957
X92.966Y-97.783
X92.976Y-96.119
X92.976Y-99.536
X92.991Y-102.969
X94.356Y-88.323
X94.365Y-91.62
X94.734Y-115.169
X95.016Y-110.843
X95.366Y-81.263
X96.246Y-102.095
X96.286Y-99.357
X96.653Y-94.735
X96.655Y-87.598
X97.236Y-80.213
X97.613Y-82.926
X97.948Y-85.201
X98.034Y-102.81
X98.046Y-100.303
X98.17Y-96.728
X98.49Y-87.791
X98.52Y-91.977
X99.076Y-100.953
X99.405Y-101.847
X99.516Y-112.743
X99.742Y-90.329
X100.004Y-98.1
X100.415Y-106.471
X100.604Y-84.936
X100.611Y-99.804
X100.824Y-89.594
X100.987Y-95.531
X101.003Y-97.45
X101.06Y-91.953
X101.311Y-86.269
X101.52Y-85.072
X101.663Y-99.287
X102.077Y-103.963
X102.173Y-75.746
X102.568Y-97.173
X102.936Y-84.733
X103.374Y-101.963
X103.689Y-103.655
X104.576Y-106.363
X104.912Y-80.833
X105.166Y-102.095
X105.213Y-115.025
X105.22Y-95.644
X105.49Y-97.912
X106.001Y-102.476
X106.23Y-87.846
X106.536Y-106.533
X106.556Y-97.473
X106.82Y-85.971
X106.896Y-78.953
X107.129Y-92.509
X107.581Y-114.639
X107.606Y-100.573
X107.923Y-78.814
X107.986Y-95.623
X108.199Y-96.821
X108.465Y-90.025
X108.48Y-83.208
X109.026Y-78.743
X109.208Y-98.864
X109.384Y-94.101
X109.796Y-92.151
X110.298Y-103.659
X110.466Y-100.933
X110.576Y-109.743
X110.598Y-112.546
X110.976Y-114.993
X111.09Y-88.677
X111.546Y-85.831
X111.741Y-120.709
X112.016Y-95.373
X112.653Y-104.13
X112.831Y-89.44
X113.146Y-95.673
X113.564Y-84.207
X113.776Y-121.643
X113.868Y-102.239
X114.076Y-91.033
X114.852Y-102.346
X115.106Y-115.653
X115.236Y-91.783
X115.256Y-92.783
X115.322Y-99.353
X115.642Y-94.099
X115.914Y-120.611
X116.115Y-92.705
X116.284Y-83.29
X116.764Y-100.268
X116.948Y-101.401
X116.976Y-88.272
X117.005Y-82.107
X117.08Y-102.352
X117.106Y-120.981
X117.294Y-96.08
X117.418Y-92.53
X117.51Y-89.589
X118.809Y-98.1
X119.174Y-82.188
X119.235Y-95.474
X119.345Y-92.021
X119.419Y-93.875
X119.469Y-119.035
X119.548Y-98.244
X120.049Y-112.686
X120.266Y-85.783
X120.694Y-89.336
X120.897Y-120.665
X121.064Y-82.037
X121.117Y-94.831
X121.126Y-90.663
X121.166Y-92.513
X121.476Y-83.153
X121.496Y-89.293
X122.236Y-83.143
X122.635Y-116.117
X122.87Y-84.544
X122.978Y-95.739
X122.986Y-83.163
X123.396Y-85.833
X123.746Y-83.163
X123.924Y-94.526
X124.076Y-112.993
X124.126Y-89.413
X124.279Y-117.614
X124.496Y-83.153
X124.916Y-102.603
X125.011Y-81.999
X125.133Y-79.601
X125.646Y-98.877
X125.711Y-89.078
X125.734Y-97.861
X125.841Y-95.242
X125.899Y-92.0
X125.933Y-96.348
X125.961Y-91.104
X126.351Y-93.565
X126.475Y-94.577
X126.949Y-104.5
X127.175Y-78.4
X128.096Y-97.87
X128.475Y-95.085
X128.956Y-92.173
X129.005Y-90.151
X129.145Y-100.249
X129.204Y-104.498
X129.288Y-106.992
X129.746Y-90.371
X129.795Y-94.295
X129.796Y-85.523
X129.881Y-87.485
X129.942Y-98.303
X130.013Y-99.075
X130.019Y-95.59
X130.193Y-91.163
X130.406Y-83.063
X130.499Y-84.927
X130.625Y-118.433
X130.666Y-84.07
X131.002Y-81.025
X131.086Y-95.383
X131.118Y-91.781
X131.191Y-89.802
X131.346Y-98.193
X131.376Y-101.735
X132.026Y-95.213
X132.309Y-107.204
X132.834Y-104.169
X132.966Y-95.663
X133.146Y-87.193
X133.167Y-93.788
X133.296Y-92.433
X133.366Y-118.303
X133.404Y-80.651
X133.562Y-104.564
X133.94Y-93.806
X134.56Y-81.422
X134.716Y-93.828
X135.079Y-98.724
X135.135Y-89.105
X135.286Y-99.993
X135.71Y-96.189
X136.089Y-88.219
X136.634Y-78.514
X136.876Y-119.832
X136.918Y-111.75
X137.026Y-94.183
X137.316Y-93.123
X137.363Y-90.923
X137.426Y-95.243
X137.495Y-101.751
X137.593Y-97.642
X137.996Y-84.059
X138.315Y-77.741
X138.676Y-86.053
X139.025Y-120.849
X139.046Y-96.018
X139.182Y-98.975
X139.304Y-118.917
X139.339Y-79.171
X139.571Y-94.352
X139.796Y-93.133
X140.366Y-98.393
X140.794Y-80.481
X140.806Y-89.303
X140.816Y-86.113
X140.942Y-77.529
X140.973Y-90.349
X141.126Y-92.663
X142.214Y-88.526
X142.574Y-118.659
X142.693Y-106.52
X142.836Y-102.857
X143.186Y-91.783
X143.746Y-95.503
X143.796Y-97.133
X143.821Y-106.654
X143.896Y-118.713
T2
X115.818Y-118.968
X117.243Y-117.559
X119.363Y-117.544
X124.666Y-115.513
X125.033Y-106.897
X125.548Y-104.992
X126.646Y-89.16
X137.4Y-104.335
X139.721Y-103.4
X141.566Y-101.093
X142.65Y-98.15
T4
X100.391Y-81.868
X100.391Y-83.138
X101.661Y-81.868
X101.661Y-83.138
X102.931Y-81.868
X102.931Y-83.138
X104.201Y-81.868
X104.201Y-83.138
X105.471Y-81.868
X105.471Y-83.138
X143.211Y-87.708
X143.211Y-88.978
T5
X100.566Y-74.863
X103.106Y-74.863
X105.646Y-74.863
X108.186Y-74.863
X109.456Y-123.123
X110.726Y-74.863
X111.996Y-123.123
X113.266Y-74.863
X114.536Y-123.123
X115.806Y-74.863
X117.076Y-123.123
X118.346Y-74.863
X119.616Y-123.123
X120.886Y-74.863
X122.156Y-123.123
X123.426Y-74.863
X124.696Y-123.123
X127.236Y-74.863
X127.236Y-123.123
X129.776Y-74.863
X132.316Y-74.863
X132.316Y-123.123
X134.856Y-74.863
X134.856Y-123.123
X137.396Y-74.863
X137.396Y-123.123
X139.936Y-74.863
X139.936Y-123.123
X142.476Y-74.863
X142.476Y-123.123
X145.016Y-74.863
X145.016Y-123.123
X145.143Y-95.183
X145.143Y-97.723
X145.143Y-100.263
X147.641Y-104.518
X147.641Y-107.058
X147.641Y-109.598
X147.641Y-112.138
X147.683Y-95.183
X147.683Y-97.723
X147.683Y-100.263
T6
X85.491Y-116.863
X88.791Y-121.463
X91.691Y-116.863
T3
X84.381Y-85.543G85X83.781Y-85.543
G05
X84.381Y-94.183G85X83.781Y-94.183
G05
X88.811Y-85.543G85X87.711Y-85.543
G05
X88.811Y-94.183G85X87.711Y-94.183
G05
T0
M30
