M48
; DRILL file {KiCad (6.0.1-0)} date 2023 January 23, Monday 19:01:24
; FORMAT={-:-/ absolute / metric / decimal}
; #@! TF.CreationDate,2023-01-23T19:01:24+00:00
; #@! TF.GenerationSoftware,Kicad,Pcbnew,(6.0.1-0)
; #@! TF.FileFunction,Plated,1,2,PTH
FMAT,2
METRIC
; #@! TA.AperFunction,Plated,PTH,ViaDrill
T1C0.250
; #@! TA.AperFunction,Plated,PTH,ViaDrill
T2C0.300
; #@! TA.AperFunction,Plated,PTH,ComponentDrill
T3C0.600
; #@! TA.AperFunction,Plated,PTH,ComponentDrill
T4C0.650
; #@! TA.AperFunction,Plated,PTH,ComponentDrill
T5C1.000
; #@! TA.AperFunction,Plated,PTH,ComponentDrill
T6C3.100
%
G90
G05
T1
X87.981Y-89.136
X87.981Y-90.121
X89.565Y-86.018
X90.006Y-93.903
X90.31Y-90.603
X90.314Y-89.642
X92.966Y-97.783
X92.976Y-96.119
X92.976Y-99.536
X92.991Y-102.969
X94.356Y-88.323
X94.365Y-91.62
X94.734Y-115.169
X95.016Y-110.843
X95.366Y-81.263
X97.236Y-80.213
X97.613Y-82.926
X97.948Y-85.201
X98.046Y-100.303
X98.786Y-106.393
X99.076Y-100.953
X99.516Y-112.743
X99.742Y-90.329
X100.336Y-96.673
X100.604Y-84.936
X100.611Y-99.804
X100.824Y-89.594
X100.951Y-106.993
X101.06Y-91.953
X101.311Y-86.269
X101.52Y-85.072
X101.663Y-99.287
X101.966Y-106.273
X102.077Y-103.963
X102.166Y-95.933
X102.541Y-98.538
X102.936Y-84.733
X104.576Y-106.363
X104.912Y-80.833
X105.446Y-100.493
X105.49Y-97.912
X106.156Y-101.063
X106.536Y-106.533
X106.556Y-97.473
X106.896Y-78.953
X107.129Y-92.509
X107.581Y-114.639
X107.606Y-100.573
X107.866Y-77.083
X107.986Y-95.623
X108.465Y-90.025
X108.48Y-83.208
X109.026Y-78.743
X109.208Y-98.864
X109.384Y-94.101
X109.796Y-92.151
X110.466Y-100.933
X110.576Y-109.743
X110.598Y-112.546
X110.976Y-114.993
X110.989Y-119.668
X111.09Y-88.677
X112.016Y-95.373
X112.894Y-120.214
X113.146Y-95.673
X113.518Y-102.476
X113.633Y-86.133
X114.076Y-91.033
X114.244Y-118.648
X114.512Y-103.471
X114.616Y-119.478
X115.106Y-115.653
X115.236Y-91.783
X115.256Y-92.783
X115.642Y-94.099
X117.983Y-119.604
X120.049Y-112.686
X120.266Y-85.783
X120.694Y-89.336
X120.897Y-120.665
X121.096Y-81.543
X121.126Y-90.663
X121.166Y-92.513
X121.476Y-83.153
X121.496Y-89.293
X122.236Y-83.143
X122.986Y-83.163
X123.396Y-85.833
X123.746Y-83.163
X124.076Y-112.993
X124.126Y-89.413
X124.496Y-83.153
X124.746Y-81.603
X124.916Y-102.603
X125.841Y-95.242
X125.899Y-92.0
X126.026Y-89.193
X126.026Y-91.153
X126.351Y-93.565
X126.475Y-94.577
X126.503Y-106.67
X126.896Y-89.073
X126.956Y-104.913
X127.846Y-96.653
X128.475Y-95.085
X128.956Y-92.173
X129.005Y-90.151
X129.145Y-100.249
X129.676Y-94.273
X129.746Y-90.371
X129.796Y-85.523
X129.846Y-95.773
X129.881Y-87.485
X129.942Y-98.303
X130.406Y-83.063
X130.499Y-84.927
X130.546Y-91.173
X130.625Y-118.433
X130.666Y-84.07
X130.956Y-81.353
X131.086Y-95.383
X131.191Y-89.802
X131.346Y-98.193
X132.026Y-95.213
X132.966Y-95.663
X133.146Y-87.193
X133.167Y-93.788
X133.296Y-92.433
X133.366Y-118.303
X133.94Y-93.806
X134.716Y-93.828
X134.996Y-98.653
X135.115Y-112.625
X135.156Y-102.173
X135.286Y-99.993
X135.636Y-83.343
X135.636Y-106.933
X136.876Y-119.832
X137.026Y-94.183
X137.316Y-93.123
X137.426Y-95.243
X138.676Y-86.053
X139.025Y-120.849
X139.304Y-118.917
X139.636Y-97.263
X139.796Y-93.133
X140.366Y-98.393
X140.44Y-111.732
X140.806Y-89.303
X140.816Y-86.113
X141.126Y-92.663
X141.736Y-90.343
X142.693Y-106.52
X143.186Y-91.783
X143.746Y-95.503
X143.796Y-97.133
X143.821Y-106.654
X144.866Y-103.223
T2
X115.885Y-117.561
X119.363Y-117.544
X124.666Y-115.513
X132.662Y-105.951
X139.287Y-103.274
X139.306Y-94.863
X141.566Y-101.093
T4
X100.391Y-81.868
X100.391Y-83.138
X101.661Y-81.868
X101.661Y-83.138
X102.931Y-81.868
X102.931Y-83.138
X104.201Y-81.868
X104.201Y-83.138
X105.471Y-81.868
X105.471Y-83.138
T5
X100.566Y-74.863
X103.106Y-74.863
X105.646Y-74.863
X108.186Y-74.863
X109.456Y-123.123
X110.726Y-74.863
X111.996Y-123.123
X113.266Y-74.863
X114.536Y-123.123
X115.806Y-74.863
X117.076Y-123.123
X118.346Y-74.863
X119.616Y-123.123
X120.886Y-74.863
X122.156Y-123.123
X123.426Y-74.863
X124.696Y-123.123
X127.236Y-74.863
X127.236Y-123.123
X129.776Y-74.863
X132.316Y-74.863
X132.316Y-123.123
X134.856Y-74.863
X134.856Y-123.123
X137.396Y-74.863
X137.396Y-123.123
X139.936Y-74.863
X139.936Y-123.123
X142.476Y-74.863
X142.476Y-123.123
X145.016Y-74.863
X145.016Y-123.123
X145.143Y-95.183
X145.143Y-97.723
X145.143Y-100.263
X147.641Y-104.518
X147.641Y-107.058
X147.641Y-109.598
X147.641Y-112.138
X147.683Y-95.183
X147.683Y-97.723
X147.683Y-100.263
T6
X85.491Y-116.863
X88.791Y-121.463
X91.691Y-116.863
T3
X84.381Y-85.543G85X83.781Y-85.543
G05
X84.381Y-94.183G85X83.781Y-94.183
G05
X88.811Y-85.543G85X87.711Y-85.543
G05
X88.811Y-94.183G85X87.711Y-94.183
G05
T0
M30
