%FSLAX45Y45*%
G04 Gerber Fmt 4.5, Leading zero omitted, Abs format (unit mm)*
G04 Created by KiCad (PCBNEW (6.0.1-0)) date 2023-01-23 19:01:23*
%MOMM*%
%LPD*%
G01*
G04 APERTURE LIST*
%TA.AperFunction,Profile*%
%ADD10C,0.200000*%
%TD*%
%ADD11C,0.200000*%
%ADD12C,0.065000*%
%ADD13C,0.150000*%
%ADD14C,0.320000*%
G04 APERTURE END LIST*
D10*
X8162936Y-7288295D02*
X8179864Y-7267135D01*
X15003702Y-8786365D02*
X15003702Y-12059692D01*
X8150241Y-12468064D02*
X8150241Y-7339077D01*
X8224298Y-7241744D02*
X8249689Y-7237513D01*
X14749792Y-12313602D02*
X14749792Y-12468064D01*
X14675735Y-12563281D02*
X14650344Y-12567513D01*
X14749792Y-12468064D02*
X14745560Y-12493455D01*
X8201023Y-12554817D02*
X8179864Y-12537890D01*
X8201023Y-7252324D02*
X8224298Y-7241744D01*
X8249689Y-12567513D02*
X8224298Y-12563281D01*
X8154473Y-7311570D02*
X8162936Y-7288295D01*
X15003702Y-12059692D02*
X14749792Y-12313602D01*
X8224298Y-12563281D02*
X8201023Y-12554817D01*
X14699010Y-12554817D02*
X14675735Y-12563281D01*
X14720169Y-12537890D02*
X14699010Y-12554817D01*
X8154473Y-12493455D02*
X8150241Y-12468064D01*
X8179864Y-7267135D02*
X8201023Y-7252324D01*
X8249689Y-7237513D02*
X14597446Y-7237513D01*
X8162936Y-12516731D02*
X8154473Y-12493455D01*
X14650344Y-12567513D02*
X8249689Y-12567513D01*
X14749792Y-7389859D02*
X14749792Y-8532455D01*
X8179864Y-12537890D02*
X8162936Y-12516731D01*
X14737097Y-12516731D02*
X14720169Y-12537890D01*
X14597446Y-7237513D02*
X14749792Y-7389859D01*
X14749792Y-8532455D02*
X15003702Y-8786365D01*
X14745560Y-12493455D02*
X14737097Y-12516731D01*
X8150241Y-7339077D02*
X8154473Y-7311570D01*
D11*
D12*
X8740600Y-8664800D02*
X8805600Y-8729800D01*
X8805600Y-8664800D02*
X8740600Y-8729800D01*
X8740600Y-9242800D02*
X8805600Y-9307800D01*
X8805600Y-9242800D02*
X8740600Y-9307800D01*
D13*
X8524100Y-11336300D02*
G75*
G03*
X8524100Y-11336300I-75000J0D01*
G01*
X8524100Y-12036300D02*
G75*
G03*
X8524100Y-12036300I-75000J0D01*
G01*
D14*
X9548600Y-12152300D02*
X9548600Y-12472300D01*
X9388600Y-12312300D02*
X9708600Y-12312300D01*
X9675600Y-7326300D02*
X9675600Y-7646300D01*
X9515600Y-7486300D02*
X9835600Y-7486300D01*
X14755600Y-8850300D02*
X14755600Y-9170300D01*
X14595600Y-9010300D02*
X14915600Y-9010300D01*
X14755600Y-11644300D02*
X14755600Y-11964300D01*
X14595600Y-11804300D02*
X14915600Y-11804300D01*
D11*
X8397860Y-12887989D02*
X8397860Y-12687989D01*
X8445479Y-12687989D01*
X8474050Y-12697513D01*
X8493098Y-12716560D01*
X8502622Y-12735608D01*
X8512146Y-12773703D01*
X8512146Y-12802274D01*
X8502622Y-12840370D01*
X8493098Y-12859417D01*
X8474050Y-12878465D01*
X8445479Y-12887989D01*
X8397860Y-12887989D01*
X8597860Y-12887989D02*
X8597860Y-12754655D01*
X8597860Y-12792751D02*
X8607384Y-12773703D01*
X8616907Y-12764179D01*
X8635955Y-12754655D01*
X8655003Y-12754655D01*
X8721669Y-12887989D02*
X8721669Y-12754655D01*
X8721669Y-12687989D02*
X8712146Y-12697513D01*
X8721669Y-12707036D01*
X8731193Y-12697513D01*
X8721669Y-12687989D01*
X8721669Y-12707036D01*
X8845479Y-12887989D02*
X8826431Y-12878465D01*
X8816907Y-12859417D01*
X8816907Y-12687989D01*
X8950241Y-12887989D02*
X8931193Y-12878465D01*
X8921669Y-12859417D01*
X8921669Y-12687989D01*
X9178812Y-12887989D02*
X9178812Y-12687989D01*
X9245479Y-12830846D01*
X9312146Y-12687989D01*
X9312146Y-12887989D01*
X9493098Y-12887989D02*
X9493098Y-12783227D01*
X9483574Y-12764179D01*
X9464527Y-12754655D01*
X9426431Y-12754655D01*
X9407384Y-12764179D01*
X9493098Y-12878465D02*
X9474050Y-12887989D01*
X9426431Y-12887989D01*
X9407384Y-12878465D01*
X9397860Y-12859417D01*
X9397860Y-12840370D01*
X9407384Y-12821322D01*
X9426431Y-12811798D01*
X9474050Y-12811798D01*
X9493098Y-12802274D01*
X9588336Y-12754655D02*
X9588336Y-12954655D01*
X9588336Y-12764179D02*
X9607384Y-12754655D01*
X9645479Y-12754655D01*
X9664527Y-12764179D01*
X9674050Y-12773703D01*
X9683574Y-12792751D01*
X9683574Y-12849893D01*
X9674050Y-12868941D01*
X9664527Y-12878465D01*
X9645479Y-12887989D01*
X9607384Y-12887989D01*
X9588336Y-12878465D01*
X9769288Y-12868941D02*
X9778812Y-12878465D01*
X9769288Y-12887989D01*
X9759765Y-12878465D01*
X9769288Y-12868941D01*
X9769288Y-12887989D01*
X9769288Y-12764179D02*
X9778812Y-12773703D01*
X9769288Y-12783227D01*
X9759765Y-12773703D01*
X9769288Y-12764179D01*
X9769288Y-12783227D01*
D12*
X8075241Y-13185013D02*
X8140241Y-13250013D01*
X8140241Y-13185013D02*
X8075241Y-13250013D01*
D11*
X8435955Y-13107989D02*
X8455003Y-13107989D01*
X8474050Y-13117513D01*
X8483574Y-13127036D01*
X8493098Y-13146084D01*
X8502622Y-13184179D01*
X8502622Y-13231798D01*
X8493098Y-13269893D01*
X8483574Y-13288941D01*
X8474050Y-13298465D01*
X8455003Y-13307989D01*
X8435955Y-13307989D01*
X8416907Y-13298465D01*
X8407384Y-13288941D01*
X8397860Y-13269893D01*
X8388336Y-13231798D01*
X8388336Y-13184179D01*
X8397860Y-13146084D01*
X8407384Y-13127036D01*
X8416907Y-13117513D01*
X8435955Y-13107989D01*
X8588336Y-13288941D02*
X8597860Y-13298465D01*
X8588336Y-13307989D01*
X8578812Y-13298465D01*
X8588336Y-13288941D01*
X8588336Y-13307989D01*
X8769288Y-13107989D02*
X8731193Y-13107989D01*
X8712146Y-13117513D01*
X8702622Y-13127036D01*
X8683574Y-13155608D01*
X8674050Y-13193703D01*
X8674050Y-13269893D01*
X8683574Y-13288941D01*
X8693098Y-13298465D01*
X8712146Y-13307989D01*
X8750241Y-13307989D01*
X8769288Y-13298465D01*
X8778812Y-13288941D01*
X8788336Y-13269893D01*
X8788336Y-13222274D01*
X8778812Y-13203227D01*
X8769288Y-13193703D01*
X8750241Y-13184179D01*
X8712146Y-13184179D01*
X8693098Y-13193703D01*
X8683574Y-13203227D01*
X8674050Y-13222274D01*
X8969288Y-13107989D02*
X8874050Y-13107989D01*
X8864527Y-13203227D01*
X8874050Y-13193703D01*
X8893098Y-13184179D01*
X8940717Y-13184179D01*
X8959765Y-13193703D01*
X8969288Y-13203227D01*
X8978812Y-13222274D01*
X8978812Y-13269893D01*
X8969288Y-13288941D01*
X8959765Y-13298465D01*
X8940717Y-13307989D01*
X8893098Y-13307989D01*
X8874050Y-13298465D01*
X8864527Y-13288941D01*
X9102622Y-13107989D02*
X9121669Y-13107989D01*
X9140717Y-13117513D01*
X9150241Y-13127036D01*
X9159765Y-13146084D01*
X9169288Y-13184179D01*
X9169288Y-13231798D01*
X9159765Y-13269893D01*
X9150241Y-13288941D01*
X9140717Y-13298465D01*
X9121669Y-13307989D01*
X9102622Y-13307989D01*
X9083574Y-13298465D01*
X9074050Y-13288941D01*
X9064527Y-13269893D01*
X9055003Y-13231798D01*
X9055003Y-13184179D01*
X9064527Y-13146084D01*
X9074050Y-13127036D01*
X9083574Y-13117513D01*
X9102622Y-13107989D01*
X9255003Y-13307989D02*
X9255003Y-13174655D01*
X9255003Y-13193703D02*
X9264527Y-13184179D01*
X9283574Y-13174655D01*
X9312146Y-13174655D01*
X9331193Y-13184179D01*
X9340717Y-13203227D01*
X9340717Y-13307989D01*
X9340717Y-13203227D02*
X9350241Y-13184179D01*
X9369288Y-13174655D01*
X9397860Y-13174655D01*
X9416907Y-13184179D01*
X9426431Y-13203227D01*
X9426431Y-13307989D01*
X9521669Y-13307989D02*
X9521669Y-13174655D01*
X9521669Y-13193703D02*
X9531193Y-13184179D01*
X9550241Y-13174655D01*
X9578812Y-13174655D01*
X9597860Y-13184179D01*
X9607384Y-13203227D01*
X9607384Y-13307989D01*
X9607384Y-13203227D02*
X9616907Y-13184179D01*
X9635955Y-13174655D01*
X9664527Y-13174655D01*
X9683574Y-13184179D01*
X9693098Y-13203227D01*
X9693098Y-13307989D01*
X10083574Y-13098465D02*
X9912146Y-13355608D01*
X10340717Y-13107989D02*
X10359765Y-13107989D01*
X10378812Y-13117513D01*
X10388336Y-13127036D01*
X10397860Y-13146084D01*
X10407384Y-13184179D01*
X10407384Y-13231798D01*
X10397860Y-13269893D01*
X10388336Y-13288941D01*
X10378812Y-13298465D01*
X10359765Y-13307989D01*
X10340717Y-13307989D01*
X10321669Y-13298465D01*
X10312146Y-13288941D01*
X10302622Y-13269893D01*
X10293098Y-13231798D01*
X10293098Y-13184179D01*
X10302622Y-13146084D01*
X10312146Y-13127036D01*
X10321669Y-13117513D01*
X10340717Y-13107989D01*
X10493098Y-13288941D02*
X10502622Y-13298465D01*
X10493098Y-13307989D01*
X10483574Y-13298465D01*
X10493098Y-13288941D01*
X10493098Y-13307989D01*
X10626431Y-13107989D02*
X10645479Y-13107989D01*
X10664527Y-13117513D01*
X10674050Y-13127036D01*
X10683574Y-13146084D01*
X10693098Y-13184179D01*
X10693098Y-13231798D01*
X10683574Y-13269893D01*
X10674050Y-13288941D01*
X10664527Y-13298465D01*
X10645479Y-13307989D01*
X10626431Y-13307989D01*
X10607384Y-13298465D01*
X10597860Y-13288941D01*
X10588336Y-13269893D01*
X10578812Y-13231798D01*
X10578812Y-13184179D01*
X10588336Y-13146084D01*
X10597860Y-13127036D01*
X10607384Y-13117513D01*
X10626431Y-13107989D01*
X10769288Y-13127036D02*
X10778812Y-13117513D01*
X10797860Y-13107989D01*
X10845479Y-13107989D01*
X10864527Y-13117513D01*
X10874050Y-13127036D01*
X10883574Y-13146084D01*
X10883574Y-13165132D01*
X10874050Y-13193703D01*
X10759765Y-13307989D01*
X10883574Y-13307989D01*
X11064527Y-13107989D02*
X10969288Y-13107989D01*
X10959765Y-13203227D01*
X10969288Y-13193703D01*
X10988336Y-13184179D01*
X11035955Y-13184179D01*
X11055003Y-13193703D01*
X11064527Y-13203227D01*
X11074050Y-13222274D01*
X11074050Y-13269893D01*
X11064527Y-13288941D01*
X11055003Y-13298465D01*
X11035955Y-13307989D01*
X10988336Y-13307989D01*
X10969288Y-13298465D01*
X10959765Y-13288941D01*
X11245479Y-13107989D02*
X11207384Y-13107989D01*
X11188336Y-13117513D01*
X11178812Y-13127036D01*
X11159765Y-13155608D01*
X11150241Y-13193703D01*
X11150241Y-13269893D01*
X11159765Y-13288941D01*
X11169288Y-13298465D01*
X11188336Y-13307989D01*
X11226431Y-13307989D01*
X11245479Y-13298465D01*
X11255003Y-13288941D01*
X11264526Y-13269893D01*
X11264526Y-13222274D01*
X11255003Y-13203227D01*
X11245479Y-13193703D01*
X11226431Y-13184179D01*
X11188336Y-13184179D01*
X11169288Y-13193703D01*
X11159765Y-13203227D01*
X11150241Y-13222274D01*
X11340717Y-13107989D02*
X11340717Y-13146084D01*
X11416907Y-13107989D02*
X11416907Y-13146084D01*
X11712145Y-13384179D02*
X11702622Y-13374655D01*
X11683574Y-13346084D01*
X11674050Y-13327036D01*
X11664526Y-13298465D01*
X11655003Y-13250846D01*
X11655003Y-13212751D01*
X11664526Y-13165132D01*
X11674050Y-13136560D01*
X11683574Y-13117513D01*
X11702622Y-13088941D01*
X11712145Y-13079417D01*
X11778812Y-13127036D02*
X11788336Y-13117513D01*
X11807384Y-13107989D01*
X11855003Y-13107989D01*
X11874050Y-13117513D01*
X11883574Y-13127036D01*
X11893098Y-13146084D01*
X11893098Y-13165132D01*
X11883574Y-13193703D01*
X11769288Y-13307989D01*
X11893098Y-13307989D01*
X12131193Y-13307989D02*
X12131193Y-13107989D01*
X12216907Y-13307989D02*
X12216907Y-13203227D01*
X12207384Y-13184179D01*
X12188336Y-13174655D01*
X12159765Y-13174655D01*
X12140717Y-13184179D01*
X12131193Y-13193703D01*
X12340717Y-13307989D02*
X12321669Y-13298465D01*
X12312145Y-13288941D01*
X12302622Y-13269893D01*
X12302622Y-13212751D01*
X12312145Y-13193703D01*
X12321669Y-13184179D01*
X12340717Y-13174655D01*
X12369288Y-13174655D01*
X12388336Y-13184179D01*
X12397860Y-13193703D01*
X12407384Y-13212751D01*
X12407384Y-13269893D01*
X12397860Y-13288941D01*
X12388336Y-13298465D01*
X12369288Y-13307989D01*
X12340717Y-13307989D01*
X12521669Y-13307989D02*
X12502622Y-13298465D01*
X12493098Y-13279417D01*
X12493098Y-13107989D01*
X12674050Y-13298465D02*
X12655003Y-13307989D01*
X12616907Y-13307989D01*
X12597860Y-13298465D01*
X12588336Y-13279417D01*
X12588336Y-13203227D01*
X12597860Y-13184179D01*
X12616907Y-13174655D01*
X12655003Y-13174655D01*
X12674050Y-13184179D01*
X12683574Y-13203227D01*
X12683574Y-13222274D01*
X12588336Y-13241322D01*
X12759765Y-13298465D02*
X12778812Y-13307989D01*
X12816907Y-13307989D01*
X12835955Y-13298465D01*
X12845479Y-13279417D01*
X12845479Y-13269893D01*
X12835955Y-13250846D01*
X12816907Y-13241322D01*
X12788336Y-13241322D01*
X12769288Y-13231798D01*
X12759765Y-13212751D01*
X12759765Y-13203227D01*
X12769288Y-13184179D01*
X12788336Y-13174655D01*
X12816907Y-13174655D01*
X12835955Y-13184179D01*
X12912145Y-13384179D02*
X12921669Y-13374655D01*
X12940717Y-13346084D01*
X12950241Y-13327036D01*
X12959765Y-13298465D01*
X12969288Y-13250846D01*
X12969288Y-13212751D01*
X12959765Y-13165132D01*
X12950241Y-13136560D01*
X12940717Y-13117513D01*
X12921669Y-13088941D01*
X12912145Y-13079417D01*
X13274050Y-13384179D02*
X13264526Y-13374655D01*
X13245479Y-13346084D01*
X13235955Y-13327036D01*
X13226431Y-13298465D01*
X13216907Y-13250846D01*
X13216907Y-13212751D01*
X13226431Y-13165132D01*
X13235955Y-13136560D01*
X13245479Y-13117513D01*
X13264526Y-13088941D01*
X13274050Y-13079417D01*
X13350241Y-13174655D02*
X13350241Y-13307989D01*
X13350241Y-13193703D02*
X13359765Y-13184179D01*
X13378812Y-13174655D01*
X13407384Y-13174655D01*
X13426431Y-13184179D01*
X13435955Y-13203227D01*
X13435955Y-13307989D01*
X13559765Y-13307989D02*
X13540717Y-13298465D01*
X13531193Y-13288941D01*
X13521669Y-13269893D01*
X13521669Y-13212751D01*
X13531193Y-13193703D01*
X13540717Y-13184179D01*
X13559765Y-13174655D01*
X13588336Y-13174655D01*
X13607384Y-13184179D01*
X13616907Y-13193703D01*
X13626431Y-13212751D01*
X13626431Y-13269893D01*
X13616907Y-13288941D01*
X13607384Y-13298465D01*
X13588336Y-13307989D01*
X13559765Y-13307989D01*
X13683574Y-13174655D02*
X13759765Y-13174655D01*
X13712145Y-13107989D02*
X13712145Y-13279417D01*
X13721669Y-13298465D01*
X13740717Y-13307989D01*
X13759765Y-13307989D01*
X13978812Y-13174655D02*
X13978812Y-13374655D01*
X13978812Y-13184179D02*
X13997860Y-13174655D01*
X14035955Y-13174655D01*
X14055003Y-13184179D01*
X14064526Y-13193703D01*
X14074050Y-13212751D01*
X14074050Y-13269893D01*
X14064526Y-13288941D01*
X14055003Y-13298465D01*
X14035955Y-13307989D01*
X13997860Y-13307989D01*
X13978812Y-13298465D01*
X14188336Y-13307989D02*
X14169288Y-13298465D01*
X14159765Y-13279417D01*
X14159765Y-13107989D01*
X14350241Y-13307989D02*
X14350241Y-13203227D01*
X14340717Y-13184179D01*
X14321669Y-13174655D01*
X14283574Y-13174655D01*
X14264526Y-13184179D01*
X14350241Y-13298465D02*
X14331193Y-13307989D01*
X14283574Y-13307989D01*
X14264526Y-13298465D01*
X14255003Y-13279417D01*
X14255003Y-13260370D01*
X14264526Y-13241322D01*
X14283574Y-13231798D01*
X14331193Y-13231798D01*
X14350241Y-13222274D01*
X14416907Y-13174655D02*
X14493098Y-13174655D01*
X14445479Y-13107989D02*
X14445479Y-13279417D01*
X14455003Y-13298465D01*
X14474050Y-13307989D01*
X14493098Y-13307989D01*
X14635955Y-13298465D02*
X14616907Y-13307989D01*
X14578812Y-13307989D01*
X14559765Y-13298465D01*
X14550241Y-13279417D01*
X14550241Y-13203227D01*
X14559765Y-13184179D01*
X14578812Y-13174655D01*
X14616907Y-13174655D01*
X14635955Y-13184179D01*
X14645479Y-13203227D01*
X14645479Y-13222274D01*
X14550241Y-13241322D01*
X14816907Y-13307989D02*
X14816907Y-13107989D01*
X14816907Y-13298465D02*
X14797860Y-13307989D01*
X14759765Y-13307989D01*
X14740717Y-13298465D01*
X14731193Y-13288941D01*
X14721669Y-13269893D01*
X14721669Y-13212751D01*
X14731193Y-13193703D01*
X14740717Y-13184179D01*
X14759765Y-13174655D01*
X14797860Y-13174655D01*
X14816907Y-13184179D01*
X14893098Y-13384179D02*
X14902622Y-13374655D01*
X14921669Y-13346084D01*
X14931193Y-13327036D01*
X14940717Y-13298465D01*
X14950241Y-13250846D01*
X14950241Y-13212751D01*
X14940717Y-13165132D01*
X14931193Y-13136560D01*
X14921669Y-13117513D01*
X14902622Y-13088941D01*
X14893098Y-13079417D01*
D13*
X8140241Y-13481513D02*
G75*
G03*
X8140241Y-13481513I-75000J0D01*
G01*
D11*
X8502622Y-13571989D02*
X8388336Y-13571989D01*
X8445479Y-13571989D02*
X8445479Y-13371989D01*
X8426431Y-13400560D01*
X8407384Y-13419608D01*
X8388336Y-13429132D01*
X8588336Y-13552941D02*
X8597860Y-13562465D01*
X8588336Y-13571989D01*
X8578812Y-13562465D01*
X8588336Y-13552941D01*
X8588336Y-13571989D01*
X8778812Y-13371989D02*
X8683574Y-13371989D01*
X8674050Y-13467227D01*
X8683574Y-13457703D01*
X8702622Y-13448179D01*
X8750241Y-13448179D01*
X8769288Y-13457703D01*
X8778812Y-13467227D01*
X8788336Y-13486274D01*
X8788336Y-13533893D01*
X8778812Y-13552941D01*
X8769288Y-13562465D01*
X8750241Y-13571989D01*
X8702622Y-13571989D01*
X8683574Y-13562465D01*
X8674050Y-13552941D01*
X8912146Y-13371989D02*
X8931193Y-13371989D01*
X8950241Y-13381513D01*
X8959765Y-13391036D01*
X8969288Y-13410084D01*
X8978812Y-13448179D01*
X8978812Y-13495798D01*
X8969288Y-13533893D01*
X8959765Y-13552941D01*
X8950241Y-13562465D01*
X8931193Y-13571989D01*
X8912146Y-13571989D01*
X8893098Y-13562465D01*
X8883574Y-13552941D01*
X8874050Y-13533893D01*
X8864527Y-13495798D01*
X8864527Y-13448179D01*
X8874050Y-13410084D01*
X8883574Y-13391036D01*
X8893098Y-13381513D01*
X8912146Y-13371989D01*
X9102622Y-13371989D02*
X9121669Y-13371989D01*
X9140717Y-13381513D01*
X9150241Y-13391036D01*
X9159765Y-13410084D01*
X9169288Y-13448179D01*
X9169288Y-13495798D01*
X9159765Y-13533893D01*
X9150241Y-13552941D01*
X9140717Y-13562465D01*
X9121669Y-13571989D01*
X9102622Y-13571989D01*
X9083574Y-13562465D01*
X9074050Y-13552941D01*
X9064527Y-13533893D01*
X9055003Y-13495798D01*
X9055003Y-13448179D01*
X9064527Y-13410084D01*
X9074050Y-13391036D01*
X9083574Y-13381513D01*
X9102622Y-13371989D01*
X9255003Y-13571989D02*
X9255003Y-13438655D01*
X9255003Y-13457703D02*
X9264527Y-13448179D01*
X9283574Y-13438655D01*
X9312146Y-13438655D01*
X9331193Y-13448179D01*
X9340717Y-13467227D01*
X9340717Y-13571989D01*
X9340717Y-13467227D02*
X9350241Y-13448179D01*
X9369288Y-13438655D01*
X9397860Y-13438655D01*
X9416907Y-13448179D01*
X9426431Y-13467227D01*
X9426431Y-13571989D01*
X9521669Y-13571989D02*
X9521669Y-13438655D01*
X9521669Y-13457703D02*
X9531193Y-13448179D01*
X9550241Y-13438655D01*
X9578812Y-13438655D01*
X9597860Y-13448179D01*
X9607384Y-13467227D01*
X9607384Y-13571989D01*
X9607384Y-13467227D02*
X9616907Y-13448179D01*
X9635955Y-13438655D01*
X9664527Y-13438655D01*
X9683574Y-13448179D01*
X9693098Y-13467227D01*
X9693098Y-13571989D01*
X10083574Y-13362465D02*
X9912146Y-13619608D01*
X10340717Y-13371989D02*
X10359765Y-13371989D01*
X10378812Y-13381513D01*
X10388336Y-13391036D01*
X10397860Y-13410084D01*
X10407384Y-13448179D01*
X10407384Y-13495798D01*
X10397860Y-13533893D01*
X10388336Y-13552941D01*
X10378812Y-13562465D01*
X10359765Y-13571989D01*
X10340717Y-13571989D01*
X10321669Y-13562465D01*
X10312146Y-13552941D01*
X10302622Y-13533893D01*
X10293098Y-13495798D01*
X10293098Y-13448179D01*
X10302622Y-13410084D01*
X10312146Y-13391036D01*
X10321669Y-13381513D01*
X10340717Y-13371989D01*
X10493098Y-13552941D02*
X10502622Y-13562465D01*
X10493098Y-13571989D01*
X10483574Y-13562465D01*
X10493098Y-13552941D01*
X10493098Y-13571989D01*
X10626431Y-13371989D02*
X10645479Y-13371989D01*
X10664527Y-13381513D01*
X10674050Y-13391036D01*
X10683574Y-13410084D01*
X10693098Y-13448179D01*
X10693098Y-13495798D01*
X10683574Y-13533893D01*
X10674050Y-13552941D01*
X10664527Y-13562465D01*
X10645479Y-13571989D01*
X10626431Y-13571989D01*
X10607384Y-13562465D01*
X10597860Y-13552941D01*
X10588336Y-13533893D01*
X10578812Y-13495798D01*
X10578812Y-13448179D01*
X10588336Y-13410084D01*
X10597860Y-13391036D01*
X10607384Y-13381513D01*
X10626431Y-13371989D01*
X10874050Y-13371989D02*
X10778812Y-13371989D01*
X10769288Y-13467227D01*
X10778812Y-13457703D01*
X10797860Y-13448179D01*
X10845479Y-13448179D01*
X10864527Y-13457703D01*
X10874050Y-13467227D01*
X10883574Y-13486274D01*
X10883574Y-13533893D01*
X10874050Y-13552941D01*
X10864527Y-13562465D01*
X10845479Y-13571989D01*
X10797860Y-13571989D01*
X10778812Y-13562465D01*
X10769288Y-13552941D01*
X10978812Y-13571989D02*
X11016907Y-13571989D01*
X11035955Y-13562465D01*
X11045479Y-13552941D01*
X11064527Y-13524370D01*
X11074050Y-13486274D01*
X11074050Y-13410084D01*
X11064527Y-13391036D01*
X11055003Y-13381513D01*
X11035955Y-13371989D01*
X10997860Y-13371989D01*
X10978812Y-13381513D01*
X10969288Y-13391036D01*
X10959765Y-13410084D01*
X10959765Y-13457703D01*
X10969288Y-13476751D01*
X10978812Y-13486274D01*
X10997860Y-13495798D01*
X11035955Y-13495798D01*
X11055003Y-13486274D01*
X11064527Y-13476751D01*
X11074050Y-13457703D01*
X11264526Y-13571989D02*
X11150241Y-13571989D01*
X11207384Y-13571989D02*
X11207384Y-13371989D01*
X11188336Y-13400560D01*
X11169288Y-13419608D01*
X11150241Y-13429132D01*
X11340717Y-13371989D02*
X11340717Y-13410084D01*
X11416907Y-13371989D02*
X11416907Y-13410084D01*
X11712145Y-13648179D02*
X11702622Y-13638655D01*
X11683574Y-13610084D01*
X11674050Y-13591036D01*
X11664526Y-13562465D01*
X11655003Y-13514846D01*
X11655003Y-13476751D01*
X11664526Y-13429132D01*
X11674050Y-13400560D01*
X11683574Y-13381513D01*
X11702622Y-13352941D01*
X11712145Y-13343417D01*
X11778812Y-13391036D02*
X11788336Y-13381513D01*
X11807384Y-13371989D01*
X11855003Y-13371989D01*
X11874050Y-13381513D01*
X11883574Y-13391036D01*
X11893098Y-13410084D01*
X11893098Y-13429132D01*
X11883574Y-13457703D01*
X11769288Y-13571989D01*
X11893098Y-13571989D01*
X12131193Y-13571989D02*
X12131193Y-13371989D01*
X12216907Y-13571989D02*
X12216907Y-13467227D01*
X12207384Y-13448179D01*
X12188336Y-13438655D01*
X12159765Y-13438655D01*
X12140717Y-13448179D01*
X12131193Y-13457703D01*
X12340717Y-13571989D02*
X12321669Y-13562465D01*
X12312145Y-13552941D01*
X12302622Y-13533893D01*
X12302622Y-13476751D01*
X12312145Y-13457703D01*
X12321669Y-13448179D01*
X12340717Y-13438655D01*
X12369288Y-13438655D01*
X12388336Y-13448179D01*
X12397860Y-13457703D01*
X12407384Y-13476751D01*
X12407384Y-13533893D01*
X12397860Y-13552941D01*
X12388336Y-13562465D01*
X12369288Y-13571989D01*
X12340717Y-13571989D01*
X12521669Y-13571989D02*
X12502622Y-13562465D01*
X12493098Y-13543417D01*
X12493098Y-13371989D01*
X12674050Y-13562465D02*
X12655003Y-13571989D01*
X12616907Y-13571989D01*
X12597860Y-13562465D01*
X12588336Y-13543417D01*
X12588336Y-13467227D01*
X12597860Y-13448179D01*
X12616907Y-13438655D01*
X12655003Y-13438655D01*
X12674050Y-13448179D01*
X12683574Y-13467227D01*
X12683574Y-13486274D01*
X12588336Y-13505322D01*
X12759765Y-13562465D02*
X12778812Y-13571989D01*
X12816907Y-13571989D01*
X12835955Y-13562465D01*
X12845479Y-13543417D01*
X12845479Y-13533893D01*
X12835955Y-13514846D01*
X12816907Y-13505322D01*
X12788336Y-13505322D01*
X12769288Y-13495798D01*
X12759765Y-13476751D01*
X12759765Y-13467227D01*
X12769288Y-13448179D01*
X12788336Y-13438655D01*
X12816907Y-13438655D01*
X12835955Y-13448179D01*
X12912145Y-13648179D02*
X12921669Y-13638655D01*
X12940717Y-13610084D01*
X12950241Y-13591036D01*
X12959765Y-13562465D01*
X12969288Y-13514846D01*
X12969288Y-13476751D01*
X12959765Y-13429132D01*
X12950241Y-13400560D01*
X12940717Y-13381513D01*
X12921669Y-13352941D01*
X12912145Y-13343417D01*
X13274050Y-13648179D02*
X13264526Y-13638655D01*
X13245479Y-13610084D01*
X13235955Y-13591036D01*
X13226431Y-13562465D01*
X13216907Y-13514846D01*
X13216907Y-13476751D01*
X13226431Y-13429132D01*
X13235955Y-13400560D01*
X13245479Y-13381513D01*
X13264526Y-13352941D01*
X13274050Y-13343417D01*
X13350241Y-13438655D02*
X13350241Y-13571989D01*
X13350241Y-13457703D02*
X13359765Y-13448179D01*
X13378812Y-13438655D01*
X13407384Y-13438655D01*
X13426431Y-13448179D01*
X13435955Y-13467227D01*
X13435955Y-13571989D01*
X13559765Y-13571989D02*
X13540717Y-13562465D01*
X13531193Y-13552941D01*
X13521669Y-13533893D01*
X13521669Y-13476751D01*
X13531193Y-13457703D01*
X13540717Y-13448179D01*
X13559765Y-13438655D01*
X13588336Y-13438655D01*
X13607384Y-13448179D01*
X13616907Y-13457703D01*
X13626431Y-13476751D01*
X13626431Y-13533893D01*
X13616907Y-13552941D01*
X13607384Y-13562465D01*
X13588336Y-13571989D01*
X13559765Y-13571989D01*
X13683574Y-13438655D02*
X13759765Y-13438655D01*
X13712145Y-13371989D02*
X13712145Y-13543417D01*
X13721669Y-13562465D01*
X13740717Y-13571989D01*
X13759765Y-13571989D01*
X13978812Y-13438655D02*
X13978812Y-13638655D01*
X13978812Y-13448179D02*
X13997860Y-13438655D01*
X14035955Y-13438655D01*
X14055003Y-13448179D01*
X14064526Y-13457703D01*
X14074050Y-13476751D01*
X14074050Y-13533893D01*
X14064526Y-13552941D01*
X14055003Y-13562465D01*
X14035955Y-13571989D01*
X13997860Y-13571989D01*
X13978812Y-13562465D01*
X14188336Y-13571989D02*
X14169288Y-13562465D01*
X14159765Y-13543417D01*
X14159765Y-13371989D01*
X14350241Y-13571989D02*
X14350241Y-13467227D01*
X14340717Y-13448179D01*
X14321669Y-13438655D01*
X14283574Y-13438655D01*
X14264526Y-13448179D01*
X14350241Y-13562465D02*
X14331193Y-13571989D01*
X14283574Y-13571989D01*
X14264526Y-13562465D01*
X14255003Y-13543417D01*
X14255003Y-13524370D01*
X14264526Y-13505322D01*
X14283574Y-13495798D01*
X14331193Y-13495798D01*
X14350241Y-13486274D01*
X14416907Y-13438655D02*
X14493098Y-13438655D01*
X14445479Y-13371989D02*
X14445479Y-13543417D01*
X14455003Y-13562465D01*
X14474050Y-13571989D01*
X14493098Y-13571989D01*
X14635955Y-13562465D02*
X14616907Y-13571989D01*
X14578812Y-13571989D01*
X14559765Y-13562465D01*
X14550241Y-13543417D01*
X14550241Y-13467227D01*
X14559765Y-13448179D01*
X14578812Y-13438655D01*
X14616907Y-13438655D01*
X14635955Y-13448179D01*
X14645479Y-13467227D01*
X14645479Y-13486274D01*
X14550241Y-13505322D01*
X14816907Y-13571989D02*
X14816907Y-13371989D01*
X14816907Y-13562465D02*
X14797860Y-13571989D01*
X14759765Y-13571989D01*
X14740717Y-13562465D01*
X14731193Y-13552941D01*
X14721669Y-13533893D01*
X14721669Y-13476751D01*
X14731193Y-13457703D01*
X14740717Y-13448179D01*
X14759765Y-13438655D01*
X14797860Y-13438655D01*
X14816907Y-13448179D01*
X14893098Y-13648179D02*
X14902622Y-13638655D01*
X14921669Y-13610084D01*
X14931193Y-13591036D01*
X14940717Y-13562465D01*
X14950241Y-13514846D01*
X14950241Y-13476751D01*
X14940717Y-13429132D01*
X14931193Y-13400560D01*
X14921669Y-13381513D01*
X14902622Y-13352941D01*
X14893098Y-13343417D01*
X8040241Y-13651513D02*
X8040241Y-13851513D01*
X7940241Y-13751513D02*
X8140241Y-13751513D01*
X8378812Y-13641989D02*
X8502622Y-13641989D01*
X8435955Y-13718179D01*
X8464527Y-13718179D01*
X8483574Y-13727703D01*
X8493098Y-13737227D01*
X8502622Y-13756274D01*
X8502622Y-13803893D01*
X8493098Y-13822941D01*
X8483574Y-13832465D01*
X8464527Y-13841989D01*
X8407384Y-13841989D01*
X8388336Y-13832465D01*
X8378812Y-13822941D01*
X8588336Y-13822941D02*
X8597860Y-13832465D01*
X8588336Y-13841989D01*
X8578812Y-13832465D01*
X8588336Y-13822941D01*
X8588336Y-13841989D01*
X8674050Y-13661036D02*
X8683574Y-13651513D01*
X8702622Y-13641989D01*
X8750241Y-13641989D01*
X8769288Y-13651513D01*
X8778812Y-13661036D01*
X8788336Y-13680084D01*
X8788336Y-13699132D01*
X8778812Y-13727703D01*
X8664527Y-13841989D01*
X8788336Y-13841989D01*
X8912146Y-13641989D02*
X8931193Y-13641989D01*
X8950241Y-13651513D01*
X8959765Y-13661036D01*
X8969288Y-13680084D01*
X8978812Y-13718179D01*
X8978812Y-13765798D01*
X8969288Y-13803893D01*
X8959765Y-13822941D01*
X8950241Y-13832465D01*
X8931193Y-13841989D01*
X8912146Y-13841989D01*
X8893098Y-13832465D01*
X8883574Y-13822941D01*
X8874050Y-13803893D01*
X8864527Y-13765798D01*
X8864527Y-13718179D01*
X8874050Y-13680084D01*
X8883574Y-13661036D01*
X8893098Y-13651513D01*
X8912146Y-13641989D01*
X9102622Y-13641989D02*
X9121669Y-13641989D01*
X9140717Y-13651513D01*
X9150241Y-13661036D01*
X9159765Y-13680084D01*
X9169288Y-13718179D01*
X9169288Y-13765798D01*
X9159765Y-13803893D01*
X9150241Y-13822941D01*
X9140717Y-13832465D01*
X9121669Y-13841989D01*
X9102622Y-13841989D01*
X9083574Y-13832465D01*
X9074050Y-13822941D01*
X9064527Y-13803893D01*
X9055003Y-13765798D01*
X9055003Y-13718179D01*
X9064527Y-13680084D01*
X9074050Y-13661036D01*
X9083574Y-13651513D01*
X9102622Y-13641989D01*
X9255003Y-13841989D02*
X9255003Y-13708655D01*
X9255003Y-13727703D02*
X9264527Y-13718179D01*
X9283574Y-13708655D01*
X9312146Y-13708655D01*
X9331193Y-13718179D01*
X9340717Y-13737227D01*
X9340717Y-13841989D01*
X9340717Y-13737227D02*
X9350241Y-13718179D01*
X9369288Y-13708655D01*
X9397860Y-13708655D01*
X9416907Y-13718179D01*
X9426431Y-13737227D01*
X9426431Y-13841989D01*
X9521669Y-13841989D02*
X9521669Y-13708655D01*
X9521669Y-13727703D02*
X9531193Y-13718179D01*
X9550241Y-13708655D01*
X9578812Y-13708655D01*
X9597860Y-13718179D01*
X9607384Y-13737227D01*
X9607384Y-13841989D01*
X9607384Y-13737227D02*
X9616907Y-13718179D01*
X9635955Y-13708655D01*
X9664527Y-13708655D01*
X9683574Y-13718179D01*
X9693098Y-13737227D01*
X9693098Y-13841989D01*
X10083574Y-13632465D02*
X9912146Y-13889608D01*
X10340717Y-13641989D02*
X10359765Y-13641989D01*
X10378812Y-13651513D01*
X10388336Y-13661036D01*
X10397860Y-13680084D01*
X10407384Y-13718179D01*
X10407384Y-13765798D01*
X10397860Y-13803893D01*
X10388336Y-13822941D01*
X10378812Y-13832465D01*
X10359765Y-13841989D01*
X10340717Y-13841989D01*
X10321669Y-13832465D01*
X10312146Y-13822941D01*
X10302622Y-13803893D01*
X10293098Y-13765798D01*
X10293098Y-13718179D01*
X10302622Y-13680084D01*
X10312146Y-13661036D01*
X10321669Y-13651513D01*
X10340717Y-13641989D01*
X10493098Y-13822941D02*
X10502622Y-13832465D01*
X10493098Y-13841989D01*
X10483574Y-13832465D01*
X10493098Y-13822941D01*
X10493098Y-13841989D01*
X10693098Y-13841989D02*
X10578812Y-13841989D01*
X10635955Y-13841989D02*
X10635955Y-13641989D01*
X10616907Y-13670560D01*
X10597860Y-13689608D01*
X10578812Y-13699132D01*
X10769288Y-13661036D02*
X10778812Y-13651513D01*
X10797860Y-13641989D01*
X10845479Y-13641989D01*
X10864527Y-13651513D01*
X10874050Y-13661036D01*
X10883574Y-13680084D01*
X10883574Y-13699132D01*
X10874050Y-13727703D01*
X10759765Y-13841989D01*
X10883574Y-13841989D01*
X11055003Y-13641989D02*
X11016907Y-13641989D01*
X10997860Y-13651513D01*
X10988336Y-13661036D01*
X10969288Y-13689608D01*
X10959765Y-13727703D01*
X10959765Y-13803893D01*
X10969288Y-13822941D01*
X10978812Y-13832465D01*
X10997860Y-13841989D01*
X11035955Y-13841989D01*
X11055003Y-13832465D01*
X11064527Y-13822941D01*
X11074050Y-13803893D01*
X11074050Y-13756274D01*
X11064527Y-13737227D01*
X11055003Y-13727703D01*
X11035955Y-13718179D01*
X10997860Y-13718179D01*
X10978812Y-13727703D01*
X10969288Y-13737227D01*
X10959765Y-13756274D01*
X11197860Y-13641989D02*
X11216907Y-13641989D01*
X11235955Y-13651513D01*
X11245479Y-13661036D01*
X11255003Y-13680084D01*
X11264526Y-13718179D01*
X11264526Y-13765798D01*
X11255003Y-13803893D01*
X11245479Y-13822941D01*
X11235955Y-13832465D01*
X11216907Y-13841989D01*
X11197860Y-13841989D01*
X11178812Y-13832465D01*
X11169288Y-13822941D01*
X11159765Y-13803893D01*
X11150241Y-13765798D01*
X11150241Y-13718179D01*
X11159765Y-13680084D01*
X11169288Y-13661036D01*
X11178812Y-13651513D01*
X11197860Y-13641989D01*
X11340717Y-13641989D02*
X11340717Y-13680084D01*
X11416907Y-13641989D02*
X11416907Y-13680084D01*
X11712145Y-13918179D02*
X11702622Y-13908655D01*
X11683574Y-13880084D01*
X11674050Y-13861036D01*
X11664526Y-13832465D01*
X11655003Y-13784846D01*
X11655003Y-13746751D01*
X11664526Y-13699132D01*
X11674050Y-13670560D01*
X11683574Y-13651513D01*
X11702622Y-13622941D01*
X11712145Y-13613417D01*
X11874050Y-13708655D02*
X11874050Y-13841989D01*
X11826431Y-13632465D02*
X11778812Y-13775322D01*
X11902622Y-13775322D01*
X12131193Y-13841989D02*
X12131193Y-13641989D01*
X12216907Y-13841989D02*
X12216907Y-13737227D01*
X12207384Y-13718179D01*
X12188336Y-13708655D01*
X12159765Y-13708655D01*
X12140717Y-13718179D01*
X12131193Y-13727703D01*
X12340717Y-13841989D02*
X12321669Y-13832465D01*
X12312145Y-13822941D01*
X12302622Y-13803893D01*
X12302622Y-13746751D01*
X12312145Y-13727703D01*
X12321669Y-13718179D01*
X12340717Y-13708655D01*
X12369288Y-13708655D01*
X12388336Y-13718179D01*
X12397860Y-13727703D01*
X12407384Y-13746751D01*
X12407384Y-13803893D01*
X12397860Y-13822941D01*
X12388336Y-13832465D01*
X12369288Y-13841989D01*
X12340717Y-13841989D01*
X12521669Y-13841989D02*
X12502622Y-13832465D01*
X12493098Y-13813417D01*
X12493098Y-13641989D01*
X12674050Y-13832465D02*
X12655003Y-13841989D01*
X12616907Y-13841989D01*
X12597860Y-13832465D01*
X12588336Y-13813417D01*
X12588336Y-13737227D01*
X12597860Y-13718179D01*
X12616907Y-13708655D01*
X12655003Y-13708655D01*
X12674050Y-13718179D01*
X12683574Y-13737227D01*
X12683574Y-13756274D01*
X12588336Y-13775322D01*
X12759765Y-13832465D02*
X12778812Y-13841989D01*
X12816907Y-13841989D01*
X12835955Y-13832465D01*
X12845479Y-13813417D01*
X12845479Y-13803893D01*
X12835955Y-13784846D01*
X12816907Y-13775322D01*
X12788336Y-13775322D01*
X12769288Y-13765798D01*
X12759765Y-13746751D01*
X12759765Y-13737227D01*
X12769288Y-13718179D01*
X12788336Y-13708655D01*
X12816907Y-13708655D01*
X12835955Y-13718179D01*
X12912145Y-13918179D02*
X12921669Y-13908655D01*
X12940717Y-13880084D01*
X12950241Y-13861036D01*
X12959765Y-13832465D01*
X12969288Y-13784846D01*
X12969288Y-13746751D01*
X12959765Y-13699132D01*
X12950241Y-13670560D01*
X12940717Y-13651513D01*
X12921669Y-13622941D01*
X12912145Y-13613417D01*
X13274050Y-13918179D02*
X13264526Y-13908655D01*
X13245479Y-13880084D01*
X13235955Y-13861036D01*
X13226431Y-13832465D01*
X13216907Y-13784846D01*
X13216907Y-13746751D01*
X13226431Y-13699132D01*
X13235955Y-13670560D01*
X13245479Y-13651513D01*
X13264526Y-13622941D01*
X13274050Y-13613417D01*
X13350241Y-13708655D02*
X13350241Y-13841989D01*
X13350241Y-13727703D02*
X13359765Y-13718179D01*
X13378812Y-13708655D01*
X13407384Y-13708655D01*
X13426431Y-13718179D01*
X13435955Y-13737227D01*
X13435955Y-13841989D01*
X13559765Y-13841989D02*
X13540717Y-13832465D01*
X13531193Y-13822941D01*
X13521669Y-13803893D01*
X13521669Y-13746751D01*
X13531193Y-13727703D01*
X13540717Y-13718179D01*
X13559765Y-13708655D01*
X13588336Y-13708655D01*
X13607384Y-13718179D01*
X13616907Y-13727703D01*
X13626431Y-13746751D01*
X13626431Y-13803893D01*
X13616907Y-13822941D01*
X13607384Y-13832465D01*
X13588336Y-13841989D01*
X13559765Y-13841989D01*
X13683574Y-13708655D02*
X13759765Y-13708655D01*
X13712145Y-13641989D02*
X13712145Y-13813417D01*
X13721669Y-13832465D01*
X13740717Y-13841989D01*
X13759765Y-13841989D01*
X13978812Y-13708655D02*
X13978812Y-13908655D01*
X13978812Y-13718179D02*
X13997860Y-13708655D01*
X14035955Y-13708655D01*
X14055003Y-13718179D01*
X14064526Y-13727703D01*
X14074050Y-13746751D01*
X14074050Y-13803893D01*
X14064526Y-13822941D01*
X14055003Y-13832465D01*
X14035955Y-13841989D01*
X13997860Y-13841989D01*
X13978812Y-13832465D01*
X14188336Y-13841989D02*
X14169288Y-13832465D01*
X14159765Y-13813417D01*
X14159765Y-13641989D01*
X14350241Y-13841989D02*
X14350241Y-13737227D01*
X14340717Y-13718179D01*
X14321669Y-13708655D01*
X14283574Y-13708655D01*
X14264526Y-13718179D01*
X14350241Y-13832465D02*
X14331193Y-13841989D01*
X14283574Y-13841989D01*
X14264526Y-13832465D01*
X14255003Y-13813417D01*
X14255003Y-13794370D01*
X14264526Y-13775322D01*
X14283574Y-13765798D01*
X14331193Y-13765798D01*
X14350241Y-13756274D01*
X14416907Y-13708655D02*
X14493098Y-13708655D01*
X14445479Y-13641989D02*
X14445479Y-13813417D01*
X14455003Y-13832465D01*
X14474050Y-13841989D01*
X14493098Y-13841989D01*
X14635955Y-13832465D02*
X14616907Y-13841989D01*
X14578812Y-13841989D01*
X14559765Y-13832465D01*
X14550241Y-13813417D01*
X14550241Y-13737227D01*
X14559765Y-13718179D01*
X14578812Y-13708655D01*
X14616907Y-13708655D01*
X14635955Y-13718179D01*
X14645479Y-13737227D01*
X14645479Y-13756274D01*
X14550241Y-13775322D01*
X14816907Y-13841989D02*
X14816907Y-13641989D01*
X14816907Y-13832465D02*
X14797860Y-13841989D01*
X14759765Y-13841989D01*
X14740717Y-13832465D01*
X14731193Y-13822941D01*
X14721669Y-13803893D01*
X14721669Y-13746751D01*
X14731193Y-13727703D01*
X14740717Y-13718179D01*
X14759765Y-13708655D01*
X14797860Y-13708655D01*
X14816907Y-13718179D01*
X14893098Y-13918179D02*
X14902622Y-13908655D01*
X14921669Y-13880084D01*
X14931193Y-13861036D01*
X14940717Y-13832465D01*
X14950241Y-13784846D01*
X14950241Y-13746751D01*
X14940717Y-13699132D01*
X14931193Y-13670560D01*
X14921669Y-13651513D01*
X14902622Y-13622941D01*
X14893098Y-13613417D01*
M02*
