G04 #@! TF.GenerationSoftware,KiCad,Pcbnew,(6.0.1-0)*
G04 #@! TF.CreationDate,2023-01-28T13:25:50+00:00*
G04 #@! TF.ProjectId,Snowduino Null,536e6f77-6475-4696-9e6f-204e756c6c2e,rev?*
G04 #@! TF.SameCoordinates,Original*
G04 #@! TF.FileFunction,Profile,NP*
%FSLAX46Y46*%
G04 Gerber Fmt 4.6, Leading zero omitted, Abs format (unit mm)*
G04 Created by KiCad (PCBNEW (6.0.1-0)) date 2023-01-28 13:25:50*
%MOMM*%
%LPD*%
G01*
G04 APERTURE LIST*
G04 #@! TA.AperFunction,Profile*
%ADD10C,0.200000*%
G04 #@! TD*
G04 APERTURE END LIST*
D10*
X81629363Y-72882947D02*
X81798636Y-72671355D01*
X150037024Y-87863653D02*
X150037024Y-120596921D01*
X81502408Y-124680644D02*
X81502408Y-73390767D01*
X82242979Y-72417445D02*
X82496889Y-72375126D01*
X147497922Y-123136023D02*
X147497922Y-124680644D01*
X146757350Y-125632808D02*
X146503440Y-125675126D01*
X147497922Y-124680644D02*
X147455603Y-124934555D01*
X82010228Y-125548171D02*
X81798636Y-125378898D01*
X82010228Y-72523241D02*
X82242979Y-72417445D01*
X82496889Y-125675126D02*
X82242979Y-125632808D01*
X81544726Y-73115698D02*
X81629363Y-72882947D01*
X150037024Y-120596921D02*
X147497922Y-123136023D01*
X82242979Y-125632808D02*
X82010228Y-125548171D01*
X146990101Y-125548171D02*
X146757350Y-125632808D01*
X147201693Y-125378898D02*
X146990101Y-125548171D01*
X81544726Y-124934555D02*
X81502408Y-124680644D01*
X81798636Y-72671355D02*
X82010228Y-72523241D01*
X82496889Y-72375126D02*
X145974460Y-72375126D01*
X81629363Y-125167306D02*
X81544726Y-124934555D01*
X146503440Y-125675126D02*
X82496889Y-125675126D01*
X147497922Y-73898588D02*
X147497922Y-85324551D01*
X81798636Y-125378898D02*
X81629363Y-125167306D01*
X147370966Y-125167306D02*
X147201693Y-125378898D01*
X145974460Y-72375126D02*
X147497922Y-73898588D01*
X147497922Y-85324551D02*
X150037024Y-87863653D01*
X147455603Y-124934555D02*
X147370966Y-125167306D01*
X81502408Y-73390767D02*
X81544726Y-73115698D01*
M02*
