G04 #@! TF.GenerationSoftware,KiCad,Pcbnew,(6.0.1-0)*
G04 #@! TF.CreationDate,2023-02-03T14:32:27+00:00*
G04 #@! TF.ProjectId,Snowduino Null,536e6f77-6475-4696-9e6f-204e756c6c2e,rev?*
G04 #@! TF.SameCoordinates,Original*
G04 #@! TF.FileFunction,Soldermask,Bot*
G04 #@! TF.FilePolarity,Negative*
%FSLAX46Y46*%
G04 Gerber Fmt 4.6, Leading zero omitted, Abs format (unit mm)*
G04 Created by KiCad (PCBNEW (6.0.1-0)) date 2023-02-03 14:32:27*
%MOMM*%
%LPD*%
G01*
G04 APERTURE LIST*
%ADD10C,4.650000*%
%ADD11C,1.500000*%
%ADD12C,3.200000*%
%ADD13R,1.700000X1.700000*%
%ADD14O,1.700000X1.700000*%
%ADD15R,1.000000X1.000000*%
%ADD16O,1.000000X1.000000*%
%ADD17C,0.650000*%
%ADD18O,2.100000X1.000000*%
%ADD19O,1.600000X1.000000*%
G04 APERTURE END LIST*
D10*
X91691000Y-116863000D03*
X88791000Y-121463000D03*
X85491000Y-116863000D03*
D11*
X84491000Y-113363000D03*
X84491000Y-120363000D03*
D12*
X147556000Y-90103000D03*
X147556000Y-118043000D03*
D13*
X109456000Y-123123000D03*
D14*
X111996000Y-123123000D03*
X114536000Y-123123000D03*
X117076000Y-123123000D03*
X119616000Y-123123000D03*
X122156000Y-123123000D03*
X124696000Y-123123000D03*
X127236000Y-123123000D03*
D13*
X123426000Y-74863000D03*
D14*
X120886000Y-74863000D03*
X118346000Y-74863000D03*
X115806000Y-74863000D03*
X113266000Y-74863000D03*
X110726000Y-74863000D03*
X108186000Y-74863000D03*
X105646000Y-74863000D03*
X103106000Y-74863000D03*
X100566000Y-74863000D03*
D13*
X145016000Y-74863000D03*
D14*
X142476000Y-74863000D03*
X139936000Y-74863000D03*
X137396000Y-74863000D03*
X134856000Y-74863000D03*
X132316000Y-74863000D03*
X129776000Y-74863000D03*
X127236000Y-74863000D03*
D12*
X96756000Y-74863000D03*
X95486000Y-123123000D03*
D13*
X145143000Y-95183000D03*
D14*
X147683000Y-95183000D03*
X145143000Y-97723000D03*
X147683000Y-97723000D03*
X145143000Y-100263000D03*
X147683000Y-100263000D03*
D13*
X132316000Y-123123000D03*
D14*
X134856000Y-123123000D03*
X137396000Y-123123000D03*
X139936000Y-123123000D03*
X142476000Y-123123000D03*
X145016000Y-123123000D03*
D13*
X147641000Y-112138000D03*
D14*
X147641000Y-109598000D03*
X147641000Y-107058000D03*
X147641000Y-104518000D03*
D15*
X100391000Y-83138000D03*
D16*
X100391000Y-81868000D03*
X101661000Y-83138000D03*
X101661000Y-81868000D03*
X102931000Y-83138000D03*
X102931000Y-81868000D03*
X104201000Y-83138000D03*
X104201000Y-81868000D03*
X105471000Y-83138000D03*
X105471000Y-81868000D03*
D15*
X143211000Y-87708000D03*
D16*
X143211000Y-88978000D03*
D17*
X87731000Y-92753000D03*
X87731000Y-86973000D03*
D18*
X88261000Y-85543000D03*
X88261000Y-94183000D03*
D19*
X84081000Y-94183000D03*
X84081000Y-85543000D03*
M02*
