G04 #@! TF.GenerationSoftware,KiCad,Pcbnew,(6.0.1-0)*
G04 #@! TF.CreationDate,2023-01-28T13:25:50+00:00*
G04 #@! TF.ProjectId,Snowduino Null,536e6f77-6475-4696-9e6f-204e756c6c2e,rev?*
G04 #@! TF.SameCoordinates,Original*
G04 #@! TF.FileFunction,Soldermask,Bot*
G04 #@! TF.FilePolarity,Negative*
%FSLAX46Y46*%
G04 Gerber Fmt 4.6, Leading zero omitted, Abs format (unit mm)*
G04 Created by KiCad (PCBNEW (6.0.1-0)) date 2023-01-28 13:25:50*
%MOMM*%
%LPD*%
G01*
G04 APERTURE LIST*
G04 Aperture macros list*
%AMRoundRect*
0 Rectangle with rounded corners*
0 $1 Rounding radius*
0 $2 $3 $4 $5 $6 $7 $8 $9 X,Y pos of 4 corners*
0 Add a 4 corners polygon primitive as box body*
4,1,4,$2,$3,$4,$5,$6,$7,$8,$9,$2,$3,0*
0 Add four circle primitives for the rounded corners*
1,1,$1+$1,$2,$3*
1,1,$1+$1,$4,$5*
1,1,$1+$1,$6,$7*
1,1,$1+$1,$8,$9*
0 Add four rect primitives between the rounded corners*
20,1,$1+$1,$2,$3,$4,$5,0*
20,1,$1+$1,$4,$5,$6,$7,0*
20,1,$1+$1,$6,$7,$8,$9,0*
20,1,$1+$1,$8,$9,$2,$3,0*%
G04 Aperture macros list end*
%ADD10C,3.300000*%
%ADD11RoundRect,0.050000X0.850000X-0.850000X0.850000X0.850000X-0.850000X0.850000X-0.850000X-0.850000X0*%
%ADD12O,1.800000X1.800000*%
%ADD13RoundRect,0.050000X-0.850000X0.850000X-0.850000X-0.850000X0.850000X-0.850000X0.850000X0.850000X0*%
%ADD14RoundRect,0.050000X-0.850000X-0.850000X0.850000X-0.850000X0.850000X0.850000X-0.850000X0.850000X0*%
%ADD15RoundRect,0.050000X0.850000X0.850000X-0.850000X0.850000X-0.850000X-0.850000X0.850000X-0.850000X0*%
%ADD16RoundRect,0.050000X0.500000X-0.500000X0.500000X0.500000X-0.500000X0.500000X-0.500000X-0.500000X0*%
%ADD17O,1.100000X1.100000*%
%ADD18C,0.750000*%
%ADD19O,2.200000X1.100000*%
%ADD20O,1.700000X1.100000*%
%ADD21C,1.600000*%
%ADD22C,4.750000*%
G04 APERTURE END LIST*
D10*
X147556000Y-90103000D03*
X147556000Y-118043000D03*
D11*
X109456000Y-123123000D03*
D12*
X111996000Y-123123000D03*
X114536000Y-123123000D03*
X117076000Y-123123000D03*
X119616000Y-123123000D03*
X122156000Y-123123000D03*
X124696000Y-123123000D03*
X127236000Y-123123000D03*
D13*
X123426000Y-74863000D03*
D12*
X120886000Y-74863000D03*
X118346000Y-74863000D03*
X115806000Y-74863000D03*
X113266000Y-74863000D03*
X110726000Y-74863000D03*
X108186000Y-74863000D03*
X105646000Y-74863000D03*
X103106000Y-74863000D03*
X100566000Y-74863000D03*
D13*
X145016000Y-74863000D03*
D12*
X142476000Y-74863000D03*
X139936000Y-74863000D03*
X137396000Y-74863000D03*
X134856000Y-74863000D03*
X132316000Y-74863000D03*
X129776000Y-74863000D03*
X127236000Y-74863000D03*
D10*
X96756000Y-74863000D03*
X95486000Y-123123000D03*
D14*
X145143000Y-95183000D03*
D12*
X147683000Y-95183000D03*
X145143000Y-97723000D03*
X147683000Y-97723000D03*
X145143000Y-100263000D03*
X147683000Y-100263000D03*
D11*
X132316000Y-123123000D03*
D12*
X134856000Y-123123000D03*
X137396000Y-123123000D03*
X139936000Y-123123000D03*
X142476000Y-123123000D03*
X145016000Y-123123000D03*
D15*
X147641000Y-112138000D03*
D12*
X147641000Y-109598000D03*
X147641000Y-107058000D03*
X147641000Y-104518000D03*
D16*
X100391000Y-83138000D03*
D17*
X100391000Y-81868000D03*
X101661000Y-83138000D03*
X101661000Y-81868000D03*
X102931000Y-83138000D03*
X102931000Y-81868000D03*
X104201000Y-83138000D03*
X104201000Y-81868000D03*
X105471000Y-83138000D03*
X105471000Y-81868000D03*
D18*
X87731000Y-92753000D03*
X87731000Y-86973000D03*
D19*
X88261000Y-85543000D03*
X88261000Y-94183000D03*
D20*
X84081000Y-94183000D03*
X84081000Y-85543000D03*
D21*
X84491000Y-120363000D03*
X84491000Y-113363000D03*
D22*
X85491000Y-116863000D03*
X88791000Y-121463000D03*
X91691000Y-116863000D03*
G36*
X100942932Y-82739955D02*
G01*
X100962889Y-82814435D01*
X101017033Y-82868578D01*
X101090998Y-82888397D01*
X101165008Y-82868566D01*
X101208362Y-82828909D01*
X101210315Y-82828478D01*
X101211665Y-82829954D01*
X101211299Y-82831603D01*
X101186432Y-82864010D01*
X101131690Y-82996172D01*
X101113017Y-83138000D01*
X101131690Y-83279828D01*
X101186432Y-83411990D01*
X101214516Y-83448589D01*
X101214777Y-83450572D01*
X101213190Y-83451790D01*
X101211614Y-83451314D01*
X101156080Y-83402868D01*
X101080937Y-83388125D01*
X101008493Y-83412928D01*
X100958131Y-83470659D01*
X100942948Y-83536163D01*
X100941583Y-83537624D01*
X100939635Y-83537173D01*
X100939000Y-83535711D01*
X100939000Y-82740473D01*
X100940000Y-82738741D01*
X100942000Y-82738741D01*
X100942932Y-82739955D01*
G37*
G36*
X104991427Y-82874406D02*
G01*
X104991461Y-82876013D01*
X104941690Y-82996172D01*
X104923017Y-83138000D01*
X104941690Y-83279828D01*
X104989186Y-83394494D01*
X104988925Y-83396477D01*
X104987077Y-83397242D01*
X104985678Y-83396375D01*
X104980262Y-83388316D01*
X104980044Y-83387887D01*
X104974427Y-83372536D01*
X104930240Y-83309663D01*
X104860785Y-83277423D01*
X104784514Y-83284228D01*
X104721775Y-83328322D01*
X104698247Y-83367633D01*
X104696500Y-83368606D01*
X104694783Y-83367579D01*
X104694683Y-83365841D01*
X104730310Y-83279828D01*
X104748983Y-83138000D01*
X104730310Y-82996172D01*
X104681676Y-82878757D01*
X104681937Y-82876774D01*
X104683785Y-82876009D01*
X104685172Y-82876859D01*
X104689092Y-82882563D01*
X104689315Y-82882989D01*
X104697679Y-82905125D01*
X104742521Y-82967528D01*
X104812312Y-82999040D01*
X104888506Y-82991433D01*
X104950779Y-82946686D01*
X104974165Y-82906665D01*
X104985384Y-82877888D01*
X104985611Y-82877464D01*
X104987977Y-82874098D01*
X104989791Y-82873256D01*
X104991427Y-82874406D01*
G37*
G36*
X102451427Y-82874406D02*
G01*
X102451461Y-82876013D01*
X102401690Y-82996172D01*
X102383017Y-83138000D01*
X102401690Y-83279828D01*
X102449186Y-83394494D01*
X102448925Y-83396477D01*
X102447077Y-83397242D01*
X102445678Y-83396375D01*
X102440262Y-83388316D01*
X102440044Y-83387887D01*
X102434427Y-83372536D01*
X102390240Y-83309663D01*
X102320785Y-83277423D01*
X102244514Y-83284228D01*
X102181775Y-83328322D01*
X102158247Y-83367633D01*
X102156500Y-83368606D01*
X102154783Y-83367579D01*
X102154683Y-83365841D01*
X102190310Y-83279828D01*
X102208983Y-83138000D01*
X102190310Y-82996172D01*
X102141676Y-82878757D01*
X102141937Y-82876774D01*
X102143785Y-82876009D01*
X102145172Y-82876859D01*
X102149092Y-82882563D01*
X102149315Y-82882989D01*
X102157679Y-82905125D01*
X102202521Y-82967528D01*
X102272312Y-82999040D01*
X102348506Y-82991433D01*
X102410779Y-82946686D01*
X102434165Y-82906665D01*
X102445384Y-82877888D01*
X102445611Y-82877464D01*
X102447977Y-82874098D01*
X102449791Y-82873256D01*
X102451427Y-82874406D01*
G37*
G36*
X103721427Y-82874406D02*
G01*
X103721461Y-82876013D01*
X103671690Y-82996172D01*
X103653017Y-83138000D01*
X103671690Y-83279828D01*
X103719186Y-83394494D01*
X103718925Y-83396477D01*
X103717077Y-83397242D01*
X103715678Y-83396375D01*
X103710262Y-83388316D01*
X103710044Y-83387887D01*
X103704427Y-83372536D01*
X103660240Y-83309663D01*
X103590785Y-83277423D01*
X103514514Y-83284228D01*
X103451775Y-83328322D01*
X103428247Y-83367633D01*
X103426500Y-83368606D01*
X103424783Y-83367579D01*
X103424683Y-83365841D01*
X103460310Y-83279828D01*
X103478983Y-83138000D01*
X103460310Y-82996172D01*
X103411676Y-82878757D01*
X103411937Y-82876774D01*
X103413785Y-82876009D01*
X103415172Y-82876859D01*
X103419092Y-82882563D01*
X103419315Y-82882989D01*
X103427679Y-82905125D01*
X103472521Y-82967528D01*
X103542312Y-82999040D01*
X103618506Y-82991433D01*
X103680779Y-82946686D01*
X103704165Y-82906665D01*
X103715384Y-82877888D01*
X103715611Y-82877464D01*
X103717977Y-82874098D01*
X103719791Y-82873256D01*
X103721427Y-82874406D01*
G37*
G36*
X105329172Y-82397310D02*
G01*
X105471000Y-82415983D01*
X105612828Y-82397310D01*
X105692785Y-82364191D01*
X105694768Y-82364452D01*
X105695533Y-82366300D01*
X105694449Y-82367826D01*
X105689695Y-82370217D01*
X105632322Y-82421335D01*
X105608278Y-82494037D01*
X105623806Y-82569019D01*
X105674892Y-82626357D01*
X105686749Y-82633369D01*
X105700794Y-82640806D01*
X105701857Y-82642501D01*
X105700921Y-82644268D01*
X105699093Y-82644422D01*
X105612828Y-82608690D01*
X105471000Y-82590017D01*
X105329172Y-82608690D01*
X105246000Y-82643141D01*
X105244017Y-82642880D01*
X105243252Y-82641032D01*
X105244318Y-82639516D01*
X105252750Y-82635163D01*
X105309589Y-82583444D01*
X105332869Y-82510496D01*
X105316557Y-82435679D01*
X105264866Y-82378871D01*
X105255686Y-82373442D01*
X105238189Y-82363942D01*
X105237144Y-82362236D01*
X105238098Y-82360479D01*
X105239908Y-82360336D01*
X105329172Y-82397310D01*
G37*
G36*
X104059172Y-82397310D02*
G01*
X104201000Y-82415983D01*
X104342828Y-82397310D01*
X104422785Y-82364191D01*
X104424768Y-82364452D01*
X104425533Y-82366300D01*
X104424449Y-82367826D01*
X104419695Y-82370217D01*
X104362322Y-82421335D01*
X104338278Y-82494037D01*
X104353806Y-82569019D01*
X104404892Y-82626357D01*
X104416749Y-82633369D01*
X104430794Y-82640806D01*
X104431857Y-82642501D01*
X104430921Y-82644268D01*
X104429093Y-82644422D01*
X104342828Y-82608690D01*
X104201000Y-82590017D01*
X104059172Y-82608690D01*
X103976000Y-82643141D01*
X103974017Y-82642880D01*
X103973252Y-82641032D01*
X103974318Y-82639516D01*
X103982750Y-82635163D01*
X104039589Y-82583444D01*
X104062869Y-82510496D01*
X104046557Y-82435679D01*
X103994866Y-82378871D01*
X103985686Y-82373442D01*
X103968189Y-82363942D01*
X103967144Y-82362236D01*
X103968098Y-82360479D01*
X103969908Y-82360336D01*
X104059172Y-82397310D01*
G37*
G36*
X102789172Y-82397310D02*
G01*
X102931000Y-82415983D01*
X103072828Y-82397310D01*
X103152785Y-82364191D01*
X103154768Y-82364452D01*
X103155533Y-82366300D01*
X103154449Y-82367826D01*
X103149695Y-82370217D01*
X103092322Y-82421335D01*
X103068278Y-82494037D01*
X103083806Y-82569019D01*
X103134892Y-82626357D01*
X103146749Y-82633369D01*
X103160794Y-82640806D01*
X103161857Y-82642501D01*
X103160921Y-82644268D01*
X103159093Y-82644422D01*
X103072828Y-82608690D01*
X102931000Y-82590017D01*
X102789172Y-82608690D01*
X102706000Y-82643141D01*
X102704017Y-82642880D01*
X102703252Y-82641032D01*
X102704318Y-82639516D01*
X102712750Y-82635163D01*
X102769589Y-82583444D01*
X102792869Y-82510496D01*
X102776557Y-82435679D01*
X102724866Y-82378871D01*
X102715686Y-82373442D01*
X102698189Y-82363942D01*
X102697144Y-82362236D01*
X102698098Y-82360479D01*
X102699908Y-82360336D01*
X102789172Y-82397310D01*
G37*
G36*
X101519172Y-82397310D02*
G01*
X101661000Y-82415983D01*
X101802828Y-82397310D01*
X101882785Y-82364191D01*
X101884768Y-82364452D01*
X101885533Y-82366300D01*
X101884449Y-82367826D01*
X101879695Y-82370217D01*
X101822322Y-82421335D01*
X101798278Y-82494037D01*
X101813806Y-82569019D01*
X101864892Y-82626357D01*
X101876749Y-82633369D01*
X101890794Y-82640806D01*
X101891857Y-82642501D01*
X101890921Y-82644268D01*
X101889093Y-82644422D01*
X101802828Y-82608690D01*
X101661000Y-82590017D01*
X101519172Y-82608690D01*
X101436000Y-82643141D01*
X101434017Y-82642880D01*
X101433252Y-82641032D01*
X101434318Y-82639516D01*
X101442750Y-82635163D01*
X101499589Y-82583444D01*
X101522869Y-82510496D01*
X101506557Y-82435679D01*
X101454866Y-82378871D01*
X101445686Y-82373442D01*
X101428189Y-82363942D01*
X101427144Y-82362236D01*
X101428098Y-82360479D01*
X101429908Y-82360336D01*
X101519172Y-82397310D01*
G37*
G36*
X100045590Y-82287765D02*
G01*
X100117010Y-82342568D01*
X100249172Y-82397310D01*
X100391000Y-82415983D01*
X100532828Y-82397310D01*
X100664990Y-82342568D01*
X100727542Y-82294569D01*
X100729525Y-82294308D01*
X100730743Y-82295895D01*
X100730059Y-82297677D01*
X100697727Y-82325292D01*
X100654202Y-82388621D01*
X100648194Y-82464959D01*
X100681159Y-82534072D01*
X100744345Y-82577499D01*
X100793984Y-82586029D01*
X100795521Y-82587308D01*
X100795183Y-82589279D01*
X100793645Y-82590000D01*
X99984863Y-82590000D01*
X99983131Y-82589000D01*
X99983131Y-82587000D01*
X99984345Y-82586068D01*
X100058825Y-82566111D01*
X100112968Y-82511968D01*
X100132787Y-82438002D01*
X100112939Y-82363930D01*
X100084346Y-82328429D01*
X100043026Y-82290831D01*
X100042418Y-82288926D01*
X100043764Y-82287447D01*
X100045590Y-82287765D01*
G37*
G36*
X104991427Y-81604406D02*
G01*
X104991461Y-81606013D01*
X104941690Y-81726172D01*
X104923017Y-81868000D01*
X104941690Y-82009828D01*
X104989186Y-82124494D01*
X104988925Y-82126477D01*
X104987077Y-82127242D01*
X104985678Y-82126375D01*
X104980262Y-82118316D01*
X104980044Y-82117887D01*
X104974427Y-82102536D01*
X104930240Y-82039663D01*
X104860785Y-82007423D01*
X104784514Y-82014228D01*
X104721775Y-82058322D01*
X104698247Y-82097633D01*
X104696500Y-82098606D01*
X104694783Y-82097579D01*
X104694683Y-82095841D01*
X104730310Y-82009828D01*
X104748983Y-81868000D01*
X104730310Y-81726172D01*
X104681676Y-81608757D01*
X104681937Y-81606774D01*
X104683785Y-81606009D01*
X104685172Y-81606859D01*
X104689092Y-81612563D01*
X104689315Y-81612989D01*
X104697679Y-81635125D01*
X104742521Y-81697528D01*
X104812312Y-81729040D01*
X104888506Y-81721433D01*
X104950779Y-81676686D01*
X104974165Y-81636665D01*
X104985384Y-81607888D01*
X104985611Y-81607464D01*
X104987977Y-81604098D01*
X104989791Y-81603256D01*
X104991427Y-81604406D01*
G37*
G36*
X103721427Y-81604406D02*
G01*
X103721461Y-81606013D01*
X103671690Y-81726172D01*
X103653017Y-81868000D01*
X103671690Y-82009828D01*
X103719186Y-82124494D01*
X103718925Y-82126477D01*
X103717077Y-82127242D01*
X103715678Y-82126375D01*
X103710262Y-82118316D01*
X103710044Y-82117887D01*
X103704427Y-82102536D01*
X103660240Y-82039663D01*
X103590785Y-82007423D01*
X103514514Y-82014228D01*
X103451775Y-82058322D01*
X103428247Y-82097633D01*
X103426500Y-82098606D01*
X103424783Y-82097579D01*
X103424683Y-82095841D01*
X103460310Y-82009828D01*
X103478983Y-81868000D01*
X103460310Y-81726172D01*
X103411676Y-81608757D01*
X103411937Y-81606774D01*
X103413785Y-81606009D01*
X103415172Y-81606859D01*
X103419092Y-81612563D01*
X103419315Y-81612989D01*
X103427679Y-81635125D01*
X103472521Y-81697528D01*
X103542312Y-81729040D01*
X103618506Y-81721433D01*
X103680779Y-81676686D01*
X103704165Y-81636665D01*
X103715384Y-81607888D01*
X103715611Y-81607464D01*
X103717977Y-81604098D01*
X103719791Y-81603256D01*
X103721427Y-81604406D01*
G37*
G36*
X101181427Y-81604406D02*
G01*
X101181461Y-81606013D01*
X101131690Y-81726172D01*
X101113017Y-81868000D01*
X101131690Y-82009828D01*
X101179186Y-82124494D01*
X101178925Y-82126477D01*
X101177077Y-82127242D01*
X101175678Y-82126375D01*
X101170262Y-82118316D01*
X101170044Y-82117887D01*
X101164427Y-82102536D01*
X101120240Y-82039663D01*
X101050785Y-82007423D01*
X100974514Y-82014228D01*
X100911775Y-82058322D01*
X100888247Y-82097633D01*
X100886500Y-82098606D01*
X100884783Y-82097579D01*
X100884683Y-82095841D01*
X100920310Y-82009828D01*
X100938983Y-81868000D01*
X100920310Y-81726172D01*
X100871676Y-81608757D01*
X100871937Y-81606774D01*
X100873785Y-81606009D01*
X100875172Y-81606859D01*
X100879092Y-81612563D01*
X100879315Y-81612989D01*
X100887679Y-81635125D01*
X100932521Y-81697528D01*
X101002312Y-81729040D01*
X101078506Y-81721433D01*
X101140779Y-81676686D01*
X101164165Y-81636665D01*
X101175384Y-81607888D01*
X101175611Y-81607464D01*
X101177977Y-81604098D01*
X101179791Y-81603256D01*
X101181427Y-81604406D01*
G37*
G36*
X102451427Y-81604406D02*
G01*
X102451461Y-81606013D01*
X102401690Y-81726172D01*
X102383017Y-81868000D01*
X102401690Y-82009828D01*
X102449186Y-82124494D01*
X102448925Y-82126477D01*
X102447077Y-82127242D01*
X102445678Y-82126375D01*
X102440262Y-82118316D01*
X102440044Y-82117887D01*
X102434427Y-82102536D01*
X102390240Y-82039663D01*
X102320785Y-82007423D01*
X102244514Y-82014228D01*
X102181775Y-82058322D01*
X102158247Y-82097633D01*
X102156500Y-82098606D01*
X102154783Y-82097579D01*
X102154683Y-82095841D01*
X102190310Y-82009828D01*
X102208983Y-81868000D01*
X102190310Y-81726172D01*
X102141676Y-81608757D01*
X102141937Y-81606774D01*
X102143785Y-81606009D01*
X102145172Y-81606859D01*
X102149092Y-81612563D01*
X102149315Y-81612989D01*
X102157679Y-81635125D01*
X102202521Y-81697528D01*
X102272312Y-81729040D01*
X102348506Y-81721433D01*
X102410779Y-81676686D01*
X102434165Y-81636665D01*
X102445384Y-81607888D01*
X102445611Y-81607464D01*
X102447977Y-81604098D01*
X102449791Y-81603256D01*
X102451427Y-81604406D01*
G37*
M02*
