G04 #@! TF.GenerationSoftware,KiCad,Pcbnew,(6.0.1-0)*
G04 #@! TF.CreationDate,2023-01-28T13:25:49+00:00*
G04 #@! TF.ProjectId,Snowduino Null,536e6f77-6475-4696-9e6f-204e756c6c2e,rev?*
G04 #@! TF.SameCoordinates,Original*
G04 #@! TF.FileFunction,Soldermask,Top*
G04 #@! TF.FilePolarity,Negative*
%FSLAX46Y46*%
G04 Gerber Fmt 4.6, Leading zero omitted, Abs format (unit mm)*
G04 Created by KiCad (PCBNEW (6.0.1-0)) date 2023-01-28 13:25:49*
%MOMM*%
%LPD*%
G01*
G04 APERTURE LIST*
G04 Aperture macros list*
%AMRoundRect*
0 Rectangle with rounded corners*
0 $1 Rounding radius*
0 $2 $3 $4 $5 $6 $7 $8 $9 X,Y pos of 4 corners*
0 Add a 4 corners polygon primitive as box body*
4,1,4,$2,$3,$4,$5,$6,$7,$8,$9,$2,$3,0*
0 Add four circle primitives for the rounded corners*
1,1,$1+$1,$2,$3*
1,1,$1+$1,$4,$5*
1,1,$1+$1,$6,$7*
1,1,$1+$1,$8,$9*
0 Add four rect primitives between the rounded corners*
20,1,$1+$1,$2,$3,$4,$5,0*
20,1,$1+$1,$4,$5,$6,$7,0*
20,1,$1+$1,$6,$7,$8,$9,0*
20,1,$1+$1,$8,$9,$2,$3,0*%
%AMFreePoly0*
4,1,37,0.535355,0.785355,0.550000,0.750000,0.550000,-0.750000,0.535355,-0.785355,0.500000,-0.800000,0.000000,-0.800000,-0.012524,-0.794812,-0.080857,-0.793560,-0.094851,-0.791293,-0.230166,-0.749018,-0.242962,-0.742915,-0.360972,-0.664360,-0.371540,-0.654911,-0.462760,-0.546392,-0.470252,-0.534356,-0.527347,-0.404597,-0.531159,-0.390943,-0.548742,-0.256483,-0.547388,-0.256306,-0.550000,-0.250000,
-0.550000,0.250000,-0.549522,0.251153,-0.549368,0.263802,-0.527557,0.403879,-0.523412,0.417435,-0.463164,0.545760,-0.455381,0.557609,-0.361537,0.663867,-0.350741,0.673055,-0.230846,0.748703,-0.217905,0.754492,-0.081598,0.793449,-0.067552,0.795373,-0.011991,0.795033,0.000000,0.800000,0.500000,0.800000,0.535355,0.785355,0.535355,0.785355,$1*%
%AMFreePoly1*
4,1,37,0.012350,0.794884,0.074210,0.794507,0.088231,0.792412,0.224052,0.751793,0.236921,0.745846,0.355883,0.668739,0.366566,0.659420,0.459104,0.552023,0.466742,0.540080,0.525419,0.411028,0.529398,0.397421,0.549495,0.257088,0.550000,0.250000,0.550000,-0.250000,0.549996,-0.250610,0.549847,-0.262826,0.549158,-0.270511,0.525638,-0.410312,0.521328,-0.423818,0.459516,-0.551397,
0.451589,-0.563150,0.356454,-0.668254,0.345546,-0.677309,0.224736,-0.751486,0.211726,-0.757116,0.074953,-0.794405,0.060885,-0.796158,0.011462,-0.795252,0.000000,-0.800000,-0.500000,-0.800000,-0.535355,-0.785355,-0.550000,-0.750000,-0.550000,0.750000,-0.535355,0.785355,-0.500000,0.800000,0.000000,0.800000,0.012350,0.794884,0.012350,0.794884,$1*%
G04 Aperture macros list end*
%ADD10C,3.300000*%
%ADD11RoundRect,0.050000X0.850000X-0.850000X0.850000X0.850000X-0.850000X0.850000X-0.850000X-0.850000X0*%
%ADD12O,1.800000X1.800000*%
%ADD13RoundRect,0.050000X-0.850000X0.850000X-0.850000X-0.850000X0.850000X-0.850000X0.850000X0.850000X0*%
%ADD14RoundRect,0.050000X-0.850000X-0.850000X0.850000X-0.850000X0.850000X0.850000X-0.850000X0.850000X0*%
%ADD15RoundRect,0.275000X0.250000X-0.225000X0.250000X0.225000X-0.250000X0.225000X-0.250000X-0.225000X0*%
%ADD16RoundRect,0.268750X-0.218750X-0.256250X0.218750X-0.256250X0.218750X0.256250X-0.218750X0.256250X0*%
%ADD17RoundRect,0.250000X0.200000X0.275000X-0.200000X0.275000X-0.200000X-0.275000X0.200000X-0.275000X0*%
%ADD18RoundRect,0.275000X-0.225000X-0.250000X0.225000X-0.250000X0.225000X0.250000X-0.225000X0.250000X0*%
%ADD19RoundRect,0.050000X0.850000X0.850000X-0.850000X0.850000X-0.850000X-0.850000X0.850000X-0.850000X0*%
%ADD20RoundRect,0.112500X-0.062500X0.350000X-0.062500X-0.350000X0.062500X-0.350000X0.062500X0.350000X0*%
%ADD21RoundRect,0.112500X-0.350000X0.062500X-0.350000X-0.062500X0.350000X-0.062500X0.350000X0.062500X0*%
%ADD22RoundRect,0.050000X-1.250000X1.250000X-1.250000X-1.250000X1.250000X-1.250000X1.250000X1.250000X0*%
%ADD23RoundRect,0.050000X1.200000X-0.750000X1.200000X0.750000X-1.200000X0.750000X-1.200000X-0.750000X0*%
%ADD24RoundRect,0.050000X-0.550000X-0.550000X0.550000X-0.550000X0.550000X0.550000X-0.550000X0.550000X0*%
%ADD25RoundRect,0.300000X0.312500X1.450000X-0.312500X1.450000X-0.312500X-1.450000X0.312500X-1.450000X0*%
%ADD26RoundRect,0.300000X-0.250000X-0.475000X0.250000X-0.475000X0.250000X0.475000X-0.250000X0.475000X0*%
%ADD27RoundRect,0.250000X0.275000X-0.200000X0.275000X0.200000X-0.275000X0.200000X-0.275000X-0.200000X0*%
%ADD28RoundRect,0.300000X0.550000X-1.500000X0.550000X1.500000X-0.550000X1.500000X-0.550000X-1.500000X0*%
%ADD29RoundRect,0.050000X-0.550000X0.550000X-0.550000X-0.550000X0.550000X-0.550000X0.550000X0.550000X0*%
%ADD30RoundRect,0.200000X-0.150000X0.587500X-0.150000X-0.587500X0.150000X-0.587500X0.150000X0.587500X0*%
%ADD31RoundRect,0.200000X0.587500X0.150000X-0.587500X0.150000X-0.587500X-0.150000X0.587500X-0.150000X0*%
%ADD32RoundRect,0.125000X0.075000X-0.662500X0.075000X0.662500X-0.075000X0.662500X-0.075000X-0.662500X0*%
%ADD33RoundRect,0.125000X0.662500X-0.075000X0.662500X0.075000X-0.662500X0.075000X-0.662500X-0.075000X0*%
%ADD34RoundRect,0.275000X-0.250000X0.225000X-0.250000X-0.225000X0.250000X-0.225000X0.250000X0.225000X0*%
%ADD35RoundRect,0.050000X0.500000X-0.500000X0.500000X0.500000X-0.500000X0.500000X-0.500000X-0.500000X0*%
%ADD36O,1.100000X1.100000*%
%ADD37RoundRect,0.200000X0.512500X0.150000X-0.512500X0.150000X-0.512500X-0.150000X0.512500X-0.150000X0*%
%ADD38FreePoly0,0.000000*%
%ADD39FreePoly1,0.000000*%
%ADD40RoundRect,0.050000X-0.500000X-0.900000X0.500000X-0.900000X0.500000X0.900000X-0.500000X0.900000X0*%
%ADD41RoundRect,0.300000X-0.475000X0.250000X-0.475000X-0.250000X0.475000X-0.250000X0.475000X0.250000X0*%
%ADD42RoundRect,0.050000X-0.750000X1.000000X-0.750000X-1.000000X0.750000X-1.000000X0.750000X1.000000X0*%
%ADD43RoundRect,0.050000X-1.900000X1.000000X-1.900000X-1.000000X1.900000X-1.000000X1.900000X1.000000X0*%
%ADD44RoundRect,0.250000X-0.200000X-0.275000X0.200000X-0.275000X0.200000X0.275000X-0.200000X0.275000X0*%
%ADD45RoundRect,0.275000X0.225000X0.250000X-0.225000X0.250000X-0.225000X-0.250000X0.225000X-0.250000X0*%
%ADD46RoundRect,0.300000X0.475000X-0.250000X0.475000X0.250000X-0.475000X0.250000X-0.475000X-0.250000X0*%
%ADD47RoundRect,0.050000X0.650000X-0.500000X0.650000X0.500000X-0.650000X0.500000X-0.650000X-0.500000X0*%
%ADD48C,0.750000*%
%ADD49RoundRect,0.050000X-0.725000X0.300000X-0.725000X-0.300000X0.725000X-0.300000X0.725000X0.300000X0*%
%ADD50RoundRect,0.050000X-0.725000X0.150000X-0.725000X-0.150000X0.725000X-0.150000X0.725000X0.150000X0*%
%ADD51O,2.200000X1.100000*%
%ADD52O,1.700000X1.100000*%
%ADD53RoundRect,0.050000X0.610000X0.325000X-0.610000X0.325000X-0.610000X-0.325000X0.610000X-0.325000X0*%
%ADD54C,1.600000*%
%ADD55C,4.750000*%
%ADD56RoundRect,0.050000X0.550000X-0.550000X0.550000X0.550000X-0.550000X0.550000X-0.550000X-0.550000X0*%
G04 APERTURE END LIST*
D10*
X147556000Y-90103000D03*
X147556000Y-118043000D03*
D11*
X109456000Y-123123000D03*
D12*
X111996000Y-123123000D03*
X114536000Y-123123000D03*
X117076000Y-123123000D03*
X119616000Y-123123000D03*
X122156000Y-123123000D03*
X124696000Y-123123000D03*
X127236000Y-123123000D03*
D13*
X123426000Y-74863000D03*
D12*
X120886000Y-74863000D03*
X118346000Y-74863000D03*
X115806000Y-74863000D03*
X113266000Y-74863000D03*
X110726000Y-74863000D03*
X108186000Y-74863000D03*
X105646000Y-74863000D03*
X103106000Y-74863000D03*
X100566000Y-74863000D03*
D13*
X145016000Y-74863000D03*
D12*
X142476000Y-74863000D03*
X139936000Y-74863000D03*
X137396000Y-74863000D03*
X134856000Y-74863000D03*
X132316000Y-74863000D03*
X129776000Y-74863000D03*
X127236000Y-74863000D03*
D10*
X96756000Y-74863000D03*
X95486000Y-123123000D03*
D14*
X145143000Y-95183000D03*
D12*
X147683000Y-95183000D03*
X145143000Y-97723000D03*
X147683000Y-97723000D03*
X145143000Y-100263000D03*
X147683000Y-100263000D03*
D11*
X132316000Y-123123000D03*
D12*
X134856000Y-123123000D03*
X137396000Y-123123000D03*
X139936000Y-123123000D03*
X142476000Y-123123000D03*
X145016000Y-123123000D03*
D15*
X103241000Y-89888000D03*
X103241000Y-88338000D03*
D16*
X92278500Y-101238000D03*
X93853500Y-101238000D03*
D17*
X97103500Y-102963000D03*
X95453500Y-102963000D03*
D18*
X107866000Y-81013000D03*
X109416000Y-81013000D03*
D19*
X147641000Y-112138000D03*
D12*
X147641000Y-109598000D03*
X147641000Y-107058000D03*
X147641000Y-104518000D03*
D15*
X124861000Y-93273000D03*
X124861000Y-91723000D03*
D17*
X107391000Y-91463000D03*
X105741000Y-91463000D03*
D20*
X113516000Y-90850500D03*
X113016000Y-90850500D03*
X112516000Y-90850500D03*
X112016000Y-90850500D03*
X111516000Y-90850500D03*
D21*
X110578500Y-91788000D03*
X110578500Y-92288000D03*
X110578500Y-92788000D03*
X110578500Y-93288000D03*
X110578500Y-93788000D03*
D20*
X111516000Y-94725500D03*
X112016000Y-94725500D03*
X112516000Y-94725500D03*
X113016000Y-94725500D03*
X113516000Y-94725500D03*
D21*
X114453500Y-93788000D03*
X114453500Y-93288000D03*
X114453500Y-92788000D03*
X114453500Y-92288000D03*
X114453500Y-91788000D03*
D22*
X112516000Y-92788000D03*
D23*
X119216000Y-114788000D03*
X119216000Y-109288000D03*
D24*
X109141000Y-115363000D03*
X111941000Y-115363000D03*
D25*
X96453500Y-83438000D03*
X92178500Y-83438000D03*
D17*
X138046000Y-103593000D03*
X136396000Y-103593000D03*
X110441000Y-108163000D03*
X108791000Y-108163000D03*
D26*
X110516000Y-85738000D03*
X112416000Y-85738000D03*
D18*
X111441000Y-97488000D03*
X112991000Y-97488000D03*
D27*
X91412000Y-88436000D03*
X91412000Y-86786000D03*
D16*
X92278500Y-102963000D03*
X93853500Y-102963000D03*
D28*
X102841000Y-115688000D03*
X102841000Y-110288000D03*
D18*
X110516000Y-88063000D03*
X112066000Y-88063000D03*
D29*
X97291000Y-110338000D03*
X97291000Y-113138000D03*
D30*
X109466000Y-97750500D03*
X107566000Y-97750500D03*
X108516000Y-99625500D03*
D31*
X101053500Y-100403000D03*
X101053500Y-98503000D03*
X99178500Y-99453000D03*
D32*
X128891000Y-97000500D03*
X129391000Y-97000500D03*
X129891000Y-97000500D03*
X130391000Y-97000500D03*
X130891000Y-97000500D03*
X131391000Y-97000500D03*
X131891000Y-97000500D03*
X132391000Y-97000500D03*
X132891000Y-97000500D03*
X133391000Y-97000500D03*
X133891000Y-97000500D03*
X134391000Y-97000500D03*
D33*
X135803500Y-95588000D03*
X135803500Y-95088000D03*
X135803500Y-94588000D03*
X135803500Y-94088000D03*
X135803500Y-93588000D03*
X135803500Y-93088000D03*
X135803500Y-92588000D03*
X135803500Y-92088000D03*
X135803500Y-91588000D03*
X135803500Y-91088000D03*
X135803500Y-90588000D03*
X135803500Y-90088000D03*
D32*
X134391000Y-88675500D03*
X133891000Y-88675500D03*
X133391000Y-88675500D03*
X132891000Y-88675500D03*
X132391000Y-88675500D03*
X131891000Y-88675500D03*
X131391000Y-88675500D03*
X130891000Y-88675500D03*
X130391000Y-88675500D03*
X129891000Y-88675500D03*
X129391000Y-88675500D03*
X128891000Y-88675500D03*
D33*
X127478500Y-90088000D03*
X127478500Y-90588000D03*
X127478500Y-91088000D03*
X127478500Y-91588000D03*
X127478500Y-92088000D03*
X127478500Y-92588000D03*
X127478500Y-93088000D03*
X127478500Y-93588000D03*
X127478500Y-94088000D03*
X127478500Y-94588000D03*
X127478500Y-95088000D03*
X127478500Y-95588000D03*
D28*
X136266000Y-114238000D03*
X136266000Y-108838000D03*
D17*
X105206000Y-96593000D03*
X103556000Y-96593000D03*
D34*
X114091000Y-115013000D03*
X114091000Y-116563000D03*
D35*
X100391000Y-83138000D03*
D36*
X100391000Y-81868000D03*
X101661000Y-83138000D03*
X101661000Y-81868000D03*
X102931000Y-83138000D03*
X102931000Y-81868000D03*
X104201000Y-83138000D03*
X104201000Y-81868000D03*
X105471000Y-83138000D03*
X105471000Y-81868000D03*
D37*
X111628500Y-113013000D03*
X111628500Y-112063000D03*
X111628500Y-111113000D03*
X109353500Y-111113000D03*
X109353500Y-112063000D03*
X109353500Y-113013000D03*
D28*
X119266000Y-105963000D03*
X119266000Y-100563000D03*
D38*
X111466000Y-102463000D03*
D39*
X112766000Y-102463000D03*
D40*
X127876000Y-100493000D03*
X130376000Y-100493000D03*
D16*
X92253500Y-97788000D03*
X93828500Y-97788000D03*
D41*
X122716000Y-94833000D03*
X122716000Y-96733000D03*
D42*
X129316000Y-108288000D03*
D43*
X127016000Y-114588000D03*
D42*
X127016000Y-108288000D03*
X124716000Y-108288000D03*
D44*
X107666000Y-101663000D03*
X109316000Y-101663000D03*
D18*
X126366000Y-103638000D03*
X127916000Y-103638000D03*
D17*
X129861000Y-84348000D03*
X128211000Y-84348000D03*
D44*
X124786000Y-84348000D03*
X126436000Y-84348000D03*
D27*
X91416000Y-93113000D03*
X91416000Y-91463000D03*
D15*
X138641000Y-94213000D03*
X138641000Y-92663000D03*
D45*
X131756000Y-103653000D03*
X130206000Y-103653000D03*
D26*
X136496000Y-101793000D03*
X138396000Y-101793000D03*
D17*
X97103500Y-96063000D03*
X95453500Y-96063000D03*
D46*
X122711000Y-93248000D03*
X122711000Y-91348000D03*
D44*
X103531000Y-94793000D03*
X105181000Y-94793000D03*
D45*
X126386000Y-86373000D03*
X124836000Y-86373000D03*
D18*
X107866000Y-82738000D03*
X109416000Y-82738000D03*
X82356000Y-83723000D03*
X83906000Y-83723000D03*
X128261000Y-86323000D03*
X129811000Y-86323000D03*
D47*
X83491000Y-74788000D03*
X91891000Y-74788000D03*
X83491000Y-79288000D03*
X91891000Y-79288000D03*
D17*
X107391000Y-89813000D03*
X105741000Y-89813000D03*
X129861000Y-82523000D03*
X128211000Y-82523000D03*
D37*
X98716000Y-90888000D03*
X98716000Y-89938000D03*
X98716000Y-88988000D03*
X96441000Y-88988000D03*
X96441000Y-89938000D03*
X96441000Y-90888000D03*
D34*
X124866000Y-94808000D03*
X124866000Y-96358000D03*
D48*
X87731000Y-92753000D03*
X87731000Y-86973000D03*
D49*
X89176000Y-86613000D03*
X89176000Y-87413000D03*
D50*
X89176000Y-88613000D03*
X89176000Y-89613000D03*
X89176000Y-90113000D03*
X89176000Y-91113000D03*
D49*
X89176000Y-92313000D03*
X89176000Y-93113000D03*
X89176000Y-93113000D03*
X89176000Y-92313000D03*
D50*
X89176000Y-91613000D03*
X89176000Y-90613000D03*
X89176000Y-89113000D03*
X89176000Y-88113000D03*
D49*
X89176000Y-87413000D03*
X89176000Y-86613000D03*
D51*
X88261000Y-85543000D03*
X88261000Y-94183000D03*
D52*
X84081000Y-94183000D03*
X84081000Y-85543000D03*
D18*
X136446000Y-99993000D03*
X137996000Y-99993000D03*
D31*
X101053500Y-103953000D03*
X101053500Y-102053000D03*
X99178500Y-103003000D03*
D17*
X97103500Y-99513000D03*
X95453500Y-99513000D03*
D34*
X103241000Y-91588000D03*
X103241000Y-93138000D03*
D53*
X101686000Y-96723000D03*
X101686000Y-94823000D03*
X99066000Y-95773000D03*
D16*
X92253500Y-96063000D03*
X93828500Y-96063000D03*
D17*
X97103500Y-101238000D03*
X95453500Y-101238000D03*
X100491000Y-85763000D03*
X98841000Y-85763000D03*
D44*
X102166000Y-85738000D03*
X103816000Y-85738000D03*
D45*
X86966000Y-83038000D03*
X85416000Y-83038000D03*
D18*
X111341000Y-100113000D03*
X112891000Y-100113000D03*
D54*
X84491000Y-120363000D03*
X84491000Y-113363000D03*
D55*
X85491000Y-116863000D03*
X88791000Y-121463000D03*
X91691000Y-116863000D03*
D56*
X114141000Y-113113000D03*
X114141000Y-110313000D03*
D44*
X105441000Y-108163000D03*
X107091000Y-108163000D03*
D17*
X83956000Y-82173000D03*
X82306000Y-82173000D03*
X113741000Y-108188000D03*
X112091000Y-108188000D03*
X109116000Y-95613000D03*
X107466000Y-95613000D03*
X97103500Y-97788000D03*
X95453500Y-97788000D03*
D16*
X92266000Y-99513000D03*
X93841000Y-99513000D03*
D17*
X90341000Y-83038000D03*
X88691000Y-83038000D03*
G36*
X109927471Y-112399753D02*
G01*
X109927861Y-112401715D01*
X109926848Y-112402867D01*
X109922369Y-112405066D01*
X109864504Y-112455634D01*
X109839764Y-112528103D01*
X109854572Y-112603229D01*
X109905094Y-112661042D01*
X109922423Y-112671026D01*
X109926651Y-112673092D01*
X109927768Y-112674751D01*
X109926890Y-112676548D01*
X109925383Y-112676851D01*
X109865801Y-112665000D01*
X108841199Y-112665000D01*
X108781423Y-112676890D01*
X108779529Y-112676247D01*
X108779139Y-112674285D01*
X108780152Y-112673133D01*
X108784631Y-112670934D01*
X108842496Y-112620366D01*
X108867236Y-112547897D01*
X108852428Y-112472771D01*
X108801906Y-112414958D01*
X108784577Y-112404974D01*
X108780349Y-112402908D01*
X108779232Y-112401249D01*
X108780110Y-112399452D01*
X108781617Y-112399149D01*
X108841199Y-112411000D01*
X109865801Y-112411000D01*
X109925577Y-112399110D01*
X109927471Y-112399753D01*
G37*
G36*
X112202471Y-112399753D02*
G01*
X112202861Y-112401715D01*
X112201848Y-112402867D01*
X112197369Y-112405066D01*
X112139504Y-112455634D01*
X112114764Y-112528103D01*
X112129572Y-112603229D01*
X112180094Y-112661042D01*
X112197423Y-112671026D01*
X112201651Y-112673092D01*
X112202768Y-112674751D01*
X112201890Y-112676548D01*
X112200383Y-112676851D01*
X112140801Y-112665000D01*
X111116199Y-112665000D01*
X111056423Y-112676890D01*
X111054529Y-112676247D01*
X111054139Y-112674285D01*
X111055152Y-112673133D01*
X111059631Y-112670934D01*
X111117496Y-112620366D01*
X111142236Y-112547897D01*
X111127428Y-112472771D01*
X111076906Y-112414958D01*
X111059577Y-112404974D01*
X111055349Y-112402908D01*
X111054232Y-112401249D01*
X111055110Y-112399452D01*
X111056617Y-112399149D01*
X111116199Y-112411000D01*
X112140801Y-112411000D01*
X112200577Y-112399110D01*
X112202471Y-112399753D01*
G37*
G36*
X109927471Y-111449753D02*
G01*
X109927861Y-111451715D01*
X109926848Y-111452867D01*
X109922369Y-111455066D01*
X109864504Y-111505634D01*
X109839764Y-111578103D01*
X109854572Y-111653229D01*
X109905094Y-111711042D01*
X109922423Y-111721026D01*
X109926651Y-111723092D01*
X109927768Y-111724751D01*
X109926890Y-111726548D01*
X109925383Y-111726851D01*
X109865801Y-111715000D01*
X108841199Y-111715000D01*
X108781423Y-111726890D01*
X108779529Y-111726247D01*
X108779139Y-111724285D01*
X108780152Y-111723133D01*
X108784631Y-111720934D01*
X108842496Y-111670366D01*
X108867236Y-111597897D01*
X108852428Y-111522771D01*
X108801906Y-111464958D01*
X108784577Y-111454974D01*
X108780349Y-111452908D01*
X108779232Y-111451249D01*
X108780110Y-111449452D01*
X108781617Y-111449149D01*
X108841199Y-111461000D01*
X109865801Y-111461000D01*
X109925577Y-111449110D01*
X109927471Y-111449753D01*
G37*
G36*
X112202471Y-111449753D02*
G01*
X112202861Y-111451715D01*
X112201848Y-111452867D01*
X112197369Y-111455066D01*
X112139504Y-111505634D01*
X112114764Y-111578103D01*
X112129572Y-111653229D01*
X112180094Y-111711042D01*
X112197423Y-111721026D01*
X112201651Y-111723092D01*
X112202768Y-111724751D01*
X112201890Y-111726548D01*
X112200383Y-111726851D01*
X112140801Y-111715000D01*
X111116199Y-111715000D01*
X111056423Y-111726890D01*
X111054529Y-111726247D01*
X111054139Y-111724285D01*
X111055152Y-111723133D01*
X111059631Y-111720934D01*
X111117496Y-111670366D01*
X111142236Y-111597897D01*
X111127428Y-111522771D01*
X111076906Y-111464958D01*
X111059577Y-111454974D01*
X111055349Y-111452908D01*
X111054232Y-111451249D01*
X111055110Y-111449452D01*
X111056617Y-111449149D01*
X111116199Y-111461000D01*
X112140801Y-111461000D01*
X112200577Y-111449110D01*
X112202471Y-111449753D01*
G37*
G36*
X112006649Y-101682242D02*
G01*
X112024117Y-101693914D01*
X112024325Y-101694073D01*
X112050570Y-101717091D01*
X112125672Y-101732031D01*
X112198248Y-101707396D01*
X112219337Y-101686307D01*
X112219640Y-101686058D01*
X112225351Y-101682242D01*
X112227347Y-101682111D01*
X112228458Y-101683774D01*
X112228125Y-101685016D01*
X112221691Y-101694645D01*
X112218000Y-101713199D01*
X112218000Y-103212801D01*
X112221691Y-103231355D01*
X112228125Y-103240984D01*
X112228256Y-103242980D01*
X112226593Y-103244091D01*
X112225351Y-103243758D01*
X112207883Y-103232086D01*
X112207675Y-103231927D01*
X112181430Y-103208909D01*
X112106328Y-103193969D01*
X112033752Y-103218604D01*
X112012663Y-103239693D01*
X112012360Y-103239942D01*
X112006649Y-103243758D01*
X112004653Y-103243889D01*
X112003542Y-103242226D01*
X112003875Y-103240984D01*
X112010309Y-103231355D01*
X112014000Y-103212801D01*
X112014000Y-101713199D01*
X112010309Y-101694645D01*
X112003875Y-101685016D01*
X112003744Y-101683020D01*
X112005407Y-101681909D01*
X112006649Y-101682242D01*
G37*
G36*
X130558956Y-96253593D02*
G01*
X130631325Y-96278159D01*
X130706630Y-96263179D01*
X130722519Y-96254006D01*
X130724519Y-96254006D01*
X130725519Y-96255738D01*
X130725182Y-96256849D01*
X130702400Y-96290944D01*
X130693000Y-96338199D01*
X130693000Y-97662801D01*
X130702400Y-97710056D01*
X130725350Y-97744402D01*
X130725481Y-97746398D01*
X130723818Y-97747509D01*
X130723044Y-97747407D01*
X130650675Y-97722841D01*
X130575370Y-97737821D01*
X130559481Y-97746994D01*
X130557481Y-97746994D01*
X130556481Y-97745262D01*
X130556818Y-97744151D01*
X130579600Y-97710056D01*
X130589000Y-97662801D01*
X130589000Y-96338199D01*
X130579600Y-96290944D01*
X130556650Y-96256598D01*
X130556519Y-96254602D01*
X130558182Y-96253491D01*
X130558956Y-96253593D01*
G37*
G36*
X130058956Y-96253593D02*
G01*
X130131325Y-96278159D01*
X130206630Y-96263179D01*
X130222519Y-96254006D01*
X130224519Y-96254006D01*
X130225519Y-96255738D01*
X130225182Y-96256849D01*
X130202400Y-96290944D01*
X130193000Y-96338199D01*
X130193000Y-97662801D01*
X130202400Y-97710056D01*
X130225350Y-97744402D01*
X130225481Y-97746398D01*
X130223818Y-97747509D01*
X130223044Y-97747407D01*
X130150675Y-97722841D01*
X130075370Y-97737821D01*
X130059481Y-97746994D01*
X130057481Y-97746994D01*
X130056481Y-97745262D01*
X130056818Y-97744151D01*
X130079600Y-97710056D01*
X130089000Y-97662801D01*
X130089000Y-96338199D01*
X130079600Y-96290944D01*
X130056650Y-96256598D01*
X130056519Y-96254602D01*
X130058182Y-96253491D01*
X130058956Y-96253593D01*
G37*
G36*
X129058956Y-96253593D02*
G01*
X129131325Y-96278159D01*
X129206630Y-96263179D01*
X129222519Y-96254006D01*
X129224519Y-96254006D01*
X129225519Y-96255738D01*
X129225182Y-96256849D01*
X129202400Y-96290944D01*
X129193000Y-96338199D01*
X129193000Y-97662801D01*
X129202400Y-97710056D01*
X129225350Y-97744402D01*
X129225481Y-97746398D01*
X129223818Y-97747509D01*
X129223044Y-97747407D01*
X129150675Y-97722841D01*
X129075370Y-97737821D01*
X129059481Y-97746994D01*
X129057481Y-97746994D01*
X129056481Y-97745262D01*
X129056818Y-97744151D01*
X129079600Y-97710056D01*
X129089000Y-97662801D01*
X129089000Y-96338199D01*
X129079600Y-96290944D01*
X129056650Y-96256598D01*
X129056519Y-96254602D01*
X129058182Y-96253491D01*
X129058956Y-96253593D01*
G37*
G36*
X134058956Y-96253593D02*
G01*
X134131325Y-96278159D01*
X134206630Y-96263179D01*
X134222519Y-96254006D01*
X134224519Y-96254006D01*
X134225519Y-96255738D01*
X134225182Y-96256849D01*
X134202400Y-96290944D01*
X134193000Y-96338199D01*
X134193000Y-97662801D01*
X134202400Y-97710056D01*
X134225350Y-97744402D01*
X134225481Y-97746398D01*
X134223818Y-97747509D01*
X134223044Y-97747407D01*
X134150675Y-97722841D01*
X134075370Y-97737821D01*
X134059481Y-97746994D01*
X134057481Y-97746994D01*
X134056481Y-97745262D01*
X134056818Y-97744151D01*
X134079600Y-97710056D01*
X134089000Y-97662801D01*
X134089000Y-96338199D01*
X134079600Y-96290944D01*
X134056650Y-96256598D01*
X134056519Y-96254602D01*
X134058182Y-96253491D01*
X134058956Y-96253593D01*
G37*
G36*
X131058956Y-96253593D02*
G01*
X131131325Y-96278159D01*
X131206630Y-96263179D01*
X131222519Y-96254006D01*
X131224519Y-96254006D01*
X131225519Y-96255738D01*
X131225182Y-96256849D01*
X131202400Y-96290944D01*
X131193000Y-96338199D01*
X131193000Y-97662801D01*
X131202400Y-97710056D01*
X131225350Y-97744402D01*
X131225481Y-97746398D01*
X131223818Y-97747509D01*
X131223044Y-97747407D01*
X131150675Y-97722841D01*
X131075370Y-97737821D01*
X131059481Y-97746994D01*
X131057481Y-97746994D01*
X131056481Y-97745262D01*
X131056818Y-97744151D01*
X131079600Y-97710056D01*
X131089000Y-97662801D01*
X131089000Y-96338199D01*
X131079600Y-96290944D01*
X131056650Y-96256598D01*
X131056519Y-96254602D01*
X131058182Y-96253491D01*
X131058956Y-96253593D01*
G37*
G36*
X133558956Y-96253593D02*
G01*
X133631325Y-96278159D01*
X133706630Y-96263179D01*
X133722519Y-96254006D01*
X133724519Y-96254006D01*
X133725519Y-96255738D01*
X133725182Y-96256849D01*
X133702400Y-96290944D01*
X133693000Y-96338199D01*
X133693000Y-97662801D01*
X133702400Y-97710056D01*
X133725350Y-97744402D01*
X133725481Y-97746398D01*
X133723818Y-97747509D01*
X133723044Y-97747407D01*
X133650675Y-97722841D01*
X133575370Y-97737821D01*
X133559481Y-97746994D01*
X133557481Y-97746994D01*
X133556481Y-97745262D01*
X133556818Y-97744151D01*
X133579600Y-97710056D01*
X133589000Y-97662801D01*
X133589000Y-96338199D01*
X133579600Y-96290944D01*
X133556650Y-96256598D01*
X133556519Y-96254602D01*
X133558182Y-96253491D01*
X133558956Y-96253593D01*
G37*
G36*
X132058956Y-96253593D02*
G01*
X132131325Y-96278159D01*
X132206630Y-96263179D01*
X132222519Y-96254006D01*
X132224519Y-96254006D01*
X132225519Y-96255738D01*
X132225182Y-96256849D01*
X132202400Y-96290944D01*
X132193000Y-96338199D01*
X132193000Y-97662801D01*
X132202400Y-97710056D01*
X132225350Y-97744402D01*
X132225481Y-97746398D01*
X132223818Y-97747509D01*
X132223044Y-97747407D01*
X132150675Y-97722841D01*
X132075370Y-97737821D01*
X132059481Y-97746994D01*
X132057481Y-97746994D01*
X132056481Y-97745262D01*
X132056818Y-97744151D01*
X132079600Y-97710056D01*
X132089000Y-97662801D01*
X132089000Y-96338199D01*
X132079600Y-96290944D01*
X132056650Y-96256598D01*
X132056519Y-96254602D01*
X132058182Y-96253491D01*
X132058956Y-96253593D01*
G37*
G36*
X129558956Y-96253593D02*
G01*
X129631325Y-96278159D01*
X129706630Y-96263179D01*
X129722519Y-96254006D01*
X129724519Y-96254006D01*
X129725519Y-96255738D01*
X129725182Y-96256849D01*
X129702400Y-96290944D01*
X129693000Y-96338199D01*
X129693000Y-97662801D01*
X129702400Y-97710056D01*
X129725350Y-97744402D01*
X129725481Y-97746398D01*
X129723818Y-97747509D01*
X129723044Y-97747407D01*
X129650675Y-97722841D01*
X129575370Y-97737821D01*
X129559481Y-97746994D01*
X129557481Y-97746994D01*
X129556481Y-97745262D01*
X129556818Y-97744151D01*
X129579600Y-97710056D01*
X129589000Y-97662801D01*
X129589000Y-96338199D01*
X129579600Y-96290944D01*
X129556650Y-96256598D01*
X129556519Y-96254602D01*
X129558182Y-96253491D01*
X129558956Y-96253593D01*
G37*
G36*
X132558956Y-96253593D02*
G01*
X132631325Y-96278159D01*
X132706630Y-96263179D01*
X132722519Y-96254006D01*
X132724519Y-96254006D01*
X132725519Y-96255738D01*
X132725182Y-96256849D01*
X132702400Y-96290944D01*
X132693000Y-96338199D01*
X132693000Y-97662801D01*
X132702400Y-97710056D01*
X132725350Y-97744402D01*
X132725481Y-97746398D01*
X132723818Y-97747509D01*
X132723044Y-97747407D01*
X132650675Y-97722841D01*
X132575370Y-97737821D01*
X132559481Y-97746994D01*
X132557481Y-97746994D01*
X132556481Y-97745262D01*
X132556818Y-97744151D01*
X132579600Y-97710056D01*
X132589000Y-97662801D01*
X132589000Y-96338199D01*
X132579600Y-96290944D01*
X132556650Y-96256598D01*
X132556519Y-96254602D01*
X132558182Y-96253491D01*
X132558956Y-96253593D01*
G37*
G36*
X131558956Y-96253593D02*
G01*
X131631325Y-96278159D01*
X131706630Y-96263179D01*
X131722519Y-96254006D01*
X131724519Y-96254006D01*
X131725519Y-96255738D01*
X131725182Y-96256849D01*
X131702400Y-96290944D01*
X131693000Y-96338199D01*
X131693000Y-97662801D01*
X131702400Y-97710056D01*
X131725350Y-97744402D01*
X131725481Y-97746398D01*
X131723818Y-97747509D01*
X131723044Y-97747407D01*
X131650675Y-97722841D01*
X131575370Y-97737821D01*
X131559481Y-97746994D01*
X131557481Y-97746994D01*
X131556481Y-97745262D01*
X131556818Y-97744151D01*
X131579600Y-97710056D01*
X131589000Y-97662801D01*
X131589000Y-96338199D01*
X131579600Y-96290944D01*
X131556650Y-96256598D01*
X131556519Y-96254602D01*
X131558182Y-96253491D01*
X131558956Y-96253593D01*
G37*
G36*
X133058956Y-96253593D02*
G01*
X133131325Y-96278159D01*
X133206630Y-96263179D01*
X133222519Y-96254006D01*
X133224519Y-96254006D01*
X133225519Y-96255738D01*
X133225182Y-96256849D01*
X133202400Y-96290944D01*
X133193000Y-96338199D01*
X133193000Y-97662801D01*
X133202400Y-97710056D01*
X133225350Y-97744402D01*
X133225481Y-97746398D01*
X133223818Y-97747509D01*
X133223044Y-97747407D01*
X133150675Y-97722841D01*
X133075370Y-97737821D01*
X133059481Y-97746994D01*
X133057481Y-97746994D01*
X133056481Y-97745262D01*
X133056818Y-97744151D01*
X133079600Y-97710056D01*
X133089000Y-97662801D01*
X133089000Y-96338199D01*
X133079600Y-96290944D01*
X133056650Y-96256598D01*
X133056519Y-96254602D01*
X133058182Y-96253491D01*
X133058956Y-96253593D01*
G37*
G36*
X135059849Y-95253818D02*
G01*
X135093944Y-95276600D01*
X135141199Y-95286000D01*
X136465801Y-95286000D01*
X136513056Y-95276600D01*
X136547402Y-95253650D01*
X136549398Y-95253519D01*
X136550509Y-95255182D01*
X136550407Y-95255956D01*
X136525841Y-95328325D01*
X136540821Y-95403630D01*
X136549994Y-95419519D01*
X136549994Y-95421519D01*
X136548262Y-95422519D01*
X136547151Y-95422182D01*
X136513056Y-95399400D01*
X136465801Y-95390000D01*
X135141199Y-95390000D01*
X135093944Y-95399400D01*
X135059598Y-95422350D01*
X135057602Y-95422481D01*
X135056491Y-95420818D01*
X135056593Y-95420044D01*
X135081159Y-95347675D01*
X135066179Y-95272370D01*
X135057006Y-95256481D01*
X135057006Y-95254481D01*
X135058738Y-95253481D01*
X135059849Y-95253818D01*
G37*
G36*
X126734849Y-95253818D02*
G01*
X126768944Y-95276600D01*
X126816199Y-95286000D01*
X128140801Y-95286000D01*
X128188056Y-95276600D01*
X128222402Y-95253650D01*
X128224398Y-95253519D01*
X128225509Y-95255182D01*
X128225407Y-95255956D01*
X128200841Y-95328325D01*
X128215821Y-95403630D01*
X128224994Y-95419519D01*
X128224994Y-95421519D01*
X128223262Y-95422519D01*
X128222151Y-95422182D01*
X128188056Y-95399400D01*
X128140801Y-95390000D01*
X126816199Y-95390000D01*
X126768944Y-95399400D01*
X126734598Y-95422350D01*
X126732602Y-95422481D01*
X126731491Y-95420818D01*
X126731593Y-95420044D01*
X126756159Y-95347675D01*
X126741179Y-95272370D01*
X126732006Y-95256481D01*
X126732006Y-95254481D01*
X126733738Y-95253481D01*
X126734849Y-95253818D01*
G37*
G36*
X113760251Y-94087000D02*
G01*
X113760251Y-94089000D01*
X113759404Y-94089794D01*
X113695178Y-94121466D01*
X113652636Y-94185133D01*
X113647622Y-94261613D01*
X113664186Y-94301602D01*
X113663925Y-94303585D01*
X113662077Y-94304350D01*
X113660675Y-94303478D01*
X113656608Y-94297392D01*
X113620773Y-94273449D01*
X113578301Y-94265000D01*
X113453699Y-94265000D01*
X113411227Y-94273449D01*
X113375392Y-94297392D01*
X113351449Y-94333227D01*
X113343000Y-94375699D01*
X113343000Y-95075301D01*
X113351449Y-95117773D01*
X113371429Y-95147677D01*
X113371560Y-95149673D01*
X113369897Y-95150784D01*
X113368655Y-95150451D01*
X113351771Y-95139169D01*
X113351229Y-95139980D01*
X113349435Y-95140865D01*
X113348247Y-95140373D01*
X113331425Y-95125620D01*
X113256322Y-95110682D01*
X113183747Y-95135320D01*
X113179371Y-95139696D01*
X113179068Y-95139945D01*
X113163345Y-95150451D01*
X113161349Y-95150582D01*
X113160238Y-95148919D01*
X113160571Y-95147677D01*
X113180551Y-95117773D01*
X113189000Y-95075301D01*
X113189000Y-94375699D01*
X113180551Y-94333227D01*
X113156608Y-94297392D01*
X113120773Y-94273449D01*
X113078301Y-94265000D01*
X112953699Y-94265000D01*
X112911227Y-94273449D01*
X112875392Y-94297392D01*
X112851449Y-94333227D01*
X112843000Y-94375699D01*
X112843000Y-95075301D01*
X112851449Y-95117773D01*
X112871429Y-95147677D01*
X112871560Y-95149673D01*
X112869897Y-95150784D01*
X112868655Y-95150451D01*
X112851771Y-95139169D01*
X112851229Y-95139980D01*
X112849435Y-95140865D01*
X112848247Y-95140373D01*
X112831425Y-95125620D01*
X112756322Y-95110682D01*
X112683747Y-95135320D01*
X112679371Y-95139696D01*
X112679068Y-95139945D01*
X112663345Y-95150451D01*
X112661349Y-95150582D01*
X112660238Y-95148919D01*
X112660571Y-95147677D01*
X112680551Y-95117773D01*
X112689000Y-95075301D01*
X112689000Y-94375699D01*
X112680551Y-94333227D01*
X112656608Y-94297392D01*
X112620773Y-94273449D01*
X112578301Y-94265000D01*
X112453699Y-94265000D01*
X112411227Y-94273449D01*
X112375392Y-94297392D01*
X112351449Y-94333227D01*
X112343000Y-94375699D01*
X112343000Y-95075301D01*
X112351449Y-95117773D01*
X112371429Y-95147677D01*
X112371560Y-95149673D01*
X112369897Y-95150784D01*
X112368655Y-95150451D01*
X112351771Y-95139169D01*
X112351229Y-95139980D01*
X112349435Y-95140865D01*
X112348247Y-95140373D01*
X112331425Y-95125620D01*
X112256322Y-95110682D01*
X112183747Y-95135320D01*
X112179371Y-95139696D01*
X112179068Y-95139945D01*
X112163345Y-95150451D01*
X112161349Y-95150582D01*
X112160238Y-95148919D01*
X112160571Y-95147677D01*
X112180551Y-95117773D01*
X112189000Y-95075301D01*
X112189000Y-94375699D01*
X112180551Y-94333227D01*
X112156608Y-94297392D01*
X112120773Y-94273449D01*
X112078301Y-94265000D01*
X111953699Y-94265000D01*
X111911227Y-94273449D01*
X111875392Y-94297392D01*
X111851449Y-94333227D01*
X111843000Y-94375699D01*
X111843000Y-95075301D01*
X111851449Y-95117773D01*
X111871429Y-95147677D01*
X111871560Y-95149673D01*
X111869897Y-95150784D01*
X111868655Y-95150451D01*
X111851771Y-95139169D01*
X111851229Y-95139980D01*
X111849435Y-95140865D01*
X111848247Y-95140373D01*
X111831425Y-95125620D01*
X111756322Y-95110682D01*
X111683747Y-95135320D01*
X111679371Y-95139696D01*
X111679068Y-95139945D01*
X111663345Y-95150451D01*
X111661349Y-95150582D01*
X111660238Y-95148919D01*
X111660571Y-95147677D01*
X111680551Y-95117773D01*
X111689000Y-95075301D01*
X111689000Y-94375699D01*
X111680551Y-94333227D01*
X111656608Y-94297392D01*
X111620773Y-94273449D01*
X111578301Y-94265000D01*
X111453699Y-94265000D01*
X111411227Y-94273449D01*
X111375392Y-94297392D01*
X111369251Y-94306583D01*
X111367457Y-94307468D01*
X111365794Y-94306357D01*
X111365694Y-94304829D01*
X111386899Y-94242359D01*
X111371959Y-94167257D01*
X111321424Y-94109633D01*
X111273656Y-94089848D01*
X111272438Y-94088261D01*
X111273203Y-94086413D01*
X111274421Y-94086000D01*
X113758519Y-94086000D01*
X113760251Y-94087000D01*
G37*
G36*
X135059849Y-94753818D02*
G01*
X135093944Y-94776600D01*
X135141199Y-94786000D01*
X136465801Y-94786000D01*
X136513056Y-94776600D01*
X136547402Y-94753650D01*
X136549398Y-94753519D01*
X136550509Y-94755182D01*
X136550407Y-94755956D01*
X136525841Y-94828325D01*
X136540821Y-94903630D01*
X136549994Y-94919519D01*
X136549994Y-94921519D01*
X136548262Y-94922519D01*
X136547151Y-94922182D01*
X136513056Y-94899400D01*
X136465801Y-94890000D01*
X135141199Y-94890000D01*
X135093944Y-94899400D01*
X135059598Y-94922350D01*
X135057602Y-94922481D01*
X135056491Y-94920818D01*
X135056593Y-94920044D01*
X135081159Y-94847675D01*
X135066179Y-94772370D01*
X135057006Y-94756481D01*
X135057006Y-94754481D01*
X135058738Y-94753481D01*
X135059849Y-94753818D01*
G37*
G36*
X126734849Y-94753818D02*
G01*
X126768944Y-94776600D01*
X126816199Y-94786000D01*
X128140801Y-94786000D01*
X128188056Y-94776600D01*
X128222402Y-94753650D01*
X128224398Y-94753519D01*
X128225509Y-94755182D01*
X128225407Y-94755956D01*
X128200841Y-94828325D01*
X128215821Y-94903630D01*
X128224994Y-94919519D01*
X128224994Y-94921519D01*
X128223262Y-94922519D01*
X128222151Y-94922182D01*
X128188056Y-94899400D01*
X128140801Y-94890000D01*
X126816199Y-94890000D01*
X126768944Y-94899400D01*
X126734598Y-94922350D01*
X126732602Y-94922481D01*
X126731491Y-94920818D01*
X126731593Y-94920044D01*
X126756159Y-94847675D01*
X126741179Y-94772370D01*
X126732006Y-94756481D01*
X126732006Y-94754481D01*
X126733738Y-94753481D01*
X126734849Y-94753818D01*
G37*
G36*
X126734849Y-94253818D02*
G01*
X126768944Y-94276600D01*
X126816199Y-94286000D01*
X128140801Y-94286000D01*
X128188056Y-94276600D01*
X128222402Y-94253650D01*
X128224398Y-94253519D01*
X128225509Y-94255182D01*
X128225407Y-94255956D01*
X128200841Y-94328325D01*
X128215821Y-94403630D01*
X128224994Y-94419519D01*
X128224994Y-94421519D01*
X128223262Y-94422519D01*
X128222151Y-94422182D01*
X128188056Y-94399400D01*
X128140801Y-94390000D01*
X126816199Y-94390000D01*
X126768944Y-94399400D01*
X126734598Y-94422350D01*
X126732602Y-94422481D01*
X126731491Y-94420818D01*
X126731593Y-94420044D01*
X126756159Y-94347675D01*
X126741179Y-94272370D01*
X126732006Y-94256481D01*
X126732006Y-94254481D01*
X126733738Y-94253481D01*
X126734849Y-94253818D01*
G37*
G36*
X135059849Y-94253818D02*
G01*
X135093944Y-94276600D01*
X135141199Y-94286000D01*
X136465801Y-94286000D01*
X136513056Y-94276600D01*
X136547402Y-94253650D01*
X136549398Y-94253519D01*
X136550509Y-94255182D01*
X136550407Y-94255956D01*
X136525841Y-94328325D01*
X136540821Y-94403630D01*
X136549994Y-94419519D01*
X136549994Y-94421519D01*
X136548262Y-94422519D01*
X136547151Y-94422182D01*
X136513056Y-94399400D01*
X136465801Y-94390000D01*
X135141199Y-94390000D01*
X135093944Y-94399400D01*
X135059598Y-94422350D01*
X135057602Y-94422481D01*
X135056491Y-94420818D01*
X135056593Y-94420044D01*
X135081159Y-94347675D01*
X135066179Y-94272370D01*
X135057006Y-94256481D01*
X135057006Y-94254481D01*
X135058738Y-94253481D01*
X135059849Y-94253818D01*
G37*
G36*
X111217587Y-91545203D02*
G01*
X111218000Y-91546421D01*
X111218000Y-94030519D01*
X111217000Y-94032251D01*
X111215000Y-94032251D01*
X111214206Y-94031404D01*
X111182534Y-93967178D01*
X111118867Y-93924636D01*
X111042387Y-93919622D01*
X111002398Y-93936186D01*
X111000415Y-93935925D01*
X110999650Y-93934077D01*
X111000522Y-93932675D01*
X111006608Y-93928608D01*
X111030551Y-93892773D01*
X111039000Y-93850301D01*
X111039000Y-93725699D01*
X111030551Y-93683227D01*
X111006608Y-93647392D01*
X110970773Y-93623449D01*
X110928301Y-93615000D01*
X110228699Y-93615000D01*
X110186227Y-93623449D01*
X110156323Y-93643429D01*
X110154327Y-93643560D01*
X110153216Y-93641897D01*
X110153549Y-93640655D01*
X110164831Y-93623771D01*
X110164020Y-93623229D01*
X110163135Y-93621435D01*
X110163627Y-93620247D01*
X110178380Y-93603425D01*
X110193318Y-93528322D01*
X110168680Y-93455747D01*
X110164304Y-93451371D01*
X110164055Y-93451068D01*
X110153549Y-93435345D01*
X110153418Y-93433349D01*
X110155081Y-93432238D01*
X110156323Y-93432571D01*
X110186227Y-93452551D01*
X110228699Y-93461000D01*
X110928301Y-93461000D01*
X110970773Y-93452551D01*
X111006608Y-93428608D01*
X111030551Y-93392773D01*
X111039000Y-93350301D01*
X111039000Y-93225699D01*
X111030551Y-93183227D01*
X111006608Y-93147392D01*
X110970773Y-93123449D01*
X110928301Y-93115000D01*
X110228699Y-93115000D01*
X110186227Y-93123449D01*
X110156323Y-93143429D01*
X110154327Y-93143560D01*
X110153216Y-93141897D01*
X110153549Y-93140655D01*
X110164831Y-93123771D01*
X110164020Y-93123229D01*
X110163135Y-93121435D01*
X110163627Y-93120247D01*
X110178380Y-93103425D01*
X110193318Y-93028322D01*
X110168680Y-92955747D01*
X110164304Y-92951371D01*
X110164055Y-92951068D01*
X110153549Y-92935345D01*
X110153418Y-92933349D01*
X110155081Y-92932238D01*
X110156323Y-92932571D01*
X110186227Y-92952551D01*
X110228699Y-92961000D01*
X110928301Y-92961000D01*
X110970773Y-92952551D01*
X111006608Y-92928608D01*
X111030551Y-92892773D01*
X111039000Y-92850301D01*
X111039000Y-92725699D01*
X111030551Y-92683227D01*
X111006608Y-92647392D01*
X110970773Y-92623449D01*
X110928301Y-92615000D01*
X110228699Y-92615000D01*
X110186227Y-92623449D01*
X110156323Y-92643429D01*
X110154327Y-92643560D01*
X110153216Y-92641897D01*
X110153549Y-92640655D01*
X110164831Y-92623771D01*
X110164020Y-92623229D01*
X110163135Y-92621435D01*
X110163627Y-92620247D01*
X110178380Y-92603425D01*
X110193318Y-92528322D01*
X110168680Y-92455747D01*
X110164304Y-92451371D01*
X110164055Y-92451068D01*
X110153549Y-92435345D01*
X110153418Y-92433349D01*
X110155081Y-92432238D01*
X110156323Y-92432571D01*
X110186227Y-92452551D01*
X110228699Y-92461000D01*
X110928301Y-92461000D01*
X110970773Y-92452551D01*
X111006608Y-92428608D01*
X111030551Y-92392773D01*
X111039000Y-92350301D01*
X111039000Y-92225699D01*
X111030551Y-92183227D01*
X111006608Y-92147392D01*
X110970773Y-92123449D01*
X110928301Y-92115000D01*
X110228699Y-92115000D01*
X110186227Y-92123449D01*
X110156323Y-92143429D01*
X110154327Y-92143560D01*
X110153216Y-92141897D01*
X110153549Y-92140655D01*
X110164831Y-92123771D01*
X110164020Y-92123229D01*
X110163135Y-92121435D01*
X110163627Y-92120247D01*
X110178380Y-92103425D01*
X110193318Y-92028322D01*
X110168680Y-91955747D01*
X110164304Y-91951371D01*
X110164055Y-91951068D01*
X110153549Y-91935345D01*
X110153418Y-91933349D01*
X110155081Y-91932238D01*
X110156323Y-91932571D01*
X110186227Y-91952551D01*
X110228699Y-91961000D01*
X110928301Y-91961000D01*
X110970773Y-91952551D01*
X111006608Y-91928608D01*
X111030551Y-91892773D01*
X111039000Y-91850301D01*
X111039000Y-91725699D01*
X111030551Y-91683227D01*
X111006608Y-91647392D01*
X110997417Y-91641251D01*
X110996532Y-91639457D01*
X110997643Y-91637794D01*
X110999171Y-91637694D01*
X111061641Y-91658899D01*
X111136743Y-91643959D01*
X111194367Y-91593424D01*
X111214152Y-91545656D01*
X111215739Y-91544438D01*
X111217587Y-91545203D01*
G37*
G36*
X113817794Y-91544596D02*
G01*
X113849466Y-91608822D01*
X113913133Y-91651364D01*
X113989613Y-91656378D01*
X114029602Y-91639814D01*
X114031585Y-91640075D01*
X114032350Y-91641923D01*
X114031478Y-91643325D01*
X114025392Y-91647392D01*
X114001449Y-91683227D01*
X113993000Y-91725699D01*
X113993000Y-91850301D01*
X114001449Y-91892773D01*
X114025392Y-91928608D01*
X114061227Y-91952551D01*
X114103699Y-91961000D01*
X114803301Y-91961000D01*
X114845773Y-91952551D01*
X114875677Y-91932571D01*
X114877673Y-91932440D01*
X114878784Y-91934103D01*
X114878451Y-91935345D01*
X114867169Y-91952229D01*
X114867980Y-91952771D01*
X114868865Y-91954565D01*
X114868373Y-91955753D01*
X114853620Y-91972575D01*
X114838682Y-92047678D01*
X114863320Y-92120253D01*
X114867696Y-92124629D01*
X114867945Y-92124932D01*
X114878451Y-92140655D01*
X114878582Y-92142651D01*
X114876919Y-92143762D01*
X114875677Y-92143429D01*
X114845773Y-92123449D01*
X114803301Y-92115000D01*
X114103699Y-92115000D01*
X114061227Y-92123449D01*
X114025392Y-92147392D01*
X114001449Y-92183227D01*
X113993000Y-92225699D01*
X113993000Y-92350301D01*
X114001449Y-92392773D01*
X114025392Y-92428608D01*
X114061227Y-92452551D01*
X114103699Y-92461000D01*
X114803301Y-92461000D01*
X114845773Y-92452551D01*
X114875677Y-92432571D01*
X114877673Y-92432440D01*
X114878784Y-92434103D01*
X114878451Y-92435345D01*
X114867169Y-92452229D01*
X114867980Y-92452771D01*
X114868865Y-92454565D01*
X114868373Y-92455753D01*
X114853620Y-92472575D01*
X114838682Y-92547678D01*
X114863320Y-92620253D01*
X114867696Y-92624629D01*
X114867945Y-92624932D01*
X114878451Y-92640655D01*
X114878582Y-92642651D01*
X114876919Y-92643762D01*
X114875677Y-92643429D01*
X114845773Y-92623449D01*
X114803301Y-92615000D01*
X114103699Y-92615000D01*
X114061227Y-92623449D01*
X114025392Y-92647392D01*
X114001449Y-92683227D01*
X113993000Y-92725699D01*
X113993000Y-92850301D01*
X114001449Y-92892773D01*
X114025392Y-92928608D01*
X114061227Y-92952551D01*
X114103699Y-92961000D01*
X114803301Y-92961000D01*
X114845773Y-92952551D01*
X114875677Y-92932571D01*
X114877673Y-92932440D01*
X114878784Y-92934103D01*
X114878451Y-92935345D01*
X114867169Y-92952229D01*
X114867980Y-92952771D01*
X114868865Y-92954565D01*
X114868373Y-92955753D01*
X114853620Y-92972575D01*
X114838682Y-93047678D01*
X114863320Y-93120253D01*
X114867696Y-93124629D01*
X114867945Y-93124932D01*
X114878451Y-93140655D01*
X114878582Y-93142651D01*
X114876919Y-93143762D01*
X114875677Y-93143429D01*
X114845773Y-93123449D01*
X114803301Y-93115000D01*
X114103699Y-93115000D01*
X114061227Y-93123449D01*
X114025392Y-93147392D01*
X114001449Y-93183227D01*
X113993000Y-93225699D01*
X113993000Y-93350301D01*
X114001449Y-93392773D01*
X114025392Y-93428608D01*
X114061227Y-93452551D01*
X114103699Y-93461000D01*
X114803301Y-93461000D01*
X114845773Y-93452551D01*
X114875677Y-93432571D01*
X114877673Y-93432440D01*
X114878784Y-93434103D01*
X114878451Y-93435345D01*
X114867169Y-93452229D01*
X114867980Y-93452771D01*
X114868865Y-93454565D01*
X114868373Y-93455753D01*
X114853620Y-93472575D01*
X114838682Y-93547678D01*
X114863320Y-93620253D01*
X114867696Y-93624629D01*
X114867945Y-93624932D01*
X114878451Y-93640655D01*
X114878582Y-93642651D01*
X114876919Y-93643762D01*
X114875677Y-93643429D01*
X114845773Y-93623449D01*
X114803301Y-93615000D01*
X114103699Y-93615000D01*
X114061227Y-93623449D01*
X114025392Y-93647392D01*
X114001449Y-93683227D01*
X113993000Y-93725699D01*
X113993000Y-93850301D01*
X114001449Y-93892773D01*
X114025392Y-93928608D01*
X114034583Y-93934749D01*
X114035468Y-93936543D01*
X114034357Y-93938206D01*
X114032829Y-93938306D01*
X113970359Y-93917101D01*
X113895257Y-93932041D01*
X113837633Y-93982576D01*
X113817848Y-94030344D01*
X113816261Y-94031562D01*
X113814413Y-94030797D01*
X113814000Y-94029579D01*
X113814000Y-91545481D01*
X113815000Y-91543749D01*
X113817000Y-91543749D01*
X113817794Y-91544596D01*
G37*
G36*
X135059849Y-93753818D02*
G01*
X135093944Y-93776600D01*
X135141199Y-93786000D01*
X136465801Y-93786000D01*
X136513056Y-93776600D01*
X136547402Y-93753650D01*
X136549398Y-93753519D01*
X136550509Y-93755182D01*
X136550407Y-93755956D01*
X136525841Y-93828325D01*
X136540821Y-93903630D01*
X136549994Y-93919519D01*
X136549994Y-93921519D01*
X136548262Y-93922519D01*
X136547151Y-93922182D01*
X136513056Y-93899400D01*
X136465801Y-93890000D01*
X135141199Y-93890000D01*
X135093944Y-93899400D01*
X135059598Y-93922350D01*
X135057602Y-93922481D01*
X135056491Y-93920818D01*
X135056593Y-93920044D01*
X135081159Y-93847675D01*
X135066179Y-93772370D01*
X135057006Y-93756481D01*
X135057006Y-93754481D01*
X135058738Y-93753481D01*
X135059849Y-93753818D01*
G37*
G36*
X126734849Y-93753818D02*
G01*
X126768944Y-93776600D01*
X126816199Y-93786000D01*
X128140801Y-93786000D01*
X128188056Y-93776600D01*
X128222402Y-93753650D01*
X128224398Y-93753519D01*
X128225509Y-93755182D01*
X128225407Y-93755956D01*
X128200841Y-93828325D01*
X128215821Y-93903630D01*
X128224994Y-93919519D01*
X128224994Y-93921519D01*
X128223262Y-93922519D01*
X128222151Y-93922182D01*
X128188056Y-93899400D01*
X128140801Y-93890000D01*
X126816199Y-93890000D01*
X126768944Y-93899400D01*
X126734598Y-93922350D01*
X126732602Y-93922481D01*
X126731491Y-93920818D01*
X126731593Y-93920044D01*
X126756159Y-93847675D01*
X126741179Y-93772370D01*
X126732006Y-93756481D01*
X126732006Y-93754481D01*
X126733738Y-93753481D01*
X126734849Y-93753818D01*
G37*
G36*
X88410653Y-93437285D02*
G01*
X88417087Y-93446913D01*
X88432645Y-93457309D01*
X88451199Y-93461000D01*
X89208528Y-93461000D01*
X89210260Y-93462000D01*
X89210260Y-93464000D01*
X89209046Y-93464932D01*
X89134567Y-93484889D01*
X89080423Y-93539033D01*
X89060604Y-93612998D01*
X89080435Y-93687008D01*
X89121920Y-93732360D01*
X89122351Y-93734313D01*
X89120875Y-93735663D01*
X89119390Y-93735410D01*
X89033884Y-93682395D01*
X88890990Y-93640880D01*
X88810922Y-93635000D01*
X88264925Y-93635000D01*
X88263193Y-93634000D01*
X88263193Y-93632000D01*
X88264407Y-93631068D01*
X88338891Y-93611110D01*
X88393034Y-93556967D01*
X88412898Y-93482833D01*
X88410062Y-93454041D01*
X88407028Y-93438786D01*
X88407671Y-93436892D01*
X88409633Y-93436502D01*
X88410653Y-93437285D01*
G37*
G36*
X135059849Y-93253818D02*
G01*
X135093944Y-93276600D01*
X135141199Y-93286000D01*
X136465801Y-93286000D01*
X136513056Y-93276600D01*
X136547402Y-93253650D01*
X136549398Y-93253519D01*
X136550509Y-93255182D01*
X136550407Y-93255956D01*
X136525841Y-93328325D01*
X136540821Y-93403630D01*
X136549994Y-93419519D01*
X136549994Y-93421519D01*
X136548262Y-93422519D01*
X136547151Y-93422182D01*
X136513056Y-93399400D01*
X136465801Y-93390000D01*
X135141199Y-93390000D01*
X135093944Y-93399400D01*
X135059598Y-93422350D01*
X135057602Y-93422481D01*
X135056491Y-93420818D01*
X135056593Y-93420044D01*
X135081159Y-93347675D01*
X135066179Y-93272370D01*
X135057006Y-93256481D01*
X135057006Y-93254481D01*
X135058738Y-93253481D01*
X135059849Y-93253818D01*
G37*
G36*
X126734849Y-93253818D02*
G01*
X126768944Y-93276600D01*
X126816199Y-93286000D01*
X128140801Y-93286000D01*
X128188056Y-93276600D01*
X128222402Y-93253650D01*
X128224398Y-93253519D01*
X128225509Y-93255182D01*
X128225407Y-93255956D01*
X128200841Y-93328325D01*
X128215821Y-93403630D01*
X128224994Y-93419519D01*
X128224994Y-93421519D01*
X128223262Y-93422519D01*
X128222151Y-93422182D01*
X128188056Y-93399400D01*
X128140801Y-93390000D01*
X126816199Y-93390000D01*
X126768944Y-93399400D01*
X126734598Y-93422350D01*
X126732602Y-93422481D01*
X126731491Y-93420818D01*
X126731593Y-93420044D01*
X126756159Y-93347675D01*
X126741179Y-93272370D01*
X126732006Y-93256481D01*
X126732006Y-93254481D01*
X126733738Y-93253481D01*
X126734849Y-93253818D01*
G37*
G36*
X126734849Y-92753818D02*
G01*
X126768944Y-92776600D01*
X126816199Y-92786000D01*
X128140801Y-92786000D01*
X128188056Y-92776600D01*
X128222402Y-92753650D01*
X128224398Y-92753519D01*
X128225509Y-92755182D01*
X128225407Y-92755956D01*
X128200841Y-92828325D01*
X128215821Y-92903630D01*
X128224994Y-92919519D01*
X128224994Y-92921519D01*
X128223262Y-92922519D01*
X128222151Y-92922182D01*
X128188056Y-92899400D01*
X128140801Y-92890000D01*
X126816199Y-92890000D01*
X126768944Y-92899400D01*
X126734598Y-92922350D01*
X126732602Y-92922481D01*
X126731491Y-92920818D01*
X126731593Y-92920044D01*
X126756159Y-92847675D01*
X126741179Y-92772370D01*
X126732006Y-92756481D01*
X126732006Y-92754481D01*
X126733738Y-92753481D01*
X126734849Y-92753818D01*
G37*
G36*
X135059849Y-92753818D02*
G01*
X135093944Y-92776600D01*
X135141199Y-92786000D01*
X136465801Y-92786000D01*
X136513056Y-92776600D01*
X136547402Y-92753650D01*
X136549398Y-92753519D01*
X136550509Y-92755182D01*
X136550407Y-92755956D01*
X136525841Y-92828325D01*
X136540821Y-92903630D01*
X136549994Y-92919519D01*
X136549994Y-92921519D01*
X136548262Y-92922519D01*
X136547151Y-92922182D01*
X136513056Y-92899400D01*
X136465801Y-92890000D01*
X135141199Y-92890000D01*
X135093944Y-92899400D01*
X135059598Y-92922350D01*
X135057602Y-92922481D01*
X135056491Y-92920818D01*
X135056593Y-92920044D01*
X135081159Y-92847675D01*
X135066179Y-92772370D01*
X135057006Y-92756481D01*
X135057006Y-92754481D01*
X135058738Y-92753481D01*
X135059849Y-92753818D01*
G37*
G36*
X89943592Y-92639326D02*
G01*
X89943692Y-92640853D01*
X89922485Y-92703325D01*
X89937019Y-92776387D01*
X89936376Y-92778281D01*
X89934414Y-92778671D01*
X89933946Y-92778440D01*
X89919355Y-92768691D01*
X89900801Y-92765000D01*
X88451199Y-92765000D01*
X88432645Y-92768691D01*
X88417087Y-92779087D01*
X88411865Y-92786901D01*
X88410071Y-92787786D01*
X88408408Y-92786674D01*
X88408308Y-92785147D01*
X88429515Y-92722675D01*
X88414981Y-92649613D01*
X88415624Y-92647719D01*
X88417586Y-92647329D01*
X88418054Y-92647560D01*
X88432645Y-92657309D01*
X88451199Y-92661000D01*
X89900801Y-92661000D01*
X89919355Y-92657309D01*
X89934913Y-92646913D01*
X89940135Y-92639099D01*
X89941929Y-92638214D01*
X89943592Y-92639326D01*
G37*
G36*
X126734849Y-92253818D02*
G01*
X126768944Y-92276600D01*
X126816199Y-92286000D01*
X128140801Y-92286000D01*
X128188056Y-92276600D01*
X128222402Y-92253650D01*
X128224398Y-92253519D01*
X128225509Y-92255182D01*
X128225407Y-92255956D01*
X128200841Y-92328325D01*
X128215821Y-92403630D01*
X128224994Y-92419519D01*
X128224994Y-92421519D01*
X128223262Y-92422519D01*
X128222151Y-92422182D01*
X128188056Y-92399400D01*
X128140801Y-92390000D01*
X126816199Y-92390000D01*
X126768944Y-92399400D01*
X126734598Y-92422350D01*
X126732602Y-92422481D01*
X126731491Y-92420818D01*
X126731593Y-92420044D01*
X126756159Y-92347675D01*
X126741179Y-92272370D01*
X126732006Y-92256481D01*
X126732006Y-92254481D01*
X126733738Y-92253481D01*
X126734849Y-92253818D01*
G37*
G36*
X135059849Y-92253818D02*
G01*
X135093944Y-92276600D01*
X135141199Y-92286000D01*
X136465801Y-92286000D01*
X136513056Y-92276600D01*
X136547402Y-92253650D01*
X136549398Y-92253519D01*
X136550509Y-92255182D01*
X136550407Y-92255956D01*
X136525841Y-92328325D01*
X136540821Y-92403630D01*
X136549994Y-92419519D01*
X136549994Y-92421519D01*
X136548262Y-92422519D01*
X136547151Y-92422182D01*
X136513056Y-92399400D01*
X136465801Y-92390000D01*
X135141199Y-92390000D01*
X135093944Y-92399400D01*
X135059598Y-92422350D01*
X135057602Y-92422481D01*
X135056491Y-92420818D01*
X135056593Y-92420044D01*
X135081159Y-92347675D01*
X135066179Y-92272370D01*
X135057006Y-92256481D01*
X135057006Y-92254481D01*
X135058738Y-92253481D01*
X135059849Y-92253818D01*
G37*
G36*
X88423016Y-91800875D02*
G01*
X88432645Y-91807309D01*
X88451199Y-91811000D01*
X89900801Y-91811000D01*
X89919355Y-91807309D01*
X89928984Y-91800875D01*
X89930980Y-91800744D01*
X89932091Y-91802407D01*
X89931758Y-91803649D01*
X89930483Y-91805558D01*
X89905781Y-91878326D01*
X89920762Y-91953631D01*
X89930372Y-91970277D01*
X89931758Y-91972351D01*
X89931889Y-91974347D01*
X89930226Y-91975458D01*
X89928984Y-91975125D01*
X89919355Y-91968691D01*
X89900801Y-91965000D01*
X88451199Y-91965000D01*
X88432645Y-91968691D01*
X88423016Y-91975125D01*
X88421020Y-91975256D01*
X88419909Y-91973593D01*
X88420242Y-91972351D01*
X88421517Y-91970442D01*
X88446219Y-91897674D01*
X88431238Y-91822369D01*
X88421628Y-91805723D01*
X88420242Y-91803649D01*
X88420111Y-91801653D01*
X88421774Y-91800542D01*
X88423016Y-91800875D01*
G37*
G36*
X126734849Y-91753818D02*
G01*
X126768944Y-91776600D01*
X126816199Y-91786000D01*
X128140801Y-91786000D01*
X128188056Y-91776600D01*
X128222402Y-91753650D01*
X128224398Y-91753519D01*
X128225509Y-91755182D01*
X128225407Y-91755956D01*
X128200841Y-91828325D01*
X128215821Y-91903630D01*
X128224994Y-91919519D01*
X128224994Y-91921519D01*
X128223262Y-91922519D01*
X128222151Y-91922182D01*
X128188056Y-91899400D01*
X128140801Y-91890000D01*
X126816199Y-91890000D01*
X126768944Y-91899400D01*
X126734598Y-91922350D01*
X126732602Y-91922481D01*
X126731491Y-91920818D01*
X126731593Y-91920044D01*
X126756159Y-91847675D01*
X126741179Y-91772370D01*
X126732006Y-91756481D01*
X126732006Y-91754481D01*
X126733738Y-91753481D01*
X126734849Y-91753818D01*
G37*
G36*
X135059849Y-91753818D02*
G01*
X135093944Y-91776600D01*
X135141199Y-91786000D01*
X136465801Y-91786000D01*
X136513056Y-91776600D01*
X136547402Y-91753650D01*
X136549398Y-91753519D01*
X136550509Y-91755182D01*
X136550407Y-91755956D01*
X136525841Y-91828325D01*
X136540821Y-91903630D01*
X136549994Y-91919519D01*
X136549994Y-91921519D01*
X136548262Y-91922519D01*
X136547151Y-91922182D01*
X136513056Y-91899400D01*
X136465801Y-91890000D01*
X135141199Y-91890000D01*
X135093944Y-91899400D01*
X135059598Y-91922350D01*
X135057602Y-91922481D01*
X135056491Y-91920818D01*
X135056593Y-91920044D01*
X135081159Y-91847675D01*
X135066179Y-91772370D01*
X135057006Y-91756481D01*
X135057006Y-91754481D01*
X135058738Y-91753481D01*
X135059849Y-91753818D01*
G37*
G36*
X113163345Y-90425549D02*
G01*
X113180229Y-90436831D01*
X113180771Y-90436020D01*
X113182565Y-90435135D01*
X113183753Y-90435627D01*
X113200575Y-90450380D01*
X113275678Y-90465318D01*
X113348253Y-90440680D01*
X113352629Y-90436304D01*
X113352932Y-90436055D01*
X113368655Y-90425549D01*
X113370651Y-90425418D01*
X113371762Y-90427081D01*
X113371429Y-90428323D01*
X113351449Y-90458227D01*
X113343000Y-90500699D01*
X113343000Y-91200301D01*
X113351449Y-91242773D01*
X113375392Y-91278608D01*
X113411227Y-91302551D01*
X113453699Y-91311000D01*
X113578301Y-91311000D01*
X113620773Y-91302551D01*
X113656608Y-91278608D01*
X113662749Y-91269417D01*
X113664543Y-91268532D01*
X113666206Y-91269643D01*
X113666306Y-91271171D01*
X113645101Y-91333641D01*
X113660041Y-91408743D01*
X113710576Y-91466367D01*
X113758344Y-91486152D01*
X113759562Y-91487739D01*
X113758797Y-91489587D01*
X113757579Y-91490000D01*
X111273481Y-91490000D01*
X111271749Y-91489000D01*
X111271749Y-91487000D01*
X111272596Y-91486206D01*
X111336822Y-91454534D01*
X111379364Y-91390867D01*
X111384378Y-91314387D01*
X111367814Y-91274398D01*
X111368075Y-91272415D01*
X111369923Y-91271650D01*
X111371325Y-91272522D01*
X111375392Y-91278608D01*
X111411227Y-91302551D01*
X111453699Y-91311000D01*
X111578301Y-91311000D01*
X111620773Y-91302551D01*
X111656608Y-91278608D01*
X111680551Y-91242773D01*
X111689000Y-91200301D01*
X111689000Y-90500699D01*
X111680551Y-90458227D01*
X111660571Y-90428323D01*
X111660440Y-90426327D01*
X111662103Y-90425216D01*
X111663345Y-90425549D01*
X111680229Y-90436831D01*
X111680771Y-90436020D01*
X111682565Y-90435135D01*
X111683753Y-90435627D01*
X111700575Y-90450380D01*
X111775678Y-90465318D01*
X111848253Y-90440680D01*
X111852629Y-90436304D01*
X111852932Y-90436055D01*
X111868655Y-90425549D01*
X111870651Y-90425418D01*
X111871762Y-90427081D01*
X111871429Y-90428323D01*
X111851449Y-90458227D01*
X111843000Y-90500699D01*
X111843000Y-91200301D01*
X111851449Y-91242773D01*
X111875392Y-91278608D01*
X111911227Y-91302551D01*
X111953699Y-91311000D01*
X112078301Y-91311000D01*
X112120773Y-91302551D01*
X112156608Y-91278608D01*
X112180551Y-91242773D01*
X112189000Y-91200301D01*
X112189000Y-90500699D01*
X112180551Y-90458227D01*
X112160571Y-90428323D01*
X112160440Y-90426327D01*
X112162103Y-90425216D01*
X112163345Y-90425549D01*
X112180229Y-90436831D01*
X112180771Y-90436020D01*
X112182565Y-90435135D01*
X112183753Y-90435627D01*
X112200575Y-90450380D01*
X112275678Y-90465318D01*
X112348253Y-90440680D01*
X112352629Y-90436304D01*
X112352932Y-90436055D01*
X112368655Y-90425549D01*
X112370651Y-90425418D01*
X112371762Y-90427081D01*
X112371429Y-90428323D01*
X112351449Y-90458227D01*
X112343000Y-90500699D01*
X112343000Y-91200301D01*
X112351449Y-91242773D01*
X112375392Y-91278608D01*
X112411227Y-91302551D01*
X112453699Y-91311000D01*
X112578301Y-91311000D01*
X112620773Y-91302551D01*
X112656608Y-91278608D01*
X112680551Y-91242773D01*
X112689000Y-91200301D01*
X112689000Y-90500699D01*
X112680551Y-90458227D01*
X112660571Y-90428323D01*
X112660440Y-90426327D01*
X112662103Y-90425216D01*
X112663345Y-90425549D01*
X112680229Y-90436831D01*
X112680771Y-90436020D01*
X112682565Y-90435135D01*
X112683753Y-90435627D01*
X112700575Y-90450380D01*
X112775678Y-90465318D01*
X112848253Y-90440680D01*
X112852629Y-90436304D01*
X112852932Y-90436055D01*
X112868655Y-90425549D01*
X112870651Y-90425418D01*
X112871762Y-90427081D01*
X112871429Y-90428323D01*
X112851449Y-90458227D01*
X112843000Y-90500699D01*
X112843000Y-91200301D01*
X112851449Y-91242773D01*
X112875392Y-91278608D01*
X112911227Y-91302551D01*
X112953699Y-91311000D01*
X113078301Y-91311000D01*
X113120773Y-91302551D01*
X113156608Y-91278608D01*
X113180551Y-91242773D01*
X113189000Y-91200301D01*
X113189000Y-90500699D01*
X113180551Y-90458227D01*
X113160571Y-90428323D01*
X113160440Y-90426327D01*
X113162103Y-90425216D01*
X113163345Y-90425549D01*
G37*
G36*
X89943592Y-91289326D02*
G01*
X89943692Y-91290853D01*
X89922485Y-91353325D01*
X89937019Y-91426387D01*
X89936376Y-91428281D01*
X89934414Y-91428671D01*
X89933946Y-91428440D01*
X89919355Y-91418691D01*
X89900801Y-91415000D01*
X88451199Y-91415000D01*
X88432645Y-91418691D01*
X88417087Y-91429087D01*
X88411865Y-91436901D01*
X88410071Y-91437786D01*
X88408408Y-91436674D01*
X88408308Y-91435147D01*
X88429515Y-91372675D01*
X88414981Y-91299613D01*
X88415624Y-91297719D01*
X88417586Y-91297329D01*
X88418054Y-91297560D01*
X88432645Y-91307309D01*
X88451199Y-91311000D01*
X89900801Y-91311000D01*
X89919355Y-91307309D01*
X89934913Y-91296913D01*
X89940135Y-91289099D01*
X89941929Y-91288214D01*
X89943592Y-91289326D01*
G37*
G36*
X135059849Y-91253818D02*
G01*
X135093944Y-91276600D01*
X135141199Y-91286000D01*
X136465801Y-91286000D01*
X136513056Y-91276600D01*
X136547402Y-91253650D01*
X136549398Y-91253519D01*
X136550509Y-91255182D01*
X136550407Y-91255956D01*
X136525841Y-91328325D01*
X136540821Y-91403630D01*
X136549994Y-91419519D01*
X136549994Y-91421519D01*
X136548262Y-91422519D01*
X136547151Y-91422182D01*
X136513056Y-91399400D01*
X136465801Y-91390000D01*
X135141199Y-91390000D01*
X135093944Y-91399400D01*
X135059598Y-91422350D01*
X135057602Y-91422481D01*
X135056491Y-91420818D01*
X135056593Y-91420044D01*
X135081159Y-91347675D01*
X135066179Y-91272370D01*
X135057006Y-91256481D01*
X135057006Y-91254481D01*
X135058738Y-91253481D01*
X135059849Y-91253818D01*
G37*
G36*
X126734849Y-91253818D02*
G01*
X126768944Y-91276600D01*
X126816199Y-91286000D01*
X128140801Y-91286000D01*
X128188056Y-91276600D01*
X128222402Y-91253650D01*
X128224398Y-91253519D01*
X128225509Y-91255182D01*
X128225407Y-91255956D01*
X128200841Y-91328325D01*
X128215821Y-91403630D01*
X128224994Y-91419519D01*
X128224994Y-91421519D01*
X128223262Y-91422519D01*
X128222151Y-91422182D01*
X128188056Y-91399400D01*
X128140801Y-91390000D01*
X126816199Y-91390000D01*
X126768944Y-91399400D01*
X126734598Y-91422350D01*
X126732602Y-91422481D01*
X126731491Y-91420818D01*
X126731593Y-91420044D01*
X126756159Y-91347675D01*
X126741179Y-91272370D01*
X126732006Y-91256481D01*
X126732006Y-91254481D01*
X126733738Y-91253481D01*
X126734849Y-91253818D01*
G37*
G36*
X89943592Y-90789326D02*
G01*
X89943692Y-90790853D01*
X89922485Y-90853325D01*
X89937019Y-90926387D01*
X89936376Y-90928281D01*
X89934414Y-90928671D01*
X89933946Y-90928440D01*
X89919355Y-90918691D01*
X89900801Y-90915000D01*
X88451199Y-90915000D01*
X88432645Y-90918691D01*
X88417087Y-90929087D01*
X88411865Y-90936901D01*
X88410071Y-90937786D01*
X88408408Y-90936674D01*
X88408308Y-90935147D01*
X88429515Y-90872675D01*
X88414981Y-90799613D01*
X88415624Y-90797719D01*
X88417586Y-90797329D01*
X88418054Y-90797560D01*
X88432645Y-90807309D01*
X88451199Y-90811000D01*
X89900801Y-90811000D01*
X89919355Y-90807309D01*
X89934913Y-90796913D01*
X89940135Y-90789099D01*
X89941929Y-90788214D01*
X89943592Y-90789326D01*
G37*
G36*
X126734849Y-90753818D02*
G01*
X126768944Y-90776600D01*
X126816199Y-90786000D01*
X128140801Y-90786000D01*
X128188056Y-90776600D01*
X128222402Y-90753650D01*
X128224398Y-90753519D01*
X128225509Y-90755182D01*
X128225407Y-90755956D01*
X128200841Y-90828325D01*
X128215821Y-90903630D01*
X128224994Y-90919519D01*
X128224994Y-90921519D01*
X128223262Y-90922519D01*
X128222151Y-90922182D01*
X128188056Y-90899400D01*
X128140801Y-90890000D01*
X126816199Y-90890000D01*
X126768944Y-90899400D01*
X126734598Y-90922350D01*
X126732602Y-90922481D01*
X126731491Y-90920818D01*
X126731593Y-90920044D01*
X126756159Y-90847675D01*
X126741179Y-90772370D01*
X126732006Y-90756481D01*
X126732006Y-90754481D01*
X126733738Y-90753481D01*
X126734849Y-90753818D01*
G37*
G36*
X135059849Y-90753818D02*
G01*
X135093944Y-90776600D01*
X135141199Y-90786000D01*
X136465801Y-90786000D01*
X136513056Y-90776600D01*
X136547402Y-90753650D01*
X136549398Y-90753519D01*
X136550509Y-90755182D01*
X136550407Y-90755956D01*
X136525841Y-90828325D01*
X136540821Y-90903630D01*
X136549994Y-90919519D01*
X136549994Y-90921519D01*
X136548262Y-90922519D01*
X136547151Y-90922182D01*
X136513056Y-90899400D01*
X136465801Y-90890000D01*
X135141199Y-90890000D01*
X135093944Y-90899400D01*
X135059598Y-90922350D01*
X135057602Y-90922481D01*
X135056491Y-90920818D01*
X135056593Y-90920044D01*
X135081159Y-90847675D01*
X135066179Y-90772370D01*
X135057006Y-90756481D01*
X135057006Y-90754481D01*
X135058738Y-90753481D01*
X135059849Y-90753818D01*
G37*
G36*
X97014971Y-90274753D02*
G01*
X97015361Y-90276715D01*
X97014348Y-90277867D01*
X97009869Y-90280066D01*
X96952004Y-90330634D01*
X96927264Y-90403103D01*
X96942072Y-90478229D01*
X96992594Y-90536042D01*
X97009923Y-90546026D01*
X97014151Y-90548092D01*
X97015268Y-90549751D01*
X97014390Y-90551548D01*
X97012883Y-90551851D01*
X96953301Y-90540000D01*
X95928699Y-90540000D01*
X95868923Y-90551890D01*
X95867029Y-90551247D01*
X95866639Y-90549285D01*
X95867652Y-90548133D01*
X95872131Y-90545934D01*
X95929996Y-90495366D01*
X95954736Y-90422897D01*
X95939928Y-90347771D01*
X95889406Y-90289958D01*
X95872077Y-90279974D01*
X95867849Y-90277908D01*
X95866732Y-90276249D01*
X95867610Y-90274452D01*
X95869117Y-90274149D01*
X95928699Y-90286000D01*
X96953301Y-90286000D01*
X97013077Y-90274110D01*
X97014971Y-90274753D01*
G37*
G36*
X99289971Y-90274753D02*
G01*
X99290361Y-90276715D01*
X99289348Y-90277867D01*
X99284869Y-90280066D01*
X99227004Y-90330634D01*
X99202264Y-90403103D01*
X99217072Y-90478229D01*
X99267594Y-90536042D01*
X99284923Y-90546026D01*
X99289151Y-90548092D01*
X99290268Y-90549751D01*
X99289390Y-90551548D01*
X99287883Y-90551851D01*
X99228301Y-90540000D01*
X98203699Y-90540000D01*
X98143923Y-90551890D01*
X98142029Y-90551247D01*
X98141639Y-90549285D01*
X98142652Y-90548133D01*
X98147131Y-90545934D01*
X98204996Y-90495366D01*
X98229736Y-90422897D01*
X98214928Y-90347771D01*
X98164406Y-90289958D01*
X98147077Y-90279974D01*
X98142849Y-90277908D01*
X98141732Y-90276249D01*
X98142610Y-90274452D01*
X98144117Y-90274149D01*
X98203699Y-90286000D01*
X99228301Y-90286000D01*
X99288077Y-90274110D01*
X99289971Y-90274753D01*
G37*
G36*
X89943592Y-90289326D02*
G01*
X89943692Y-90290853D01*
X89922485Y-90353325D01*
X89937019Y-90426387D01*
X89936376Y-90428281D01*
X89934414Y-90428671D01*
X89933946Y-90428440D01*
X89919355Y-90418691D01*
X89900801Y-90415000D01*
X88451199Y-90415000D01*
X88432645Y-90418691D01*
X88417087Y-90429087D01*
X88411865Y-90436901D01*
X88410071Y-90437786D01*
X88408408Y-90436674D01*
X88408308Y-90435147D01*
X88429515Y-90372675D01*
X88414981Y-90299613D01*
X88415624Y-90297719D01*
X88417586Y-90297329D01*
X88418054Y-90297560D01*
X88432645Y-90307309D01*
X88451199Y-90311000D01*
X89900801Y-90311000D01*
X89919355Y-90307309D01*
X89934913Y-90296913D01*
X89940135Y-90289099D01*
X89941929Y-90288214D01*
X89943592Y-90289326D01*
G37*
G36*
X135059849Y-90253818D02*
G01*
X135093944Y-90276600D01*
X135141199Y-90286000D01*
X136465801Y-90286000D01*
X136513056Y-90276600D01*
X136547402Y-90253650D01*
X136549398Y-90253519D01*
X136550509Y-90255182D01*
X136550407Y-90255956D01*
X136525841Y-90328325D01*
X136540821Y-90403630D01*
X136549994Y-90419519D01*
X136549994Y-90421519D01*
X136548262Y-90422519D01*
X136547151Y-90422182D01*
X136513056Y-90399400D01*
X136465801Y-90390000D01*
X135141199Y-90390000D01*
X135093944Y-90399400D01*
X135059598Y-90422350D01*
X135057602Y-90422481D01*
X135056491Y-90420818D01*
X135056593Y-90420044D01*
X135081159Y-90347675D01*
X135066179Y-90272370D01*
X135057006Y-90256481D01*
X135057006Y-90254481D01*
X135058738Y-90253481D01*
X135059849Y-90253818D01*
G37*
G36*
X126734849Y-90253818D02*
G01*
X126768944Y-90276600D01*
X126816199Y-90286000D01*
X128140801Y-90286000D01*
X128188056Y-90276600D01*
X128222402Y-90253650D01*
X128224398Y-90253519D01*
X128225509Y-90255182D01*
X128225407Y-90255956D01*
X128200841Y-90328325D01*
X128215821Y-90403630D01*
X128224994Y-90419519D01*
X128224994Y-90421519D01*
X128223262Y-90422519D01*
X128222151Y-90422182D01*
X128188056Y-90399400D01*
X128140801Y-90390000D01*
X126816199Y-90390000D01*
X126768944Y-90399400D01*
X126734598Y-90422350D01*
X126732602Y-90422481D01*
X126731491Y-90420818D01*
X126731593Y-90420044D01*
X126756159Y-90347675D01*
X126741179Y-90272370D01*
X126732006Y-90256481D01*
X126732006Y-90254481D01*
X126733738Y-90253481D01*
X126734849Y-90253818D01*
G37*
G36*
X89943592Y-89789326D02*
G01*
X89943692Y-89790853D01*
X89922485Y-89853325D01*
X89937019Y-89926387D01*
X89936376Y-89928281D01*
X89934414Y-89928671D01*
X89933946Y-89928440D01*
X89919355Y-89918691D01*
X89900801Y-89915000D01*
X88451199Y-89915000D01*
X88432645Y-89918691D01*
X88417087Y-89929087D01*
X88411865Y-89936901D01*
X88410071Y-89937786D01*
X88408408Y-89936674D01*
X88408308Y-89935147D01*
X88429515Y-89872675D01*
X88414981Y-89799613D01*
X88415624Y-89797719D01*
X88417586Y-89797329D01*
X88418054Y-89797560D01*
X88432645Y-89807309D01*
X88451199Y-89811000D01*
X89900801Y-89811000D01*
X89919355Y-89807309D01*
X89934913Y-89796913D01*
X89940135Y-89789099D01*
X89941929Y-89788214D01*
X89943592Y-89789326D01*
G37*
G36*
X97014971Y-89324753D02*
G01*
X97015361Y-89326715D01*
X97014348Y-89327867D01*
X97009869Y-89330066D01*
X96952004Y-89380634D01*
X96927264Y-89453103D01*
X96942072Y-89528229D01*
X96992594Y-89586042D01*
X97009923Y-89596026D01*
X97014151Y-89598092D01*
X97015268Y-89599751D01*
X97014390Y-89601548D01*
X97012883Y-89601851D01*
X96953301Y-89590000D01*
X95928699Y-89590000D01*
X95868923Y-89601890D01*
X95867029Y-89601247D01*
X95866639Y-89599285D01*
X95867652Y-89598133D01*
X95872131Y-89595934D01*
X95929996Y-89545366D01*
X95954736Y-89472897D01*
X95939928Y-89397771D01*
X95889406Y-89339958D01*
X95872077Y-89329974D01*
X95867849Y-89327908D01*
X95866732Y-89326249D01*
X95867610Y-89324452D01*
X95869117Y-89324149D01*
X95928699Y-89336000D01*
X96953301Y-89336000D01*
X97013077Y-89324110D01*
X97014971Y-89324753D01*
G37*
G36*
X99289971Y-89324753D02*
G01*
X99290361Y-89326715D01*
X99289348Y-89327867D01*
X99284869Y-89330066D01*
X99227004Y-89380634D01*
X99202264Y-89453103D01*
X99217072Y-89528229D01*
X99267594Y-89586042D01*
X99284923Y-89596026D01*
X99289151Y-89598092D01*
X99290268Y-89599751D01*
X99289390Y-89601548D01*
X99287883Y-89601851D01*
X99228301Y-89590000D01*
X98203699Y-89590000D01*
X98143923Y-89601890D01*
X98142029Y-89601247D01*
X98141639Y-89599285D01*
X98142652Y-89598133D01*
X98147131Y-89595934D01*
X98204996Y-89545366D01*
X98229736Y-89472897D01*
X98214928Y-89397771D01*
X98164406Y-89339958D01*
X98147077Y-89329974D01*
X98142849Y-89327908D01*
X98141732Y-89326249D01*
X98142610Y-89324452D01*
X98144117Y-89324149D01*
X98203699Y-89336000D01*
X99228301Y-89336000D01*
X99288077Y-89324110D01*
X99289971Y-89324753D01*
G37*
G36*
X89943592Y-89289326D02*
G01*
X89943692Y-89290853D01*
X89922485Y-89353325D01*
X89937019Y-89426387D01*
X89936376Y-89428281D01*
X89934414Y-89428671D01*
X89933946Y-89428440D01*
X89919355Y-89418691D01*
X89900801Y-89415000D01*
X88451199Y-89415000D01*
X88432645Y-89418691D01*
X88417087Y-89429087D01*
X88411865Y-89436901D01*
X88410071Y-89437786D01*
X88408408Y-89436674D01*
X88408308Y-89435147D01*
X88429515Y-89372675D01*
X88414981Y-89299613D01*
X88415624Y-89297719D01*
X88417586Y-89297329D01*
X88418054Y-89297560D01*
X88432645Y-89307309D01*
X88451199Y-89311000D01*
X89900801Y-89311000D01*
X89919355Y-89307309D01*
X89934913Y-89296913D01*
X89940135Y-89289099D01*
X89941929Y-89288214D01*
X89943592Y-89289326D01*
G37*
G36*
X129058956Y-87928593D02*
G01*
X129131325Y-87953159D01*
X129206630Y-87938179D01*
X129222519Y-87929006D01*
X129224519Y-87929006D01*
X129225519Y-87930738D01*
X129225182Y-87931849D01*
X129202400Y-87965944D01*
X129193000Y-88013199D01*
X129193000Y-89337801D01*
X129202400Y-89385056D01*
X129225350Y-89419402D01*
X129225481Y-89421398D01*
X129223818Y-89422509D01*
X129223044Y-89422407D01*
X129150675Y-89397841D01*
X129075370Y-89412821D01*
X129059481Y-89421994D01*
X129057481Y-89421994D01*
X129056481Y-89420262D01*
X129056818Y-89419151D01*
X129079600Y-89385056D01*
X129089000Y-89337801D01*
X129089000Y-88013199D01*
X129079600Y-87965944D01*
X129056650Y-87931598D01*
X129056519Y-87929602D01*
X129058182Y-87928491D01*
X129058956Y-87928593D01*
G37*
G36*
X130058956Y-87928593D02*
G01*
X130131325Y-87953159D01*
X130206630Y-87938179D01*
X130222519Y-87929006D01*
X130224519Y-87929006D01*
X130225519Y-87930738D01*
X130225182Y-87931849D01*
X130202400Y-87965944D01*
X130193000Y-88013199D01*
X130193000Y-89337801D01*
X130202400Y-89385056D01*
X130225350Y-89419402D01*
X130225481Y-89421398D01*
X130223818Y-89422509D01*
X130223044Y-89422407D01*
X130150675Y-89397841D01*
X130075370Y-89412821D01*
X130059481Y-89421994D01*
X130057481Y-89421994D01*
X130056481Y-89420262D01*
X130056818Y-89419151D01*
X130079600Y-89385056D01*
X130089000Y-89337801D01*
X130089000Y-88013199D01*
X130079600Y-87965944D01*
X130056650Y-87931598D01*
X130056519Y-87929602D01*
X130058182Y-87928491D01*
X130058956Y-87928593D01*
G37*
G36*
X132058956Y-87928593D02*
G01*
X132131325Y-87953159D01*
X132206630Y-87938179D01*
X132222519Y-87929006D01*
X132224519Y-87929006D01*
X132225519Y-87930738D01*
X132225182Y-87931849D01*
X132202400Y-87965944D01*
X132193000Y-88013199D01*
X132193000Y-89337801D01*
X132202400Y-89385056D01*
X132225350Y-89419402D01*
X132225481Y-89421398D01*
X132223818Y-89422509D01*
X132223044Y-89422407D01*
X132150675Y-89397841D01*
X132075370Y-89412821D01*
X132059481Y-89421994D01*
X132057481Y-89421994D01*
X132056481Y-89420262D01*
X132056818Y-89419151D01*
X132079600Y-89385056D01*
X132089000Y-89337801D01*
X132089000Y-88013199D01*
X132079600Y-87965944D01*
X132056650Y-87931598D01*
X132056519Y-87929602D01*
X132058182Y-87928491D01*
X132058956Y-87928593D01*
G37*
G36*
X131058956Y-87928593D02*
G01*
X131131325Y-87953159D01*
X131206630Y-87938179D01*
X131222519Y-87929006D01*
X131224519Y-87929006D01*
X131225519Y-87930738D01*
X131225182Y-87931849D01*
X131202400Y-87965944D01*
X131193000Y-88013199D01*
X131193000Y-89337801D01*
X131202400Y-89385056D01*
X131225350Y-89419402D01*
X131225481Y-89421398D01*
X131223818Y-89422509D01*
X131223044Y-89422407D01*
X131150675Y-89397841D01*
X131075370Y-89412821D01*
X131059481Y-89421994D01*
X131057481Y-89421994D01*
X131056481Y-89420262D01*
X131056818Y-89419151D01*
X131079600Y-89385056D01*
X131089000Y-89337801D01*
X131089000Y-88013199D01*
X131079600Y-87965944D01*
X131056650Y-87931598D01*
X131056519Y-87929602D01*
X131058182Y-87928491D01*
X131058956Y-87928593D01*
G37*
G36*
X130558956Y-87928593D02*
G01*
X130631325Y-87953159D01*
X130706630Y-87938179D01*
X130722519Y-87929006D01*
X130724519Y-87929006D01*
X130725519Y-87930738D01*
X130725182Y-87931849D01*
X130702400Y-87965944D01*
X130693000Y-88013199D01*
X130693000Y-89337801D01*
X130702400Y-89385056D01*
X130725350Y-89419402D01*
X130725481Y-89421398D01*
X130723818Y-89422509D01*
X130723044Y-89422407D01*
X130650675Y-89397841D01*
X130575370Y-89412821D01*
X130559481Y-89421994D01*
X130557481Y-89421994D01*
X130556481Y-89420262D01*
X130556818Y-89419151D01*
X130579600Y-89385056D01*
X130589000Y-89337801D01*
X130589000Y-88013199D01*
X130579600Y-87965944D01*
X130556650Y-87931598D01*
X130556519Y-87929602D01*
X130558182Y-87928491D01*
X130558956Y-87928593D01*
G37*
G36*
X129558956Y-87928593D02*
G01*
X129631325Y-87953159D01*
X129706630Y-87938179D01*
X129722519Y-87929006D01*
X129724519Y-87929006D01*
X129725519Y-87930738D01*
X129725182Y-87931849D01*
X129702400Y-87965944D01*
X129693000Y-88013199D01*
X129693000Y-89337801D01*
X129702400Y-89385056D01*
X129725350Y-89419402D01*
X129725481Y-89421398D01*
X129723818Y-89422509D01*
X129723044Y-89422407D01*
X129650675Y-89397841D01*
X129575370Y-89412821D01*
X129559481Y-89421994D01*
X129557481Y-89421994D01*
X129556481Y-89420262D01*
X129556818Y-89419151D01*
X129579600Y-89385056D01*
X129589000Y-89337801D01*
X129589000Y-88013199D01*
X129579600Y-87965944D01*
X129556650Y-87931598D01*
X129556519Y-87929602D01*
X129558182Y-87928491D01*
X129558956Y-87928593D01*
G37*
G36*
X134058956Y-87928593D02*
G01*
X134131325Y-87953159D01*
X134206630Y-87938179D01*
X134222519Y-87929006D01*
X134224519Y-87929006D01*
X134225519Y-87930738D01*
X134225182Y-87931849D01*
X134202400Y-87965944D01*
X134193000Y-88013199D01*
X134193000Y-89337801D01*
X134202400Y-89385056D01*
X134225350Y-89419402D01*
X134225481Y-89421398D01*
X134223818Y-89422509D01*
X134223044Y-89422407D01*
X134150675Y-89397841D01*
X134075370Y-89412821D01*
X134059481Y-89421994D01*
X134057481Y-89421994D01*
X134056481Y-89420262D01*
X134056818Y-89419151D01*
X134079600Y-89385056D01*
X134089000Y-89337801D01*
X134089000Y-88013199D01*
X134079600Y-87965944D01*
X134056650Y-87931598D01*
X134056519Y-87929602D01*
X134058182Y-87928491D01*
X134058956Y-87928593D01*
G37*
G36*
X133558956Y-87928593D02*
G01*
X133631325Y-87953159D01*
X133706630Y-87938179D01*
X133722519Y-87929006D01*
X133724519Y-87929006D01*
X133725519Y-87930738D01*
X133725182Y-87931849D01*
X133702400Y-87965944D01*
X133693000Y-88013199D01*
X133693000Y-89337801D01*
X133702400Y-89385056D01*
X133725350Y-89419402D01*
X133725481Y-89421398D01*
X133723818Y-89422509D01*
X133723044Y-89422407D01*
X133650675Y-89397841D01*
X133575370Y-89412821D01*
X133559481Y-89421994D01*
X133557481Y-89421994D01*
X133556481Y-89420262D01*
X133556818Y-89419151D01*
X133579600Y-89385056D01*
X133589000Y-89337801D01*
X133589000Y-88013199D01*
X133579600Y-87965944D01*
X133556650Y-87931598D01*
X133556519Y-87929602D01*
X133558182Y-87928491D01*
X133558956Y-87928593D01*
G37*
G36*
X133058956Y-87928593D02*
G01*
X133131325Y-87953159D01*
X133206630Y-87938179D01*
X133222519Y-87929006D01*
X133224519Y-87929006D01*
X133225519Y-87930738D01*
X133225182Y-87931849D01*
X133202400Y-87965944D01*
X133193000Y-88013199D01*
X133193000Y-89337801D01*
X133202400Y-89385056D01*
X133225350Y-89419402D01*
X133225481Y-89421398D01*
X133223818Y-89422509D01*
X133223044Y-89422407D01*
X133150675Y-89397841D01*
X133075370Y-89412821D01*
X133059481Y-89421994D01*
X133057481Y-89421994D01*
X133056481Y-89420262D01*
X133056818Y-89419151D01*
X133079600Y-89385056D01*
X133089000Y-89337801D01*
X133089000Y-88013199D01*
X133079600Y-87965944D01*
X133056650Y-87931598D01*
X133056519Y-87929602D01*
X133058182Y-87928491D01*
X133058956Y-87928593D01*
G37*
G36*
X131558956Y-87928593D02*
G01*
X131631325Y-87953159D01*
X131706630Y-87938179D01*
X131722519Y-87929006D01*
X131724519Y-87929006D01*
X131725519Y-87930738D01*
X131725182Y-87931849D01*
X131702400Y-87965944D01*
X131693000Y-88013199D01*
X131693000Y-89337801D01*
X131702400Y-89385056D01*
X131725350Y-89419402D01*
X131725481Y-89421398D01*
X131723818Y-89422509D01*
X131723044Y-89422407D01*
X131650675Y-89397841D01*
X131575370Y-89412821D01*
X131559481Y-89421994D01*
X131557481Y-89421994D01*
X131556481Y-89420262D01*
X131556818Y-89419151D01*
X131579600Y-89385056D01*
X131589000Y-89337801D01*
X131589000Y-88013199D01*
X131579600Y-87965944D01*
X131556650Y-87931598D01*
X131556519Y-87929602D01*
X131558182Y-87928491D01*
X131558956Y-87928593D01*
G37*
G36*
X132558956Y-87928593D02*
G01*
X132631325Y-87953159D01*
X132706630Y-87938179D01*
X132722519Y-87929006D01*
X132724519Y-87929006D01*
X132725519Y-87930738D01*
X132725182Y-87931849D01*
X132702400Y-87965944D01*
X132693000Y-88013199D01*
X132693000Y-89337801D01*
X132702400Y-89385056D01*
X132725350Y-89419402D01*
X132725481Y-89421398D01*
X132723818Y-89422509D01*
X132723044Y-89422407D01*
X132650675Y-89397841D01*
X132575370Y-89412821D01*
X132559481Y-89421994D01*
X132557481Y-89421994D01*
X132556481Y-89420262D01*
X132556818Y-89419151D01*
X132579600Y-89385056D01*
X132589000Y-89337801D01*
X132589000Y-88013199D01*
X132579600Y-87965944D01*
X132556650Y-87931598D01*
X132556519Y-87929602D01*
X132558182Y-87928491D01*
X132558956Y-87928593D01*
G37*
G36*
X89943592Y-88789326D02*
G01*
X89943692Y-88790853D01*
X89922485Y-88853325D01*
X89937019Y-88926387D01*
X89936376Y-88928281D01*
X89934414Y-88928671D01*
X89933946Y-88928440D01*
X89919355Y-88918691D01*
X89900801Y-88915000D01*
X88451199Y-88915000D01*
X88432645Y-88918691D01*
X88417087Y-88929087D01*
X88411865Y-88936901D01*
X88410071Y-88937786D01*
X88408408Y-88936674D01*
X88408308Y-88935147D01*
X88429515Y-88872675D01*
X88414981Y-88799613D01*
X88415624Y-88797719D01*
X88417586Y-88797329D01*
X88418054Y-88797560D01*
X88432645Y-88807309D01*
X88451199Y-88811000D01*
X89900801Y-88811000D01*
X89919355Y-88807309D01*
X89934913Y-88796913D01*
X89940135Y-88789099D01*
X89941929Y-88788214D01*
X89943592Y-88789326D01*
G37*
G36*
X89943592Y-88289326D02*
G01*
X89943692Y-88290853D01*
X89922485Y-88353325D01*
X89937019Y-88426387D01*
X89936376Y-88428281D01*
X89934414Y-88428671D01*
X89933946Y-88428440D01*
X89919355Y-88418691D01*
X89900801Y-88415000D01*
X88451199Y-88415000D01*
X88432645Y-88418691D01*
X88417087Y-88429087D01*
X88411865Y-88436901D01*
X88410071Y-88437786D01*
X88408408Y-88436674D01*
X88408308Y-88435147D01*
X88429515Y-88372675D01*
X88414981Y-88299613D01*
X88415624Y-88297719D01*
X88417586Y-88297329D01*
X88418054Y-88297560D01*
X88432645Y-88307309D01*
X88451199Y-88311000D01*
X89900801Y-88311000D01*
X89919355Y-88307309D01*
X89934913Y-88296913D01*
X89940135Y-88289099D01*
X89941929Y-88288214D01*
X89943592Y-88289326D01*
G37*
G36*
X88423016Y-87750875D02*
G01*
X88432645Y-87757309D01*
X88451199Y-87761000D01*
X89900801Y-87761000D01*
X89919355Y-87757309D01*
X89928984Y-87750875D01*
X89930980Y-87750744D01*
X89932091Y-87752407D01*
X89931758Y-87753649D01*
X89930483Y-87755558D01*
X89905781Y-87828326D01*
X89920762Y-87903631D01*
X89930372Y-87920277D01*
X89931758Y-87922351D01*
X89931889Y-87924347D01*
X89930226Y-87925458D01*
X89928984Y-87925125D01*
X89919355Y-87918691D01*
X89900801Y-87915000D01*
X88451199Y-87915000D01*
X88432645Y-87918691D01*
X88423016Y-87925125D01*
X88421020Y-87925256D01*
X88419909Y-87923593D01*
X88420242Y-87922351D01*
X88421517Y-87920442D01*
X88446219Y-87847674D01*
X88431238Y-87772369D01*
X88421628Y-87755723D01*
X88420242Y-87753649D01*
X88420111Y-87751653D01*
X88421774Y-87750542D01*
X88423016Y-87750875D01*
G37*
G36*
X89943592Y-86939326D02*
G01*
X89943692Y-86940853D01*
X89922485Y-87003325D01*
X89937019Y-87076387D01*
X89936376Y-87078281D01*
X89934414Y-87078671D01*
X89933946Y-87078440D01*
X89919355Y-87068691D01*
X89900801Y-87065000D01*
X88451199Y-87065000D01*
X88432645Y-87068691D01*
X88417087Y-87079087D01*
X88411865Y-87086901D01*
X88410071Y-87087786D01*
X88408408Y-87086674D01*
X88408308Y-87085147D01*
X88429515Y-87022675D01*
X88414981Y-86949613D01*
X88415624Y-86947719D01*
X88417586Y-86947329D01*
X88418054Y-86947560D01*
X88432645Y-86957309D01*
X88451199Y-86961000D01*
X89900801Y-86961000D01*
X89919355Y-86957309D01*
X89934913Y-86946913D01*
X89940135Y-86939099D01*
X89941929Y-86938214D01*
X89943592Y-86939326D01*
G37*
G36*
X89120987Y-85994433D02*
G01*
X89120533Y-85996045D01*
X89075035Y-86049316D01*
X89061080Y-86124609D01*
X89086641Y-86196788D01*
X89144900Y-86246546D01*
X89208994Y-86261049D01*
X89210463Y-86262407D01*
X89210022Y-86264358D01*
X89208553Y-86265000D01*
X88451199Y-86265000D01*
X88432645Y-86268691D01*
X88417087Y-86279087D01*
X88410653Y-86288715D01*
X88408859Y-86289600D01*
X88407196Y-86288489D01*
X88407028Y-86287214D01*
X88410029Y-86272130D01*
X88405003Y-86195448D01*
X88362461Y-86131781D01*
X88293628Y-86097836D01*
X88264729Y-86094990D01*
X88263103Y-86093825D01*
X88263299Y-86091835D01*
X88264925Y-86091000D01*
X88810868Y-86091000D01*
X88958360Y-86070796D01*
X89094870Y-86011723D01*
X89117753Y-85993192D01*
X89119729Y-85992879D01*
X89120987Y-85994433D01*
G37*
G36*
X100942932Y-82739955D02*
G01*
X100962889Y-82814435D01*
X101017033Y-82868578D01*
X101090998Y-82888397D01*
X101165008Y-82868566D01*
X101208362Y-82828909D01*
X101210315Y-82828478D01*
X101211665Y-82829954D01*
X101211299Y-82831603D01*
X101186432Y-82864010D01*
X101131690Y-82996172D01*
X101113017Y-83138000D01*
X101131690Y-83279828D01*
X101186432Y-83411990D01*
X101214516Y-83448589D01*
X101214777Y-83450572D01*
X101213190Y-83451790D01*
X101211614Y-83451314D01*
X101156080Y-83402868D01*
X101080937Y-83388125D01*
X101008493Y-83412928D01*
X100958131Y-83470659D01*
X100942948Y-83536163D01*
X100941583Y-83537624D01*
X100939635Y-83537173D01*
X100939000Y-83535711D01*
X100939000Y-82740473D01*
X100940000Y-82738741D01*
X100942000Y-82738741D01*
X100942932Y-82739955D01*
G37*
G36*
X103721427Y-82874406D02*
G01*
X103721461Y-82876013D01*
X103671690Y-82996172D01*
X103653017Y-83138000D01*
X103671690Y-83279828D01*
X103719186Y-83394494D01*
X103718925Y-83396477D01*
X103717077Y-83397242D01*
X103715678Y-83396375D01*
X103710262Y-83388316D01*
X103710044Y-83387887D01*
X103704427Y-83372536D01*
X103660240Y-83309663D01*
X103590785Y-83277423D01*
X103514514Y-83284228D01*
X103451775Y-83328322D01*
X103428247Y-83367633D01*
X103426500Y-83368606D01*
X103424783Y-83367579D01*
X103424683Y-83365841D01*
X103460310Y-83279828D01*
X103478983Y-83138000D01*
X103460310Y-82996172D01*
X103411676Y-82878757D01*
X103411937Y-82876774D01*
X103413785Y-82876009D01*
X103415172Y-82876859D01*
X103419092Y-82882563D01*
X103419315Y-82882989D01*
X103427679Y-82905125D01*
X103472521Y-82967528D01*
X103542312Y-82999040D01*
X103618506Y-82991433D01*
X103680779Y-82946686D01*
X103704165Y-82906665D01*
X103715384Y-82877888D01*
X103715611Y-82877464D01*
X103717977Y-82874098D01*
X103719791Y-82873256D01*
X103721427Y-82874406D01*
G37*
G36*
X104991427Y-82874406D02*
G01*
X104991461Y-82876013D01*
X104941690Y-82996172D01*
X104923017Y-83138000D01*
X104941690Y-83279828D01*
X104989186Y-83394494D01*
X104988925Y-83396477D01*
X104987077Y-83397242D01*
X104985678Y-83396375D01*
X104980262Y-83388316D01*
X104980044Y-83387887D01*
X104974427Y-83372536D01*
X104930240Y-83309663D01*
X104860785Y-83277423D01*
X104784514Y-83284228D01*
X104721775Y-83328322D01*
X104698247Y-83367633D01*
X104696500Y-83368606D01*
X104694783Y-83367579D01*
X104694683Y-83365841D01*
X104730310Y-83279828D01*
X104748983Y-83138000D01*
X104730310Y-82996172D01*
X104681676Y-82878757D01*
X104681937Y-82876774D01*
X104683785Y-82876009D01*
X104685172Y-82876859D01*
X104689092Y-82882563D01*
X104689315Y-82882989D01*
X104697679Y-82905125D01*
X104742521Y-82967528D01*
X104812312Y-82999040D01*
X104888506Y-82991433D01*
X104950779Y-82946686D01*
X104974165Y-82906665D01*
X104985384Y-82877888D01*
X104985611Y-82877464D01*
X104987977Y-82874098D01*
X104989791Y-82873256D01*
X104991427Y-82874406D01*
G37*
G36*
X102451427Y-82874406D02*
G01*
X102451461Y-82876013D01*
X102401690Y-82996172D01*
X102383017Y-83138000D01*
X102401690Y-83279828D01*
X102449186Y-83394494D01*
X102448925Y-83396477D01*
X102447077Y-83397242D01*
X102445678Y-83396375D01*
X102440262Y-83388316D01*
X102440044Y-83387887D01*
X102434427Y-83372536D01*
X102390240Y-83309663D01*
X102320785Y-83277423D01*
X102244514Y-83284228D01*
X102181775Y-83328322D01*
X102158247Y-83367633D01*
X102156500Y-83368606D01*
X102154783Y-83367579D01*
X102154683Y-83365841D01*
X102190310Y-83279828D01*
X102208983Y-83138000D01*
X102190310Y-82996172D01*
X102141676Y-82878757D01*
X102141937Y-82876774D01*
X102143785Y-82876009D01*
X102145172Y-82876859D01*
X102149092Y-82882563D01*
X102149315Y-82882989D01*
X102157679Y-82905125D01*
X102202521Y-82967528D01*
X102272312Y-82999040D01*
X102348506Y-82991433D01*
X102410779Y-82946686D01*
X102434165Y-82906665D01*
X102445384Y-82877888D01*
X102445611Y-82877464D01*
X102447977Y-82874098D01*
X102449791Y-82873256D01*
X102451427Y-82874406D01*
G37*
G36*
X102789172Y-82397310D02*
G01*
X102931000Y-82415983D01*
X103072828Y-82397310D01*
X103152785Y-82364191D01*
X103154768Y-82364452D01*
X103155533Y-82366300D01*
X103154449Y-82367826D01*
X103149695Y-82370217D01*
X103092322Y-82421335D01*
X103068278Y-82494037D01*
X103083806Y-82569019D01*
X103134892Y-82626357D01*
X103146749Y-82633369D01*
X103160794Y-82640806D01*
X103161857Y-82642501D01*
X103160921Y-82644268D01*
X103159093Y-82644422D01*
X103072828Y-82608690D01*
X102931000Y-82590017D01*
X102789172Y-82608690D01*
X102706000Y-82643141D01*
X102704017Y-82642880D01*
X102703252Y-82641032D01*
X102704318Y-82639516D01*
X102712750Y-82635163D01*
X102769589Y-82583444D01*
X102792869Y-82510496D01*
X102776557Y-82435679D01*
X102724866Y-82378871D01*
X102715686Y-82373442D01*
X102698189Y-82363942D01*
X102697144Y-82362236D01*
X102698098Y-82360479D01*
X102699908Y-82360336D01*
X102789172Y-82397310D01*
G37*
G36*
X104059172Y-82397310D02*
G01*
X104201000Y-82415983D01*
X104342828Y-82397310D01*
X104422785Y-82364191D01*
X104424768Y-82364452D01*
X104425533Y-82366300D01*
X104424449Y-82367826D01*
X104419695Y-82370217D01*
X104362322Y-82421335D01*
X104338278Y-82494037D01*
X104353806Y-82569019D01*
X104404892Y-82626357D01*
X104416749Y-82633369D01*
X104430794Y-82640806D01*
X104431857Y-82642501D01*
X104430921Y-82644268D01*
X104429093Y-82644422D01*
X104342828Y-82608690D01*
X104201000Y-82590017D01*
X104059172Y-82608690D01*
X103976000Y-82643141D01*
X103974017Y-82642880D01*
X103973252Y-82641032D01*
X103974318Y-82639516D01*
X103982750Y-82635163D01*
X104039589Y-82583444D01*
X104062869Y-82510496D01*
X104046557Y-82435679D01*
X103994866Y-82378871D01*
X103985686Y-82373442D01*
X103968189Y-82363942D01*
X103967144Y-82362236D01*
X103968098Y-82360479D01*
X103969908Y-82360336D01*
X104059172Y-82397310D01*
G37*
G36*
X101519172Y-82397310D02*
G01*
X101661000Y-82415983D01*
X101802828Y-82397310D01*
X101882785Y-82364191D01*
X101884768Y-82364452D01*
X101885533Y-82366300D01*
X101884449Y-82367826D01*
X101879695Y-82370217D01*
X101822322Y-82421335D01*
X101798278Y-82494037D01*
X101813806Y-82569019D01*
X101864892Y-82626357D01*
X101876749Y-82633369D01*
X101890794Y-82640806D01*
X101891857Y-82642501D01*
X101890921Y-82644268D01*
X101889093Y-82644422D01*
X101802828Y-82608690D01*
X101661000Y-82590017D01*
X101519172Y-82608690D01*
X101436000Y-82643141D01*
X101434017Y-82642880D01*
X101433252Y-82641032D01*
X101434318Y-82639516D01*
X101442750Y-82635163D01*
X101499589Y-82583444D01*
X101522869Y-82510496D01*
X101506557Y-82435679D01*
X101454866Y-82378871D01*
X101445686Y-82373442D01*
X101428189Y-82363942D01*
X101427144Y-82362236D01*
X101428098Y-82360479D01*
X101429908Y-82360336D01*
X101519172Y-82397310D01*
G37*
G36*
X105329172Y-82397310D02*
G01*
X105471000Y-82415983D01*
X105612828Y-82397310D01*
X105692785Y-82364191D01*
X105694768Y-82364452D01*
X105695533Y-82366300D01*
X105694449Y-82367826D01*
X105689695Y-82370217D01*
X105632322Y-82421335D01*
X105608278Y-82494037D01*
X105623806Y-82569019D01*
X105674892Y-82626357D01*
X105686749Y-82633369D01*
X105700794Y-82640806D01*
X105701857Y-82642501D01*
X105700921Y-82644268D01*
X105699093Y-82644422D01*
X105612828Y-82608690D01*
X105471000Y-82590017D01*
X105329172Y-82608690D01*
X105246000Y-82643141D01*
X105244017Y-82642880D01*
X105243252Y-82641032D01*
X105244318Y-82639516D01*
X105252750Y-82635163D01*
X105309589Y-82583444D01*
X105332869Y-82510496D01*
X105316557Y-82435679D01*
X105264866Y-82378871D01*
X105255686Y-82373442D01*
X105238189Y-82363942D01*
X105237144Y-82362236D01*
X105238098Y-82360479D01*
X105239908Y-82360336D01*
X105329172Y-82397310D01*
G37*
G36*
X100045590Y-82287765D02*
G01*
X100117010Y-82342568D01*
X100249172Y-82397310D01*
X100391000Y-82415983D01*
X100532828Y-82397310D01*
X100664990Y-82342568D01*
X100727542Y-82294569D01*
X100729525Y-82294308D01*
X100730743Y-82295895D01*
X100730059Y-82297677D01*
X100697727Y-82325292D01*
X100654202Y-82388621D01*
X100648194Y-82464959D01*
X100681159Y-82534072D01*
X100744345Y-82577499D01*
X100793984Y-82586029D01*
X100795521Y-82587308D01*
X100795183Y-82589279D01*
X100793645Y-82590000D01*
X99984863Y-82590000D01*
X99983131Y-82589000D01*
X99983131Y-82587000D01*
X99984345Y-82586068D01*
X100058825Y-82566111D01*
X100112968Y-82511968D01*
X100132787Y-82438002D01*
X100112939Y-82363930D01*
X100084346Y-82328429D01*
X100043026Y-82290831D01*
X100042418Y-82288926D01*
X100043764Y-82287447D01*
X100045590Y-82287765D01*
G37*
G36*
X104991427Y-81604406D02*
G01*
X104991461Y-81606013D01*
X104941690Y-81726172D01*
X104923017Y-81868000D01*
X104941690Y-82009828D01*
X104989186Y-82124494D01*
X104988925Y-82126477D01*
X104987077Y-82127242D01*
X104985678Y-82126375D01*
X104980262Y-82118316D01*
X104980044Y-82117887D01*
X104974427Y-82102536D01*
X104930240Y-82039663D01*
X104860785Y-82007423D01*
X104784514Y-82014228D01*
X104721775Y-82058322D01*
X104698247Y-82097633D01*
X104696500Y-82098606D01*
X104694783Y-82097579D01*
X104694683Y-82095841D01*
X104730310Y-82009828D01*
X104748983Y-81868000D01*
X104730310Y-81726172D01*
X104681676Y-81608757D01*
X104681937Y-81606774D01*
X104683785Y-81606009D01*
X104685172Y-81606859D01*
X104689092Y-81612563D01*
X104689315Y-81612989D01*
X104697679Y-81635125D01*
X104742521Y-81697528D01*
X104812312Y-81729040D01*
X104888506Y-81721433D01*
X104950779Y-81676686D01*
X104974165Y-81636665D01*
X104985384Y-81607888D01*
X104985611Y-81607464D01*
X104987977Y-81604098D01*
X104989791Y-81603256D01*
X104991427Y-81604406D01*
G37*
G36*
X101181427Y-81604406D02*
G01*
X101181461Y-81606013D01*
X101131690Y-81726172D01*
X101113017Y-81868000D01*
X101131690Y-82009828D01*
X101179186Y-82124494D01*
X101178925Y-82126477D01*
X101177077Y-82127242D01*
X101175678Y-82126375D01*
X101170262Y-82118316D01*
X101170044Y-82117887D01*
X101164427Y-82102536D01*
X101120240Y-82039663D01*
X101050785Y-82007423D01*
X100974514Y-82014228D01*
X100911775Y-82058322D01*
X100888247Y-82097633D01*
X100886500Y-82098606D01*
X100884783Y-82097579D01*
X100884683Y-82095841D01*
X100920310Y-82009828D01*
X100938983Y-81868000D01*
X100920310Y-81726172D01*
X100871676Y-81608757D01*
X100871937Y-81606774D01*
X100873785Y-81606009D01*
X100875172Y-81606859D01*
X100879092Y-81612563D01*
X100879315Y-81612989D01*
X100887679Y-81635125D01*
X100932521Y-81697528D01*
X101002312Y-81729040D01*
X101078506Y-81721433D01*
X101140779Y-81676686D01*
X101164165Y-81636665D01*
X101175384Y-81607888D01*
X101175611Y-81607464D01*
X101177977Y-81604098D01*
X101179791Y-81603256D01*
X101181427Y-81604406D01*
G37*
G36*
X103721427Y-81604406D02*
G01*
X103721461Y-81606013D01*
X103671690Y-81726172D01*
X103653017Y-81868000D01*
X103671690Y-82009828D01*
X103719186Y-82124494D01*
X103718925Y-82126477D01*
X103717077Y-82127242D01*
X103715678Y-82126375D01*
X103710262Y-82118316D01*
X103710044Y-82117887D01*
X103704427Y-82102536D01*
X103660240Y-82039663D01*
X103590785Y-82007423D01*
X103514514Y-82014228D01*
X103451775Y-82058322D01*
X103428247Y-82097633D01*
X103426500Y-82098606D01*
X103424783Y-82097579D01*
X103424683Y-82095841D01*
X103460310Y-82009828D01*
X103478983Y-81868000D01*
X103460310Y-81726172D01*
X103411676Y-81608757D01*
X103411937Y-81606774D01*
X103413785Y-81606009D01*
X103415172Y-81606859D01*
X103419092Y-81612563D01*
X103419315Y-81612989D01*
X103427679Y-81635125D01*
X103472521Y-81697528D01*
X103542312Y-81729040D01*
X103618506Y-81721433D01*
X103680779Y-81676686D01*
X103704165Y-81636665D01*
X103715384Y-81607888D01*
X103715611Y-81607464D01*
X103717977Y-81604098D01*
X103719791Y-81603256D01*
X103721427Y-81604406D01*
G37*
G36*
X102451427Y-81604406D02*
G01*
X102451461Y-81606013D01*
X102401690Y-81726172D01*
X102383017Y-81868000D01*
X102401690Y-82009828D01*
X102449186Y-82124494D01*
X102448925Y-82126477D01*
X102447077Y-82127242D01*
X102445678Y-82126375D01*
X102440262Y-82118316D01*
X102440044Y-82117887D01*
X102434427Y-82102536D01*
X102390240Y-82039663D01*
X102320785Y-82007423D01*
X102244514Y-82014228D01*
X102181775Y-82058322D01*
X102158247Y-82097633D01*
X102156500Y-82098606D01*
X102154783Y-82097579D01*
X102154683Y-82095841D01*
X102190310Y-82009828D01*
X102208983Y-81868000D01*
X102190310Y-81726172D01*
X102141676Y-81608757D01*
X102141937Y-81606774D01*
X102143785Y-81606009D01*
X102145172Y-81606859D01*
X102149092Y-81612563D01*
X102149315Y-81612989D01*
X102157679Y-81635125D01*
X102202521Y-81697528D01*
X102272312Y-81729040D01*
X102348506Y-81721433D01*
X102410779Y-81676686D01*
X102434165Y-81636665D01*
X102445384Y-81607888D01*
X102445611Y-81607464D01*
X102447977Y-81604098D01*
X102449791Y-81603256D01*
X102451427Y-81604406D01*
G37*
M02*
