%FSLAX45Y45*%
G04 Gerber Fmt 4.5, Leading zero omitted, Abs format (unit mm)*
G04 Created by KiCad (PCBNEW (6.0.1-0)) date 2023-01-28 23:37:01*
%MOMM*%
%LPD*%
G01*
G04 APERTURE LIST*
%TA.AperFunction,Profile*%
%ADD10C,0.200000*%
%TD*%
%ADD11C,0.200000*%
%ADD12C,0.025000*%
%ADD13C,0.030000*%
%ADD14C,0.060000*%
%ADD15C,0.065000*%
%ADD16C,0.100000*%
%ADD17C,0.310000*%
G04 APERTURE END LIST*
D10*
X8162936Y-7288295D02*
X8179864Y-7267135D01*
X15003702Y-8786365D02*
X15003702Y-12059692D01*
X8150241Y-12468064D02*
X8150241Y-7339077D01*
X8224298Y-7241744D02*
X8249689Y-7237513D01*
X14749792Y-12313602D02*
X14749792Y-12468064D01*
X14675735Y-12563281D02*
X14650344Y-12567513D01*
X14749792Y-12468064D02*
X14745560Y-12493455D01*
X8201023Y-12554817D02*
X8179864Y-12537890D01*
X8201023Y-7252324D02*
X8224298Y-7241744D01*
X8249689Y-12567513D02*
X8224298Y-12563281D01*
X8154473Y-7311570D02*
X8162936Y-7288295D01*
X15003702Y-12059692D02*
X14749792Y-12313602D01*
X8224298Y-12563281D02*
X8201023Y-12554817D01*
X14699010Y-12554817D02*
X14675735Y-12563281D01*
X14720169Y-12537890D02*
X14699010Y-12554817D01*
X8154473Y-12493455D02*
X8150241Y-12468064D01*
X8179864Y-7267135D02*
X8201023Y-7252324D01*
X8249689Y-7237513D02*
X14597446Y-7237513D01*
X8162936Y-12516731D02*
X8154473Y-12493455D01*
X14650344Y-12567513D02*
X8249689Y-12567513D01*
X14749792Y-7389859D02*
X14749792Y-8532455D01*
X8179864Y-12537890D02*
X8162936Y-12516731D01*
X14737097Y-12516731D02*
X14720169Y-12537890D01*
X14597446Y-7237513D02*
X14749792Y-7389859D01*
X14749792Y-8532455D02*
X15003702Y-8786365D01*
X14745560Y-12493455D02*
X14737097Y-12516731D01*
X8150241Y-7339077D02*
X8154473Y-7311570D01*
D11*
D12*
X8325800Y-8957600D02*
X8350800Y-8982600D01*
X8350800Y-8957600D02*
X8325800Y-8982600D01*
X8458300Y-8954800D02*
X8483300Y-8979800D01*
X8483300Y-8954800D02*
X8458300Y-8979800D01*
X8582900Y-8608200D02*
X8607900Y-8633200D01*
X8607900Y-8608200D02*
X8582900Y-8633200D01*
X8584800Y-9339800D02*
X8609800Y-9364800D01*
X8609800Y-9339800D02*
X8584800Y-9364800D01*
X8601800Y-9480100D02*
X8626800Y-9505100D01*
X8626800Y-9480100D02*
X8601800Y-9505100D01*
X8778200Y-8426100D02*
X8803200Y-8451100D01*
X8803200Y-8426100D02*
X8778200Y-8451100D01*
X8785600Y-8901100D02*
X8810600Y-8926100D01*
X8810600Y-8901100D02*
X8785600Y-8926100D01*
X8785600Y-8999600D02*
X8810600Y-9024600D01*
X8810600Y-8999600D02*
X8785600Y-9024600D01*
X8944000Y-8589300D02*
X8969000Y-8614300D01*
X8969000Y-8589300D02*
X8944000Y-8614300D01*
X8988100Y-9377800D02*
X9013100Y-9402800D01*
X9013100Y-9377800D02*
X8988100Y-9402800D01*
X9018500Y-9047800D02*
X9043500Y-9072800D01*
X9043500Y-9047800D02*
X9018500Y-9072800D01*
X9018900Y-8951700D02*
X9043900Y-8976700D01*
X9043900Y-8951700D02*
X9018900Y-8976700D01*
X9284100Y-9765800D02*
X9309100Y-9790800D01*
X9309100Y-9765800D02*
X9284100Y-9790800D01*
X9285100Y-9599400D02*
X9310100Y-9624400D01*
X9310100Y-9599400D02*
X9285100Y-9624400D01*
X9285100Y-9941100D02*
X9310100Y-9966100D01*
X9310100Y-9941100D02*
X9285100Y-9966100D01*
X9286600Y-10284400D02*
X9311600Y-10309400D01*
X9311600Y-10284400D02*
X9286600Y-10309400D01*
X9423100Y-8819800D02*
X9448100Y-8844800D01*
X9448100Y-8819800D02*
X9423100Y-8844800D01*
X9424000Y-9149500D02*
X9449000Y-9174500D01*
X9449000Y-9149500D02*
X9424000Y-9174500D01*
X9460900Y-11504400D02*
X9485900Y-11529400D01*
X9485900Y-11504400D02*
X9460900Y-11529400D01*
X9489100Y-11071800D02*
X9514100Y-11096800D01*
X9514100Y-11071800D02*
X9489100Y-11096800D01*
X9524100Y-8113800D02*
X9549100Y-8138800D01*
X9549100Y-8113800D02*
X9524100Y-8138800D01*
X9652800Y-9461000D02*
X9677800Y-9486000D01*
X9677800Y-9461000D02*
X9652800Y-9486000D01*
X9653000Y-8747300D02*
X9678000Y-8772300D01*
X9678000Y-8747300D02*
X9653000Y-8772300D01*
X9711100Y-8008800D02*
X9736100Y-8033800D01*
X9736100Y-8008800D02*
X9711100Y-8033800D01*
X9748800Y-8280100D02*
X9773800Y-8305100D01*
X9773800Y-8280100D02*
X9748800Y-8305100D01*
X9782300Y-8507600D02*
X9807300Y-8532600D01*
X9807300Y-8507600D02*
X9782300Y-8532600D01*
X9792100Y-10017800D02*
X9817100Y-10042800D01*
X9817100Y-10017800D02*
X9792100Y-10042800D01*
X9804500Y-9660300D02*
X9829500Y-9685300D01*
X9829500Y-9660300D02*
X9804500Y-9685300D01*
X9836500Y-8766600D02*
X9861500Y-8791600D01*
X9861500Y-8766600D02*
X9836500Y-8791600D01*
X9895100Y-10082800D02*
X9920100Y-10107800D01*
X9920100Y-10082800D02*
X9895100Y-10107800D01*
X9939100Y-11261800D02*
X9964100Y-11286800D01*
X9964100Y-11261800D02*
X9939100Y-11286800D01*
X9961700Y-9020400D02*
X9986700Y-9045400D01*
X9986700Y-9020400D02*
X9961700Y-9045400D01*
X9972700Y-9810600D02*
X9997700Y-9835600D01*
X9997700Y-9810600D02*
X9972700Y-9835600D01*
X10029000Y-10634600D02*
X10054000Y-10659600D01*
X10054000Y-10634600D02*
X10029000Y-10659600D01*
X10047900Y-8481100D02*
X10072900Y-8506100D01*
X10072900Y-8481100D02*
X10047900Y-8506100D01*
X10048600Y-9967900D02*
X10073600Y-9992900D01*
X10073600Y-9967900D02*
X10048600Y-9992900D01*
X10069900Y-8946900D02*
X10094900Y-8971900D01*
X10094900Y-8946900D02*
X10069900Y-8971900D01*
X10086200Y-9540600D02*
X10111200Y-9565600D01*
X10111200Y-9540600D02*
X10086200Y-9565600D01*
X10086400Y-9737100D02*
X10111400Y-9762100D01*
X10111400Y-9737100D02*
X10086400Y-9762100D01*
X10093500Y-9182800D02*
X10118500Y-9207800D01*
X10118500Y-9182800D02*
X10093500Y-9207800D01*
X10118600Y-8614400D02*
X10143600Y-8639400D01*
X10143600Y-8614400D02*
X10118600Y-8639400D01*
X10139500Y-8494700D02*
X10164500Y-8519700D01*
X10164500Y-8494700D02*
X10139500Y-8519700D01*
X10153800Y-9916200D02*
X10178800Y-9941200D01*
X10178800Y-9916200D02*
X10153800Y-9941200D01*
X10195200Y-10383800D02*
X10220200Y-10408800D01*
X10220200Y-10383800D02*
X10195200Y-10408800D01*
X10204800Y-7562100D02*
X10229800Y-7587100D01*
X10229800Y-7562100D02*
X10204800Y-7587100D01*
X10211700Y-9588100D02*
X10236700Y-9613100D01*
X10236700Y-9588100D02*
X10211700Y-9613100D01*
X10281100Y-8460800D02*
X10306100Y-8485800D01*
X10306100Y-8460800D02*
X10281100Y-8485800D01*
X10324900Y-10183800D02*
X10349900Y-10208800D01*
X10349900Y-10183800D02*
X10324900Y-10208800D01*
X10356400Y-10353000D02*
X10381400Y-10378000D01*
X10381400Y-10353000D02*
X10356400Y-10378000D01*
X10445100Y-10623800D02*
X10470100Y-10648800D01*
X10470100Y-10623800D02*
X10445100Y-10648800D01*
X10478700Y-8070800D02*
X10503700Y-8095800D01*
X10503700Y-8070800D02*
X10478700Y-8095800D01*
X10504100Y-10197000D02*
X10529100Y-10222000D01*
X10529100Y-10197000D02*
X10504100Y-10222000D01*
X10508800Y-11490000D02*
X10533800Y-11515000D01*
X10533800Y-11490000D02*
X10508800Y-11515000D01*
X10509500Y-9551950D02*
X10534500Y-9576950D01*
X10534500Y-9551950D02*
X10509500Y-9576950D01*
X10536500Y-9778700D02*
X10561500Y-9803700D01*
X10561500Y-9778700D02*
X10536500Y-9803700D01*
X10610500Y-8772100D02*
X10635500Y-8797100D01*
X10635500Y-8772100D02*
X10610500Y-8797100D01*
X10641100Y-10640800D02*
X10666100Y-10665800D01*
X10666100Y-10640800D02*
X10641100Y-10665800D01*
X10643100Y-9734800D02*
X10668100Y-9759800D01*
X10668100Y-9734800D02*
X10643100Y-9759800D01*
X10669500Y-8584600D02*
X10694500Y-8609600D01*
X10694500Y-8584600D02*
X10669500Y-8609600D01*
X10677100Y-7882800D02*
X10702100Y-7907800D01*
X10702100Y-7882800D02*
X10677100Y-7907800D01*
X10700400Y-9238400D02*
X10725400Y-9263400D01*
X10725400Y-9238400D02*
X10700400Y-9263400D01*
X10745600Y-11451400D02*
X10770600Y-11476400D01*
X10770600Y-11451400D02*
X10745600Y-11476400D01*
X10748100Y-10044800D02*
X10773100Y-10069800D01*
X10773100Y-10044800D02*
X10748100Y-10069800D01*
X10779800Y-7868900D02*
X10804800Y-7893900D01*
X10804800Y-7868900D02*
X10779800Y-7893900D01*
X10786100Y-9549800D02*
X10811100Y-9574800D01*
X10811100Y-9549800D02*
X10786100Y-9574800D01*
X10807400Y-9669600D02*
X10832400Y-9694600D01*
X10832400Y-9669600D02*
X10807400Y-9694600D01*
X10834000Y-8990000D02*
X10859000Y-9015000D01*
X10859000Y-8990000D02*
X10834000Y-9015000D01*
X10835500Y-8308300D02*
X10860500Y-8333300D01*
X10860500Y-8308300D02*
X10835500Y-8333300D01*
X10890100Y-7861800D02*
X10915100Y-7886800D01*
X10915100Y-7861800D02*
X10890100Y-7886800D01*
X10908300Y-9873900D02*
X10933300Y-9898900D01*
X10933300Y-9873900D02*
X10908300Y-9898900D01*
X10925900Y-9397600D02*
X10950900Y-9422600D01*
X10950900Y-9397600D02*
X10925900Y-9422600D01*
X10967100Y-9202600D02*
X10992100Y-9227600D01*
X10992100Y-9202600D02*
X10967100Y-9227600D01*
X11017300Y-10353400D02*
X11042300Y-10378400D01*
X11042300Y-10353400D02*
X11017300Y-10378400D01*
X11034100Y-10080800D02*
X11059100Y-10105800D01*
X11059100Y-10080800D02*
X11034100Y-10105800D01*
X11045100Y-10961800D02*
X11070100Y-10986800D01*
X11070100Y-10961800D02*
X11045100Y-10986800D01*
X11047300Y-11242100D02*
X11072300Y-11267100D01*
X11072300Y-11242100D02*
X11047300Y-11267100D01*
X11085100Y-11486800D02*
X11110100Y-11511800D01*
X11110100Y-11486800D02*
X11085100Y-11511800D01*
X11096500Y-8855200D02*
X11121500Y-8880200D01*
X11121500Y-8855200D02*
X11096500Y-8880200D01*
X11161600Y-12058400D02*
X11186600Y-12083400D01*
X11186600Y-12058400D02*
X11161600Y-12083400D01*
X11189100Y-9524800D02*
X11214100Y-9549800D01*
X11214100Y-9524800D02*
X11189100Y-9549800D01*
X11252800Y-10400500D02*
X11277800Y-10425500D01*
X11277800Y-10400500D02*
X11252800Y-10425500D01*
X11270600Y-8931500D02*
X11295600Y-8956500D01*
X11295600Y-8931500D02*
X11270600Y-8956500D01*
X11302100Y-9554800D02*
X11327100Y-9579800D01*
X11327100Y-9554800D02*
X11302100Y-9579800D01*
X11343900Y-8408200D02*
X11368900Y-8433200D01*
X11368900Y-8408200D02*
X11343900Y-8433200D01*
X11350800Y-8600800D02*
X11375800Y-8625800D01*
X11375800Y-8600800D02*
X11350800Y-8625800D01*
X11365100Y-12151800D02*
X11390100Y-12176800D01*
X11390100Y-12151800D02*
X11365100Y-12176800D01*
X11374300Y-10211400D02*
X11399300Y-10236400D01*
X11399300Y-10211400D02*
X11374300Y-10236400D01*
X11395100Y-9090800D02*
X11420100Y-9115800D01*
X11420100Y-9090800D02*
X11395100Y-9115800D01*
X11472700Y-10222100D02*
X11497700Y-10247100D01*
X11497700Y-10222100D02*
X11472700Y-10247100D01*
X11498100Y-11552800D02*
X11523100Y-11577800D01*
X11523100Y-11552800D02*
X11498100Y-11577800D01*
X11511100Y-9165800D02*
X11536100Y-9190800D01*
X11536100Y-9165800D02*
X11511100Y-9190800D01*
X11513100Y-9265800D02*
X11538100Y-9290800D01*
X11538100Y-9265800D02*
X11513100Y-9290800D01*
X11519700Y-9922800D02*
X11544700Y-9947800D01*
X11544700Y-9922800D02*
X11519700Y-9947800D01*
X11551700Y-9397400D02*
X11576700Y-9422400D01*
X11576700Y-9397400D02*
X11551700Y-9422400D01*
X11578900Y-12048600D02*
X11603900Y-12073600D01*
X11603900Y-12048600D02*
X11578900Y-12073600D01*
X11599000Y-9258000D02*
X11624000Y-9283000D01*
X11624000Y-9258000D02*
X11599000Y-9283000D01*
X11615900Y-8316500D02*
X11640900Y-8341500D01*
X11640900Y-8316500D02*
X11615900Y-8341500D01*
X11663900Y-10014300D02*
X11688900Y-10039300D01*
X11688900Y-10014300D02*
X11663900Y-10039300D01*
X11682300Y-10127600D02*
X11707300Y-10152600D01*
X11707300Y-10127600D02*
X11682300Y-10152600D01*
X11685100Y-8814700D02*
X11710100Y-8839700D01*
X11710100Y-8814700D02*
X11685100Y-8839700D01*
X11688000Y-8198200D02*
X11713000Y-8223200D01*
X11713000Y-8198200D02*
X11688000Y-8223200D01*
X11695500Y-10222700D02*
X11720500Y-10247700D01*
X11720500Y-10222700D02*
X11695500Y-10247700D01*
X11698100Y-12085600D02*
X11723100Y-12110600D01*
X11723100Y-12085600D02*
X11698100Y-12110600D01*
X11729300Y-9240500D02*
X11754300Y-9265500D01*
X11754300Y-9240500D02*
X11729300Y-9265500D01*
X11738500Y-8946400D02*
X11763500Y-8971400D01*
X11763500Y-8946400D02*
X11738500Y-8971400D01*
X11904900Y-8206300D02*
X11929900Y-8231300D01*
X11929900Y-8206300D02*
X11904900Y-8231300D01*
X11911000Y-9534900D02*
X11936000Y-9559900D01*
X11936000Y-9534900D02*
X11911000Y-9559900D01*
X11922000Y-9189600D02*
X11947000Y-9214600D01*
X11947000Y-9189600D02*
X11922000Y-9214600D01*
X11929400Y-9375000D02*
X11954400Y-9400000D01*
X11954400Y-9375000D02*
X11929400Y-9400000D01*
X11934400Y-11891000D02*
X11959400Y-11916000D01*
X11959400Y-11891000D02*
X11934400Y-11916000D01*
X11942300Y-9811900D02*
X11967300Y-9836900D01*
X11967300Y-9811900D02*
X11942300Y-9836900D01*
X11992400Y-11256100D02*
X12017400Y-11281100D01*
X12017400Y-11256100D02*
X11992400Y-11281100D01*
X12014100Y-8565800D02*
X12039100Y-8590800D01*
X12039100Y-8565800D02*
X12014100Y-8590800D01*
X12056900Y-8921100D02*
X12081900Y-8946100D01*
X12081900Y-8921100D02*
X12056900Y-8946100D01*
X12077200Y-12054000D02*
X12102200Y-12079000D01*
X12102200Y-12054000D02*
X12077200Y-12079000D01*
X12093900Y-8191200D02*
X12118900Y-8216200D01*
X12118900Y-8191200D02*
X12093900Y-8216200D01*
X12099200Y-9470600D02*
X12124200Y-9495600D01*
X12124200Y-9470600D02*
X12099200Y-9495600D01*
X12100100Y-9053800D02*
X12125100Y-9078800D01*
X12125100Y-9053800D02*
X12100100Y-9078800D01*
X12104100Y-9238800D02*
X12129100Y-9263800D01*
X12129100Y-9238800D02*
X12104100Y-9263800D01*
X12135100Y-8302800D02*
X12160100Y-8327800D01*
X12160100Y-8302800D02*
X12135100Y-8327800D01*
X12137100Y-8916800D02*
X12162100Y-8941800D01*
X12162100Y-8916800D02*
X12137100Y-8941800D01*
X12211100Y-8301800D02*
X12236100Y-8326800D01*
X12236100Y-8301800D02*
X12211100Y-8326800D01*
X12251000Y-11599200D02*
X12276000Y-11624200D01*
X12276000Y-11599200D02*
X12251000Y-11624200D01*
X12285300Y-9561400D02*
X12310300Y-9586400D01*
X12310300Y-9561400D02*
X12285300Y-9586400D01*
X12286100Y-8303800D02*
X12311100Y-8328800D01*
X12311100Y-8303800D02*
X12286100Y-8328800D01*
X12327100Y-8570800D02*
X12352100Y-8595800D01*
X12352100Y-8570800D02*
X12327100Y-8595800D01*
X12362100Y-8303800D02*
X12387100Y-8328800D01*
X12387100Y-8303800D02*
X12362100Y-8328800D01*
X12379900Y-9440100D02*
X12404900Y-9465100D01*
X12404900Y-9440100D02*
X12379900Y-9465100D01*
X12395100Y-11286800D02*
X12420100Y-11311800D01*
X12420100Y-11286800D02*
X12395100Y-11311800D01*
X12400100Y-8928800D02*
X12425100Y-8953800D01*
X12425100Y-8928800D02*
X12400100Y-8953800D01*
X12415400Y-11748900D02*
X12440400Y-11773900D01*
X12440400Y-11748900D02*
X12415400Y-11773900D01*
X12437100Y-8302800D02*
X12462100Y-8327800D01*
X12462100Y-8302800D02*
X12437100Y-8327800D01*
X12479100Y-10247800D02*
X12504100Y-10272800D01*
X12504100Y-10247800D02*
X12479100Y-10272800D01*
X12488600Y-8187400D02*
X12513600Y-8212400D01*
X12513600Y-8187400D02*
X12488600Y-8212400D01*
X12500800Y-7947600D02*
X12525800Y-7972600D01*
X12525800Y-7947600D02*
X12500800Y-7972600D01*
X12552100Y-9875200D02*
X12577100Y-9900200D01*
X12577100Y-9875200D02*
X12552100Y-9900200D01*
X12571600Y-9511700D02*
X12596600Y-9536700D01*
X12596600Y-9511700D02*
X12571600Y-9536700D01*
X12577400Y-9187500D02*
X12602400Y-9212500D01*
X12602400Y-9187500D02*
X12577400Y-9212500D01*
X12580800Y-9622300D02*
X12605800Y-9647300D01*
X12605800Y-9622300D02*
X12580800Y-9647300D01*
X12590100Y-8906800D02*
X12615100Y-8931800D01*
X12615100Y-8906800D02*
X12590100Y-8931800D01*
X12590100Y-9102800D02*
X12615100Y-9127800D01*
X12615100Y-9102800D02*
X12590100Y-9127800D01*
X12622600Y-9344000D02*
X12647600Y-9369000D01*
X12647600Y-9344000D02*
X12622600Y-9369000D01*
X12635000Y-9445200D02*
X12660000Y-9470200D01*
X12660000Y-9445200D02*
X12635000Y-9470200D01*
X12677100Y-8894800D02*
X12702100Y-8919800D01*
X12702100Y-8894800D02*
X12677100Y-8919800D01*
X12682400Y-10437500D02*
X12707400Y-10462500D01*
X12707400Y-10437500D02*
X12682400Y-10462500D01*
X12705000Y-7827500D02*
X12730000Y-7852500D01*
X12730000Y-7827500D02*
X12705000Y-7852500D01*
X12835000Y-9496000D02*
X12860000Y-9521000D01*
X12860000Y-9496000D02*
X12835000Y-9521000D01*
X12883100Y-9204800D02*
X12908100Y-9229800D01*
X12908100Y-9204800D02*
X12883100Y-9229800D01*
X12888000Y-9002600D02*
X12913000Y-9027600D01*
X12913000Y-9002600D02*
X12888000Y-9027600D01*
X12902000Y-10012400D02*
X12927000Y-10037400D01*
X12927000Y-10012400D02*
X12902000Y-10037400D01*
X12955100Y-9414800D02*
X12980100Y-9439800D01*
X12980100Y-9414800D02*
X12955100Y-9439800D01*
X12962100Y-9024600D02*
X12987100Y-9049600D01*
X12987100Y-9024600D02*
X12962100Y-9049600D01*
X12967100Y-8539800D02*
X12992100Y-8564800D01*
X12992100Y-8539800D02*
X12967100Y-8564800D01*
X12972100Y-9564800D02*
X12997100Y-9589800D01*
X12997100Y-9564800D02*
X12972100Y-9589800D01*
X12975600Y-8736000D02*
X13000600Y-8761000D01*
X13000600Y-8736000D02*
X12975600Y-8761000D01*
X12981700Y-9817800D02*
X13006700Y-9842800D01*
X13006700Y-9817800D02*
X12981700Y-9842800D01*
X12982900Y-9297900D02*
X13007900Y-9322900D01*
X13007900Y-9297900D02*
X12982900Y-9322900D01*
X13028100Y-8293800D02*
X13053100Y-8318800D01*
X13053100Y-8293800D02*
X13028100Y-8318800D01*
X13037400Y-8480200D02*
X13062400Y-8505200D01*
X13062400Y-8480200D02*
X13037400Y-8505200D01*
X13042100Y-9104800D02*
X13067100Y-9129800D01*
X13067100Y-9104800D02*
X13042100Y-9129800D01*
X13050000Y-11830800D02*
X13075000Y-11855800D01*
X13075000Y-11830800D02*
X13050000Y-11855800D01*
X13054100Y-8394500D02*
X13079100Y-8419500D01*
X13079100Y-8394500D02*
X13054100Y-8419500D01*
X13087700Y-8090000D02*
X13112700Y-8115000D01*
X13112700Y-8090000D02*
X13087700Y-8115000D01*
X13096100Y-9525800D02*
X13121100Y-9550800D01*
X13121100Y-9525800D02*
X13096100Y-9550800D01*
X13099300Y-9165600D02*
X13124300Y-9190600D01*
X13124300Y-9165600D02*
X13099300Y-9190600D01*
X13106600Y-8967700D02*
X13131600Y-8992700D01*
X13131600Y-8967700D02*
X13106600Y-8992700D01*
X13122100Y-9806800D02*
X13147100Y-9831800D01*
X13147100Y-9806800D02*
X13122100Y-9831800D01*
X13125100Y-10161000D02*
X13150100Y-10186000D01*
X13150100Y-10161000D02*
X13125100Y-10186000D01*
X13190100Y-9508800D02*
X13215100Y-9533800D01*
X13215100Y-9508800D02*
X13190100Y-9533800D01*
X13219100Y-10680500D02*
X13244100Y-10705500D01*
X13244100Y-10680500D02*
X13219100Y-10705500D01*
X13270900Y-10404400D02*
X13295900Y-10429400D01*
X13295900Y-10404400D02*
X13270900Y-10429400D01*
X13284100Y-9553800D02*
X13309100Y-9578800D01*
X13309100Y-9553800D02*
X13284100Y-9578800D01*
X13302100Y-8706800D02*
X13327100Y-8731800D01*
X13327100Y-8706800D02*
X13302100Y-8731800D01*
X13304200Y-9366300D02*
X13329200Y-9391300D01*
X13329200Y-9366300D02*
X13304200Y-9391300D01*
X13317100Y-9230800D02*
X13342100Y-9255800D01*
X13342100Y-9230800D02*
X13317100Y-9255800D01*
X13324100Y-11817800D02*
X13349100Y-11842800D01*
X13349100Y-11817800D02*
X13324100Y-11842800D01*
X13327900Y-8052600D02*
X13352900Y-8077600D01*
X13352900Y-8052600D02*
X13327900Y-8077600D01*
X13360000Y-10436300D02*
X13385000Y-10461300D01*
X13385000Y-10436300D02*
X13360000Y-10461300D01*
X13381500Y-9368100D02*
X13406500Y-9393100D01*
X13406500Y-9368100D02*
X13381500Y-9393100D01*
X13459100Y-9370300D02*
X13484100Y-9395300D01*
X13484100Y-9370300D02*
X13459100Y-9395300D01*
X13495400Y-9859900D02*
X13520400Y-9884900D01*
X13520400Y-9859900D02*
X13495400Y-9884900D01*
X13501000Y-8898000D02*
X13526000Y-8923000D01*
X13526000Y-8898000D02*
X13501000Y-8923000D01*
X13516100Y-9986800D02*
X13541100Y-10011800D01*
X13541100Y-9986800D02*
X13516100Y-10011800D01*
X13596400Y-8809400D02*
X13621400Y-8834400D01*
X13621400Y-8809400D02*
X13596400Y-8834400D01*
X13650900Y-7838900D02*
X13675900Y-7863900D01*
X13675900Y-7838900D02*
X13650900Y-7863900D01*
X13675100Y-11970700D02*
X13700100Y-11995700D01*
X13700100Y-11970700D02*
X13675100Y-11995700D01*
X13690100Y-9405800D02*
X13715100Y-9430800D01*
X13715100Y-9405800D02*
X13690100Y-9430800D01*
X13719100Y-9299800D02*
X13744100Y-9324800D01*
X13744100Y-9299800D02*
X13719100Y-9324800D01*
X13730100Y-9511800D02*
X13755100Y-9536800D01*
X13755100Y-9511800D02*
X13730100Y-9536800D01*
X13746800Y-9751700D02*
X13771800Y-9776700D01*
X13771800Y-9751700D02*
X13746800Y-9776700D01*
X13787100Y-8393400D02*
X13812100Y-8418400D01*
X13812100Y-8393400D02*
X13787100Y-8418400D01*
X13819000Y-7761600D02*
X13844000Y-7786600D01*
X13844000Y-7761600D02*
X13819000Y-7786600D01*
X13855100Y-8592800D02*
X13880100Y-8617800D01*
X13880100Y-8592800D02*
X13855100Y-8617800D01*
X13890000Y-12072400D02*
X13915000Y-12097400D01*
X13915000Y-12072400D02*
X13890000Y-12097400D01*
X13917900Y-11879200D02*
X13942900Y-11904200D01*
X13942900Y-11879200D02*
X13917900Y-11904200D01*
X13921400Y-7904600D02*
X13946400Y-7929600D01*
X13946400Y-7904600D02*
X13921400Y-7929600D01*
X13951100Y-9713800D02*
X13976100Y-9738800D01*
X13976100Y-9713800D02*
X13951100Y-9738800D01*
X13967100Y-9300800D02*
X13992100Y-9325800D01*
X13992100Y-9300800D02*
X13967100Y-9325800D01*
X14024100Y-9826800D02*
X14049100Y-9851800D01*
X14049100Y-9826800D02*
X14024100Y-9851800D01*
X14066900Y-8035600D02*
X14091900Y-8060600D01*
X14091900Y-8035600D02*
X14066900Y-8060600D01*
X14068100Y-8917800D02*
X14093100Y-8942800D01*
X14093100Y-8917800D02*
X14068100Y-8942800D01*
X14069100Y-8598800D02*
X14094100Y-8623800D01*
X14094100Y-8598800D02*
X14069100Y-8623800D01*
X14081700Y-7740400D02*
X14106700Y-7765400D01*
X14106700Y-7740400D02*
X14081700Y-7765400D01*
X14084800Y-9022400D02*
X14109800Y-9047400D01*
X14109800Y-9022400D02*
X14084800Y-9047400D01*
X14100100Y-9253800D02*
X14125100Y-9278800D01*
X14125100Y-9253800D02*
X14100100Y-9278800D01*
X14208900Y-8840100D02*
X14233900Y-8865100D01*
X14233900Y-8840100D02*
X14208900Y-8865100D01*
X14244900Y-11853400D02*
X14269900Y-11878400D01*
X14269900Y-11853400D02*
X14244900Y-11878400D01*
X14256800Y-10639500D02*
X14281800Y-10664500D01*
X14281800Y-10639500D02*
X14256800Y-10664500D01*
X14271100Y-10273200D02*
X14296100Y-10298200D01*
X14296100Y-10273200D02*
X14271100Y-10298200D01*
X14306100Y-9165800D02*
X14331100Y-9190800D01*
X14331100Y-9165800D02*
X14306100Y-9190800D01*
X14362100Y-9537800D02*
X14387100Y-9562800D01*
X14387100Y-9537800D02*
X14362100Y-9562800D01*
X14367100Y-9700800D02*
X14392100Y-9725800D01*
X14392100Y-9700800D02*
X14367100Y-9725800D01*
X14369600Y-10652900D02*
X14394600Y-10677900D01*
X14394600Y-10652900D02*
X14369600Y-10677900D01*
X14377100Y-11858800D02*
X14402100Y-11883800D01*
X14402100Y-11858800D02*
X14377100Y-11883800D01*
D13*
X11596800Y-11896800D02*
G75*
G03*
X11596800Y-11896800I-15000J0D01*
G01*
X11739300Y-11755900D02*
G75*
G03*
X11739300Y-11755900I-15000J0D01*
G01*
X11951300Y-11754400D02*
G75*
G03*
X11951300Y-11754400I-15000J0D01*
G01*
X12481600Y-11551300D02*
G75*
G03*
X12481600Y-11551300I-15000J0D01*
G01*
X12536800Y-10639800D02*
G75*
G03*
X12536800Y-10639800I-15000J0D01*
G01*
X12569800Y-10499200D02*
G75*
G03*
X12569800Y-10499200I-15000J0D01*
G01*
X13755000Y-10433500D02*
G75*
G03*
X13755000Y-10433500I-15000J0D01*
G01*
X13995800Y-10362000D02*
G75*
G03*
X13995800Y-10362000I-15000J0D01*
G01*
X14171600Y-10109300D02*
G75*
G03*
X14171600Y-10109300I-15000J0D01*
G01*
X14280000Y-9815000D02*
G75*
G03*
X14280000Y-9815000I-15000J0D01*
G01*
D14*
X8408100Y-8524300D02*
X8408100Y-8584300D01*
X8378100Y-8554300D02*
X8438100Y-8554300D01*
D11*
X8438100Y-8534300D02*
X8378100Y-8534300D01*
X8438100Y-8574300D02*
X8378100Y-8574300D01*
X8378100Y-8534300D02*
G75*
G03*
X8378100Y-8574300I0J-20000D01*
G01*
X8438100Y-8574300D02*
G75*
G03*
X8438100Y-8534300I0J20000D01*
G01*
D14*
X8408100Y-9388300D02*
X8408100Y-9448300D01*
X8378100Y-9418300D02*
X8438100Y-9418300D01*
D11*
X8438100Y-9398300D02*
X8378100Y-9398300D01*
X8438100Y-9438300D02*
X8378100Y-9438300D01*
X8378100Y-9398300D02*
G75*
G03*
X8378100Y-9438300I0J-20000D01*
G01*
X8438100Y-9438300D02*
G75*
G03*
X8438100Y-9398300I0J20000D01*
G01*
D14*
X8826100Y-8524300D02*
X8826100Y-8584300D01*
X8796100Y-8554300D02*
X8856100Y-8554300D01*
D11*
X8881100Y-8534300D02*
X8771100Y-8534300D01*
X8881100Y-8574300D02*
X8771100Y-8574300D01*
X8771100Y-8534300D02*
G75*
G03*
X8771100Y-8574300I0J-20000D01*
G01*
X8881100Y-8574300D02*
G75*
G03*
X8881100Y-8534300I0J20000D01*
G01*
D14*
X8826100Y-9388300D02*
X8826100Y-9448300D01*
X8796100Y-9418300D02*
X8856100Y-9418300D01*
D11*
X8881100Y-9398300D02*
X8771100Y-9398300D01*
X8881100Y-9438300D02*
X8771100Y-9438300D01*
X8771100Y-9398300D02*
G75*
G03*
X8771100Y-9438300I0J-20000D01*
G01*
X8881100Y-9438300D02*
G75*
G03*
X8881100Y-9398300I0J20000D01*
G01*
D15*
X10062081Y-8209781D02*
X10062081Y-8163819D01*
X10016119Y-8163819D01*
X10016119Y-8209781D01*
X10062081Y-8209781D01*
X10062081Y-8336781D02*
X10062081Y-8290819D01*
X10016119Y-8290819D01*
X10016119Y-8336781D01*
X10062081Y-8336781D01*
X10189081Y-8209781D02*
X10189081Y-8163819D01*
X10143119Y-8163819D01*
X10143119Y-8209781D01*
X10189081Y-8209781D01*
X10189081Y-8336781D02*
X10189081Y-8290819D01*
X10143119Y-8290819D01*
X10143119Y-8336781D01*
X10189081Y-8336781D01*
X10316081Y-8209781D02*
X10316081Y-8163819D01*
X10270119Y-8163819D01*
X10270119Y-8209781D01*
X10316081Y-8209781D01*
X10316081Y-8336781D02*
X10316081Y-8290819D01*
X10270119Y-8290819D01*
X10270119Y-8336781D01*
X10316081Y-8336781D01*
X10443081Y-8209781D02*
X10443081Y-8163819D01*
X10397119Y-8163819D01*
X10397119Y-8209781D01*
X10443081Y-8209781D01*
X10443081Y-8336781D02*
X10443081Y-8290819D01*
X10397119Y-8290819D01*
X10397119Y-8336781D01*
X10443081Y-8336781D01*
X10570081Y-8209781D02*
X10570081Y-8163819D01*
X10524119Y-8163819D01*
X10524119Y-8209781D01*
X10570081Y-8209781D01*
X10570081Y-8336781D02*
X10570081Y-8290819D01*
X10524119Y-8290819D01*
X10524119Y-8336781D01*
X10570081Y-8336781D01*
X14344081Y-8793781D02*
X14344081Y-8747819D01*
X14298119Y-8747819D01*
X14298119Y-8793781D01*
X14344081Y-8793781D01*
X14344081Y-8920781D02*
X14344081Y-8874819D01*
X14298119Y-8874819D01*
X14298119Y-8920781D01*
X14344081Y-8920781D01*
D16*
X10056600Y-7536300D02*
X10106600Y-7486300D01*
X10056600Y-7436300D01*
X10006600Y-7486300D01*
X10056600Y-7536300D01*
X10310600Y-7536300D02*
X10360600Y-7486300D01*
X10310600Y-7436300D01*
X10260600Y-7486300D01*
X10310600Y-7536300D01*
X10564600Y-7536300D02*
X10614600Y-7486300D01*
X10564600Y-7436300D01*
X10514600Y-7486300D01*
X10564600Y-7536300D01*
X10818600Y-7536300D02*
X10868600Y-7486300D01*
X10818600Y-7436300D01*
X10768600Y-7486300D01*
X10818600Y-7536300D01*
X10945600Y-12362300D02*
X10995600Y-12312300D01*
X10945600Y-12262300D01*
X10895600Y-12312300D01*
X10945600Y-12362300D01*
X11072600Y-7536300D02*
X11122600Y-7486300D01*
X11072600Y-7436300D01*
X11022600Y-7486300D01*
X11072600Y-7536300D01*
X11199600Y-12362300D02*
X11249600Y-12312300D01*
X11199600Y-12262300D01*
X11149600Y-12312300D01*
X11199600Y-12362300D01*
X11326600Y-7536300D02*
X11376600Y-7486300D01*
X11326600Y-7436300D01*
X11276600Y-7486300D01*
X11326600Y-7536300D01*
X11453600Y-12362300D02*
X11503600Y-12312300D01*
X11453600Y-12262300D01*
X11403600Y-12312300D01*
X11453600Y-12362300D01*
X11580600Y-7536300D02*
X11630600Y-7486300D01*
X11580600Y-7436300D01*
X11530600Y-7486300D01*
X11580600Y-7536300D01*
X11707600Y-12362300D02*
X11757600Y-12312300D01*
X11707600Y-12262300D01*
X11657600Y-12312300D01*
X11707600Y-12362300D01*
X11834600Y-7536300D02*
X11884600Y-7486300D01*
X11834600Y-7436300D01*
X11784600Y-7486300D01*
X11834600Y-7536300D01*
X11961600Y-12362300D02*
X12011600Y-12312300D01*
X11961600Y-12262300D01*
X11911600Y-12312300D01*
X11961600Y-12362300D01*
X12088600Y-7536300D02*
X12138600Y-7486300D01*
X12088600Y-7436300D01*
X12038600Y-7486300D01*
X12088600Y-7536300D01*
X12215600Y-12362300D02*
X12265600Y-12312300D01*
X12215600Y-12262300D01*
X12165600Y-12312300D01*
X12215600Y-12362300D01*
X12342600Y-7536300D02*
X12392600Y-7486300D01*
X12342600Y-7436300D01*
X12292600Y-7486300D01*
X12342600Y-7536300D01*
X12469600Y-12362300D02*
X12519600Y-12312300D01*
X12469600Y-12262300D01*
X12419600Y-12312300D01*
X12469600Y-12362300D01*
X12723600Y-7536300D02*
X12773600Y-7486300D01*
X12723600Y-7436300D01*
X12673600Y-7486300D01*
X12723600Y-7536300D01*
X12723600Y-12362300D02*
X12773600Y-12312300D01*
X12723600Y-12262300D01*
X12673600Y-12312300D01*
X12723600Y-12362300D01*
X12977600Y-7536300D02*
X13027600Y-7486300D01*
X12977600Y-7436300D01*
X12927600Y-7486300D01*
X12977600Y-7536300D01*
X13231600Y-7536300D02*
X13281600Y-7486300D01*
X13231600Y-7436300D01*
X13181600Y-7486300D01*
X13231600Y-7536300D01*
X13231600Y-12362300D02*
X13281600Y-12312300D01*
X13231600Y-12262300D01*
X13181600Y-12312300D01*
X13231600Y-12362300D01*
X13485600Y-7536300D02*
X13535600Y-7486300D01*
X13485600Y-7436300D01*
X13435600Y-7486300D01*
X13485600Y-7536300D01*
X13485600Y-12362300D02*
X13535600Y-12312300D01*
X13485600Y-12262300D01*
X13435600Y-12312300D01*
X13485600Y-12362300D01*
X13739600Y-7536300D02*
X13789600Y-7486300D01*
X13739600Y-7436300D01*
X13689600Y-7486300D01*
X13739600Y-7536300D01*
X13739600Y-12362300D02*
X13789600Y-12312300D01*
X13739600Y-12262300D01*
X13689600Y-12312300D01*
X13739600Y-12362300D01*
X13993600Y-7536300D02*
X14043600Y-7486300D01*
X13993600Y-7436300D01*
X13943600Y-7486300D01*
X13993600Y-7536300D01*
X13993600Y-12362300D02*
X14043600Y-12312300D01*
X13993600Y-12262300D01*
X13943600Y-12312300D01*
X13993600Y-12362300D01*
X14247600Y-7536300D02*
X14297600Y-7486300D01*
X14247600Y-7436300D01*
X14197600Y-7486300D01*
X14247600Y-7536300D01*
X14247600Y-12362300D02*
X14297600Y-12312300D01*
X14247600Y-12262300D01*
X14197600Y-12312300D01*
X14247600Y-12362300D01*
X14501600Y-7536300D02*
X14551600Y-7486300D01*
X14501600Y-7436300D01*
X14451600Y-7486300D01*
X14501600Y-7536300D01*
X14501600Y-12362300D02*
X14551600Y-12312300D01*
X14501600Y-12262300D01*
X14451600Y-12312300D01*
X14501600Y-12362300D01*
X14514300Y-9568300D02*
X14564300Y-9518300D01*
X14514300Y-9468300D01*
X14464300Y-9518300D01*
X14514300Y-9568300D01*
X14514300Y-9822300D02*
X14564300Y-9772300D01*
X14514300Y-9722300D01*
X14464300Y-9772300D01*
X14514300Y-9822300D01*
X14514300Y-10076300D02*
X14564300Y-10026300D01*
X14514300Y-9976300D01*
X14464300Y-10026300D01*
X14514300Y-10076300D01*
X14764100Y-10501800D02*
X14814100Y-10451800D01*
X14764100Y-10401800D01*
X14714100Y-10451800D01*
X14764100Y-10501800D01*
X14764100Y-10755800D02*
X14814100Y-10705800D01*
X14764100Y-10655800D01*
X14714100Y-10705800D01*
X14764100Y-10755800D01*
X14764100Y-11009800D02*
X14814100Y-10959800D01*
X14764100Y-10909800D01*
X14714100Y-10959800D01*
X14764100Y-11009800D01*
X14764100Y-11263800D02*
X14814100Y-11213800D01*
X14764100Y-11163800D01*
X14714100Y-11213800D01*
X14764100Y-11263800D01*
X14768300Y-9568300D02*
X14818300Y-9518300D01*
X14768300Y-9468300D01*
X14718300Y-9518300D01*
X14768300Y-9568300D01*
X14768300Y-9822300D02*
X14818300Y-9772300D01*
X14768300Y-9722300D01*
X14718300Y-9772300D01*
X14768300Y-9822300D01*
X14768300Y-10076300D02*
X14818300Y-10026300D01*
X14768300Y-9976300D01*
X14718300Y-10026300D01*
X14768300Y-10076300D01*
D17*
X8394100Y-11531300D02*
X8704100Y-11841300D01*
X8704100Y-11531300D02*
X8394100Y-11841300D01*
X8704100Y-11686300D02*
G75*
G03*
X8704100Y-11686300I-155000J0D01*
G01*
X8724100Y-11991300D02*
X9034100Y-12301300D01*
X9034100Y-11991300D02*
X8724100Y-12301300D01*
X9034100Y-12146300D02*
G75*
G03*
X9034100Y-12146300I-155000J0D01*
G01*
X9014100Y-11531300D02*
X9324100Y-11841300D01*
X9324100Y-11531300D02*
X9014100Y-11841300D01*
X9324100Y-11686300D02*
G75*
G03*
X9324100Y-11686300I-155000J0D01*
G01*
D11*
X8397860Y-12887989D02*
X8397860Y-12687989D01*
X8445479Y-12687989D01*
X8474050Y-12697513D01*
X8493098Y-12716560D01*
X8502622Y-12735608D01*
X8512146Y-12773703D01*
X8512146Y-12802274D01*
X8502622Y-12840370D01*
X8493098Y-12859417D01*
X8474050Y-12878465D01*
X8445479Y-12887989D01*
X8397860Y-12887989D01*
X8597860Y-12887989D02*
X8597860Y-12754655D01*
X8597860Y-12792751D02*
X8607384Y-12773703D01*
X8616907Y-12764179D01*
X8635955Y-12754655D01*
X8655003Y-12754655D01*
X8721669Y-12887989D02*
X8721669Y-12754655D01*
X8721669Y-12687989D02*
X8712146Y-12697513D01*
X8721669Y-12707036D01*
X8731193Y-12697513D01*
X8721669Y-12687989D01*
X8721669Y-12707036D01*
X8845479Y-12887989D02*
X8826431Y-12878465D01*
X8816907Y-12859417D01*
X8816907Y-12687989D01*
X8950241Y-12887989D02*
X8931193Y-12878465D01*
X8921669Y-12859417D01*
X8921669Y-12687989D01*
X9178812Y-12887989D02*
X9178812Y-12687989D01*
X9245479Y-12830846D01*
X9312146Y-12687989D01*
X9312146Y-12887989D01*
X9493098Y-12887989D02*
X9493098Y-12783227D01*
X9483574Y-12764179D01*
X9464527Y-12754655D01*
X9426431Y-12754655D01*
X9407384Y-12764179D01*
X9493098Y-12878465D02*
X9474050Y-12887989D01*
X9426431Y-12887989D01*
X9407384Y-12878465D01*
X9397860Y-12859417D01*
X9397860Y-12840370D01*
X9407384Y-12821322D01*
X9426431Y-12811798D01*
X9474050Y-12811798D01*
X9493098Y-12802274D01*
X9588336Y-12754655D02*
X9588336Y-12954655D01*
X9588336Y-12764179D02*
X9607384Y-12754655D01*
X9645479Y-12754655D01*
X9664527Y-12764179D01*
X9674050Y-12773703D01*
X9683574Y-12792751D01*
X9683574Y-12849893D01*
X9674050Y-12868941D01*
X9664527Y-12878465D01*
X9645479Y-12887989D01*
X9607384Y-12887989D01*
X9588336Y-12878465D01*
X9769288Y-12868941D02*
X9778812Y-12878465D01*
X9769288Y-12887989D01*
X9759765Y-12878465D01*
X9769288Y-12868941D01*
X9769288Y-12887989D01*
X9769288Y-12764179D02*
X9778812Y-12773703D01*
X9769288Y-12783227D01*
X9759765Y-12773703D01*
X9769288Y-12764179D01*
X9769288Y-12783227D01*
D12*
X8115241Y-13205013D02*
X8140241Y-13230013D01*
X8140241Y-13205013D02*
X8115241Y-13230013D01*
D11*
X8435955Y-13107989D02*
X8455003Y-13107989D01*
X8474050Y-13117513D01*
X8483574Y-13127036D01*
X8493098Y-13146084D01*
X8502622Y-13184179D01*
X8502622Y-13231798D01*
X8493098Y-13269893D01*
X8483574Y-13288941D01*
X8474050Y-13298465D01*
X8455003Y-13307989D01*
X8435955Y-13307989D01*
X8416907Y-13298465D01*
X8407384Y-13288941D01*
X8397860Y-13269893D01*
X8388336Y-13231798D01*
X8388336Y-13184179D01*
X8397860Y-13146084D01*
X8407384Y-13127036D01*
X8416907Y-13117513D01*
X8435955Y-13107989D01*
X8588336Y-13288941D02*
X8597860Y-13298465D01*
X8588336Y-13307989D01*
X8578812Y-13298465D01*
X8588336Y-13288941D01*
X8588336Y-13307989D01*
X8674050Y-13127036D02*
X8683574Y-13117513D01*
X8702622Y-13107989D01*
X8750241Y-13107989D01*
X8769288Y-13117513D01*
X8778812Y-13127036D01*
X8788336Y-13146084D01*
X8788336Y-13165132D01*
X8778812Y-13193703D01*
X8664527Y-13307989D01*
X8788336Y-13307989D01*
X8969288Y-13107989D02*
X8874050Y-13107989D01*
X8864527Y-13203227D01*
X8874050Y-13193703D01*
X8893098Y-13184179D01*
X8940717Y-13184179D01*
X8959765Y-13193703D01*
X8969288Y-13203227D01*
X8978812Y-13222274D01*
X8978812Y-13269893D01*
X8969288Y-13288941D01*
X8959765Y-13298465D01*
X8940717Y-13307989D01*
X8893098Y-13307989D01*
X8874050Y-13298465D01*
X8864527Y-13288941D01*
X9102622Y-13107989D02*
X9121669Y-13107989D01*
X9140717Y-13117513D01*
X9150241Y-13127036D01*
X9159765Y-13146084D01*
X9169288Y-13184179D01*
X9169288Y-13231798D01*
X9159765Y-13269893D01*
X9150241Y-13288941D01*
X9140717Y-13298465D01*
X9121669Y-13307989D01*
X9102622Y-13307989D01*
X9083574Y-13298465D01*
X9074050Y-13288941D01*
X9064527Y-13269893D01*
X9055003Y-13231798D01*
X9055003Y-13184179D01*
X9064527Y-13146084D01*
X9074050Y-13127036D01*
X9083574Y-13117513D01*
X9102622Y-13107989D01*
X9255003Y-13307989D02*
X9255003Y-13174655D01*
X9255003Y-13193703D02*
X9264527Y-13184179D01*
X9283574Y-13174655D01*
X9312146Y-13174655D01*
X9331193Y-13184179D01*
X9340717Y-13203227D01*
X9340717Y-13307989D01*
X9340717Y-13203227D02*
X9350241Y-13184179D01*
X9369288Y-13174655D01*
X9397860Y-13174655D01*
X9416907Y-13184179D01*
X9426431Y-13203227D01*
X9426431Y-13307989D01*
X9521669Y-13307989D02*
X9521669Y-13174655D01*
X9521669Y-13193703D02*
X9531193Y-13184179D01*
X9550241Y-13174655D01*
X9578812Y-13174655D01*
X9597860Y-13184179D01*
X9607384Y-13203227D01*
X9607384Y-13307989D01*
X9607384Y-13203227D02*
X9616907Y-13184179D01*
X9635955Y-13174655D01*
X9664527Y-13174655D01*
X9683574Y-13184179D01*
X9693098Y-13203227D01*
X9693098Y-13307989D01*
X10083574Y-13098465D02*
X9912146Y-13355608D01*
X10340717Y-13107989D02*
X10359765Y-13107989D01*
X10378812Y-13117513D01*
X10388336Y-13127036D01*
X10397860Y-13146084D01*
X10407384Y-13184179D01*
X10407384Y-13231798D01*
X10397860Y-13269893D01*
X10388336Y-13288941D01*
X10378812Y-13298465D01*
X10359765Y-13307989D01*
X10340717Y-13307989D01*
X10321669Y-13298465D01*
X10312146Y-13288941D01*
X10302622Y-13269893D01*
X10293098Y-13231798D01*
X10293098Y-13184179D01*
X10302622Y-13146084D01*
X10312146Y-13127036D01*
X10321669Y-13117513D01*
X10340717Y-13107989D01*
X10493098Y-13288941D02*
X10502622Y-13298465D01*
X10493098Y-13307989D01*
X10483574Y-13298465D01*
X10493098Y-13288941D01*
X10493098Y-13307989D01*
X10626431Y-13107989D02*
X10645479Y-13107989D01*
X10664527Y-13117513D01*
X10674050Y-13127036D01*
X10683574Y-13146084D01*
X10693098Y-13184179D01*
X10693098Y-13231798D01*
X10683574Y-13269893D01*
X10674050Y-13288941D01*
X10664527Y-13298465D01*
X10645479Y-13307989D01*
X10626431Y-13307989D01*
X10607384Y-13298465D01*
X10597860Y-13288941D01*
X10588336Y-13269893D01*
X10578812Y-13231798D01*
X10578812Y-13184179D01*
X10588336Y-13146084D01*
X10597860Y-13127036D01*
X10607384Y-13117513D01*
X10626431Y-13107989D01*
X10816907Y-13107989D02*
X10835955Y-13107989D01*
X10855003Y-13117513D01*
X10864527Y-13127036D01*
X10874050Y-13146084D01*
X10883574Y-13184179D01*
X10883574Y-13231798D01*
X10874050Y-13269893D01*
X10864527Y-13288941D01*
X10855003Y-13298465D01*
X10835955Y-13307989D01*
X10816907Y-13307989D01*
X10797860Y-13298465D01*
X10788336Y-13288941D01*
X10778812Y-13269893D01*
X10769288Y-13231798D01*
X10769288Y-13184179D01*
X10778812Y-13146084D01*
X10788336Y-13127036D01*
X10797860Y-13117513D01*
X10816907Y-13107989D01*
X10978812Y-13307989D02*
X11016907Y-13307989D01*
X11035955Y-13298465D01*
X11045479Y-13288941D01*
X11064527Y-13260370D01*
X11074050Y-13222274D01*
X11074050Y-13146084D01*
X11064527Y-13127036D01*
X11055003Y-13117513D01*
X11035955Y-13107989D01*
X10997860Y-13107989D01*
X10978812Y-13117513D01*
X10969288Y-13127036D01*
X10959765Y-13146084D01*
X10959765Y-13193703D01*
X10969288Y-13212751D01*
X10978812Y-13222274D01*
X10997860Y-13231798D01*
X11035955Y-13231798D01*
X11055003Y-13222274D01*
X11064527Y-13212751D01*
X11074050Y-13193703D01*
X11188336Y-13193703D02*
X11169288Y-13184179D01*
X11159765Y-13174655D01*
X11150241Y-13155608D01*
X11150241Y-13146084D01*
X11159765Y-13127036D01*
X11169288Y-13117513D01*
X11188336Y-13107989D01*
X11226431Y-13107989D01*
X11245479Y-13117513D01*
X11255003Y-13127036D01*
X11264526Y-13146084D01*
X11264526Y-13155608D01*
X11255003Y-13174655D01*
X11245479Y-13184179D01*
X11226431Y-13193703D01*
X11188336Y-13193703D01*
X11169288Y-13203227D01*
X11159765Y-13212751D01*
X11150241Y-13231798D01*
X11150241Y-13269893D01*
X11159765Y-13288941D01*
X11169288Y-13298465D01*
X11188336Y-13307989D01*
X11226431Y-13307989D01*
X11245479Y-13298465D01*
X11255003Y-13288941D01*
X11264526Y-13269893D01*
X11264526Y-13231798D01*
X11255003Y-13212751D01*
X11245479Y-13203227D01*
X11226431Y-13193703D01*
X11340717Y-13107989D02*
X11340717Y-13146084D01*
X11416907Y-13107989D02*
X11416907Y-13146084D01*
X11712145Y-13384179D02*
X11702622Y-13374655D01*
X11683574Y-13346084D01*
X11674050Y-13327036D01*
X11664526Y-13298465D01*
X11655003Y-13250846D01*
X11655003Y-13212751D01*
X11664526Y-13165132D01*
X11674050Y-13136560D01*
X11683574Y-13117513D01*
X11702622Y-13088941D01*
X11712145Y-13079417D01*
X11778812Y-13127036D02*
X11788336Y-13117513D01*
X11807384Y-13107989D01*
X11855003Y-13107989D01*
X11874050Y-13117513D01*
X11883574Y-13127036D01*
X11893098Y-13146084D01*
X11893098Y-13165132D01*
X11883574Y-13193703D01*
X11769288Y-13307989D01*
X11893098Y-13307989D01*
X12083574Y-13307989D02*
X11969288Y-13307989D01*
X12026431Y-13307989D02*
X12026431Y-13107989D01*
X12007384Y-13136560D01*
X11988336Y-13155608D01*
X11969288Y-13165132D01*
X12255003Y-13174655D02*
X12255003Y-13307989D01*
X12207384Y-13098465D02*
X12159765Y-13241322D01*
X12283574Y-13241322D01*
X12512145Y-13307989D02*
X12512145Y-13107989D01*
X12597860Y-13307989D02*
X12597860Y-13203227D01*
X12588336Y-13184179D01*
X12569288Y-13174655D01*
X12540717Y-13174655D01*
X12521669Y-13184179D01*
X12512145Y-13193703D01*
X12721669Y-13307989D02*
X12702622Y-13298465D01*
X12693098Y-13288941D01*
X12683574Y-13269893D01*
X12683574Y-13212751D01*
X12693098Y-13193703D01*
X12702622Y-13184179D01*
X12721669Y-13174655D01*
X12750241Y-13174655D01*
X12769288Y-13184179D01*
X12778812Y-13193703D01*
X12788336Y-13212751D01*
X12788336Y-13269893D01*
X12778812Y-13288941D01*
X12769288Y-13298465D01*
X12750241Y-13307989D01*
X12721669Y-13307989D01*
X12902622Y-13307989D02*
X12883574Y-13298465D01*
X12874050Y-13279417D01*
X12874050Y-13107989D01*
X13055003Y-13298465D02*
X13035955Y-13307989D01*
X12997860Y-13307989D01*
X12978812Y-13298465D01*
X12969288Y-13279417D01*
X12969288Y-13203227D01*
X12978812Y-13184179D01*
X12997860Y-13174655D01*
X13035955Y-13174655D01*
X13055003Y-13184179D01*
X13064526Y-13203227D01*
X13064526Y-13222274D01*
X12969288Y-13241322D01*
X13140717Y-13298465D02*
X13159765Y-13307989D01*
X13197860Y-13307989D01*
X13216907Y-13298465D01*
X13226431Y-13279417D01*
X13226431Y-13269893D01*
X13216907Y-13250846D01*
X13197860Y-13241322D01*
X13169288Y-13241322D01*
X13150241Y-13231798D01*
X13140717Y-13212751D01*
X13140717Y-13203227D01*
X13150241Y-13184179D01*
X13169288Y-13174655D01*
X13197860Y-13174655D01*
X13216907Y-13184179D01*
X13293098Y-13384179D02*
X13302622Y-13374655D01*
X13321669Y-13346084D01*
X13331193Y-13327036D01*
X13340717Y-13298465D01*
X13350241Y-13250846D01*
X13350241Y-13212751D01*
X13340717Y-13165132D01*
X13331193Y-13136560D01*
X13321669Y-13117513D01*
X13302622Y-13088941D01*
X13293098Y-13079417D01*
D13*
X8140241Y-13481513D02*
G75*
G03*
X8140241Y-13481513I-15000J0D01*
G01*
D11*
X8435955Y-13371989D02*
X8455003Y-13371989D01*
X8474050Y-13381513D01*
X8483574Y-13391036D01*
X8493098Y-13410084D01*
X8502622Y-13448179D01*
X8502622Y-13495798D01*
X8493098Y-13533893D01*
X8483574Y-13552941D01*
X8474050Y-13562465D01*
X8455003Y-13571989D01*
X8435955Y-13571989D01*
X8416907Y-13562465D01*
X8407384Y-13552941D01*
X8397860Y-13533893D01*
X8388336Y-13495798D01*
X8388336Y-13448179D01*
X8397860Y-13410084D01*
X8407384Y-13391036D01*
X8416907Y-13381513D01*
X8435955Y-13371989D01*
X8588336Y-13552941D02*
X8597860Y-13562465D01*
X8588336Y-13571989D01*
X8578812Y-13562465D01*
X8588336Y-13552941D01*
X8588336Y-13571989D01*
X8664527Y-13371989D02*
X8788336Y-13371989D01*
X8721669Y-13448179D01*
X8750241Y-13448179D01*
X8769288Y-13457703D01*
X8778812Y-13467227D01*
X8788336Y-13486274D01*
X8788336Y-13533893D01*
X8778812Y-13552941D01*
X8769288Y-13562465D01*
X8750241Y-13571989D01*
X8693098Y-13571989D01*
X8674050Y-13562465D01*
X8664527Y-13552941D01*
X8912146Y-13371989D02*
X8931193Y-13371989D01*
X8950241Y-13381513D01*
X8959765Y-13391036D01*
X8969288Y-13410084D01*
X8978812Y-13448179D01*
X8978812Y-13495798D01*
X8969288Y-13533893D01*
X8959765Y-13552941D01*
X8950241Y-13562465D01*
X8931193Y-13571989D01*
X8912146Y-13571989D01*
X8893098Y-13562465D01*
X8883574Y-13552941D01*
X8874050Y-13533893D01*
X8864527Y-13495798D01*
X8864527Y-13448179D01*
X8874050Y-13410084D01*
X8883574Y-13391036D01*
X8893098Y-13381513D01*
X8912146Y-13371989D01*
X9102622Y-13371989D02*
X9121669Y-13371989D01*
X9140717Y-13381513D01*
X9150241Y-13391036D01*
X9159765Y-13410084D01*
X9169288Y-13448179D01*
X9169288Y-13495798D01*
X9159765Y-13533893D01*
X9150241Y-13552941D01*
X9140717Y-13562465D01*
X9121669Y-13571989D01*
X9102622Y-13571989D01*
X9083574Y-13562465D01*
X9074050Y-13552941D01*
X9064527Y-13533893D01*
X9055003Y-13495798D01*
X9055003Y-13448179D01*
X9064527Y-13410084D01*
X9074050Y-13391036D01*
X9083574Y-13381513D01*
X9102622Y-13371989D01*
X9255003Y-13571989D02*
X9255003Y-13438655D01*
X9255003Y-13457703D02*
X9264527Y-13448179D01*
X9283574Y-13438655D01*
X9312146Y-13438655D01*
X9331193Y-13448179D01*
X9340717Y-13467227D01*
X9340717Y-13571989D01*
X9340717Y-13467227D02*
X9350241Y-13448179D01*
X9369288Y-13438655D01*
X9397860Y-13438655D01*
X9416907Y-13448179D01*
X9426431Y-13467227D01*
X9426431Y-13571989D01*
X9521669Y-13571989D02*
X9521669Y-13438655D01*
X9521669Y-13457703D02*
X9531193Y-13448179D01*
X9550241Y-13438655D01*
X9578812Y-13438655D01*
X9597860Y-13448179D01*
X9607384Y-13467227D01*
X9607384Y-13571989D01*
X9607384Y-13467227D02*
X9616907Y-13448179D01*
X9635955Y-13438655D01*
X9664527Y-13438655D01*
X9683574Y-13448179D01*
X9693098Y-13467227D01*
X9693098Y-13571989D01*
X10083574Y-13362465D02*
X9912146Y-13619608D01*
X10340717Y-13371989D02*
X10359765Y-13371989D01*
X10378812Y-13381513D01*
X10388336Y-13391036D01*
X10397860Y-13410084D01*
X10407384Y-13448179D01*
X10407384Y-13495798D01*
X10397860Y-13533893D01*
X10388336Y-13552941D01*
X10378812Y-13562465D01*
X10359765Y-13571989D01*
X10340717Y-13571989D01*
X10321669Y-13562465D01*
X10312146Y-13552941D01*
X10302622Y-13533893D01*
X10293098Y-13495798D01*
X10293098Y-13448179D01*
X10302622Y-13410084D01*
X10312146Y-13391036D01*
X10321669Y-13381513D01*
X10340717Y-13371989D01*
X10493098Y-13552941D02*
X10502622Y-13562465D01*
X10493098Y-13571989D01*
X10483574Y-13562465D01*
X10493098Y-13552941D01*
X10493098Y-13571989D01*
X10626431Y-13371989D02*
X10645479Y-13371989D01*
X10664527Y-13381513D01*
X10674050Y-13391036D01*
X10683574Y-13410084D01*
X10693098Y-13448179D01*
X10693098Y-13495798D01*
X10683574Y-13533893D01*
X10674050Y-13552941D01*
X10664527Y-13562465D01*
X10645479Y-13571989D01*
X10626431Y-13571989D01*
X10607384Y-13562465D01*
X10597860Y-13552941D01*
X10588336Y-13533893D01*
X10578812Y-13495798D01*
X10578812Y-13448179D01*
X10588336Y-13410084D01*
X10597860Y-13391036D01*
X10607384Y-13381513D01*
X10626431Y-13371989D01*
X10883574Y-13571989D02*
X10769288Y-13571989D01*
X10826431Y-13571989D02*
X10826431Y-13371989D01*
X10807384Y-13400560D01*
X10788336Y-13419608D01*
X10769288Y-13429132D01*
X11074050Y-13571989D02*
X10959765Y-13571989D01*
X11016907Y-13571989D02*
X11016907Y-13371989D01*
X10997860Y-13400560D01*
X10978812Y-13419608D01*
X10959765Y-13429132D01*
X11188336Y-13457703D02*
X11169288Y-13448179D01*
X11159765Y-13438655D01*
X11150241Y-13419608D01*
X11150241Y-13410084D01*
X11159765Y-13391036D01*
X11169288Y-13381513D01*
X11188336Y-13371989D01*
X11226431Y-13371989D01*
X11245479Y-13381513D01*
X11255003Y-13391036D01*
X11264526Y-13410084D01*
X11264526Y-13419608D01*
X11255003Y-13438655D01*
X11245479Y-13448179D01*
X11226431Y-13457703D01*
X11188336Y-13457703D01*
X11169288Y-13467227D01*
X11159765Y-13476751D01*
X11150241Y-13495798D01*
X11150241Y-13533893D01*
X11159765Y-13552941D01*
X11169288Y-13562465D01*
X11188336Y-13571989D01*
X11226431Y-13571989D01*
X11245479Y-13562465D01*
X11255003Y-13552941D01*
X11264526Y-13533893D01*
X11264526Y-13495798D01*
X11255003Y-13476751D01*
X11245479Y-13467227D01*
X11226431Y-13457703D01*
X11340717Y-13371989D02*
X11340717Y-13410084D01*
X11416907Y-13371989D02*
X11416907Y-13410084D01*
X11712145Y-13648179D02*
X11702622Y-13638655D01*
X11683574Y-13610084D01*
X11674050Y-13591036D01*
X11664526Y-13562465D01*
X11655003Y-13514846D01*
X11655003Y-13476751D01*
X11664526Y-13429132D01*
X11674050Y-13400560D01*
X11683574Y-13381513D01*
X11702622Y-13352941D01*
X11712145Y-13343417D01*
X11893098Y-13571989D02*
X11778812Y-13571989D01*
X11835955Y-13571989D02*
X11835955Y-13371989D01*
X11816907Y-13400560D01*
X11797860Y-13419608D01*
X11778812Y-13429132D01*
X12016907Y-13371989D02*
X12035955Y-13371989D01*
X12055003Y-13381513D01*
X12064526Y-13391036D01*
X12074050Y-13410084D01*
X12083574Y-13448179D01*
X12083574Y-13495798D01*
X12074050Y-13533893D01*
X12064526Y-13552941D01*
X12055003Y-13562465D01*
X12035955Y-13571989D01*
X12016907Y-13571989D01*
X11997860Y-13562465D01*
X11988336Y-13552941D01*
X11978812Y-13533893D01*
X11969288Y-13495798D01*
X11969288Y-13448179D01*
X11978812Y-13410084D01*
X11988336Y-13391036D01*
X11997860Y-13381513D01*
X12016907Y-13371989D01*
X12321669Y-13571989D02*
X12321669Y-13371989D01*
X12407384Y-13571989D02*
X12407384Y-13467227D01*
X12397860Y-13448179D01*
X12378812Y-13438655D01*
X12350241Y-13438655D01*
X12331193Y-13448179D01*
X12321669Y-13457703D01*
X12531193Y-13571989D02*
X12512145Y-13562465D01*
X12502622Y-13552941D01*
X12493098Y-13533893D01*
X12493098Y-13476751D01*
X12502622Y-13457703D01*
X12512145Y-13448179D01*
X12531193Y-13438655D01*
X12559765Y-13438655D01*
X12578812Y-13448179D01*
X12588336Y-13457703D01*
X12597860Y-13476751D01*
X12597860Y-13533893D01*
X12588336Y-13552941D01*
X12578812Y-13562465D01*
X12559765Y-13571989D01*
X12531193Y-13571989D01*
X12712145Y-13571989D02*
X12693098Y-13562465D01*
X12683574Y-13543417D01*
X12683574Y-13371989D01*
X12864526Y-13562465D02*
X12845479Y-13571989D01*
X12807384Y-13571989D01*
X12788336Y-13562465D01*
X12778812Y-13543417D01*
X12778812Y-13467227D01*
X12788336Y-13448179D01*
X12807384Y-13438655D01*
X12845479Y-13438655D01*
X12864526Y-13448179D01*
X12874050Y-13467227D01*
X12874050Y-13486274D01*
X12778812Y-13505322D01*
X12950241Y-13562465D02*
X12969288Y-13571989D01*
X13007384Y-13571989D01*
X13026431Y-13562465D01*
X13035955Y-13543417D01*
X13035955Y-13533893D01*
X13026431Y-13514846D01*
X13007384Y-13505322D01*
X12978812Y-13505322D01*
X12959765Y-13495798D01*
X12950241Y-13476751D01*
X12950241Y-13467227D01*
X12959765Y-13448179D01*
X12978812Y-13438655D01*
X13007384Y-13438655D01*
X13026431Y-13448179D01*
X13102622Y-13648179D02*
X13112145Y-13638655D01*
X13131193Y-13610084D01*
X13140717Y-13591036D01*
X13150241Y-13562465D01*
X13159765Y-13514846D01*
X13159765Y-13476751D01*
X13150241Y-13429132D01*
X13140717Y-13400560D01*
X13131193Y-13381513D01*
X13112145Y-13352941D01*
X13102622Y-13343417D01*
D14*
X8110241Y-13715513D02*
X8110241Y-13775513D01*
X8080241Y-13745513D02*
X8140241Y-13745513D01*
D11*
X8435955Y-13635989D02*
X8455003Y-13635989D01*
X8474050Y-13645513D01*
X8483574Y-13655036D01*
X8493098Y-13674084D01*
X8502622Y-13712179D01*
X8502622Y-13759798D01*
X8493098Y-13797893D01*
X8483574Y-13816941D01*
X8474050Y-13826465D01*
X8455003Y-13835989D01*
X8435955Y-13835989D01*
X8416907Y-13826465D01*
X8407384Y-13816941D01*
X8397860Y-13797893D01*
X8388336Y-13759798D01*
X8388336Y-13712179D01*
X8397860Y-13674084D01*
X8407384Y-13655036D01*
X8416907Y-13645513D01*
X8435955Y-13635989D01*
X8588336Y-13816941D02*
X8597860Y-13826465D01*
X8588336Y-13835989D01*
X8578812Y-13826465D01*
X8588336Y-13816941D01*
X8588336Y-13835989D01*
X8769288Y-13635989D02*
X8731193Y-13635989D01*
X8712146Y-13645513D01*
X8702622Y-13655036D01*
X8683574Y-13683608D01*
X8674050Y-13721703D01*
X8674050Y-13797893D01*
X8683574Y-13816941D01*
X8693098Y-13826465D01*
X8712146Y-13835989D01*
X8750241Y-13835989D01*
X8769288Y-13826465D01*
X8778812Y-13816941D01*
X8788336Y-13797893D01*
X8788336Y-13750274D01*
X8778812Y-13731227D01*
X8769288Y-13721703D01*
X8750241Y-13712179D01*
X8712146Y-13712179D01*
X8693098Y-13721703D01*
X8683574Y-13731227D01*
X8674050Y-13750274D01*
X8912146Y-13635989D02*
X8931193Y-13635989D01*
X8950241Y-13645513D01*
X8959765Y-13655036D01*
X8969288Y-13674084D01*
X8978812Y-13712179D01*
X8978812Y-13759798D01*
X8969288Y-13797893D01*
X8959765Y-13816941D01*
X8950241Y-13826465D01*
X8931193Y-13835989D01*
X8912146Y-13835989D01*
X8893098Y-13826465D01*
X8883574Y-13816941D01*
X8874050Y-13797893D01*
X8864527Y-13759798D01*
X8864527Y-13712179D01*
X8874050Y-13674084D01*
X8883574Y-13655036D01*
X8893098Y-13645513D01*
X8912146Y-13635989D01*
X9102622Y-13635989D02*
X9121669Y-13635989D01*
X9140717Y-13645513D01*
X9150241Y-13655036D01*
X9159765Y-13674084D01*
X9169288Y-13712179D01*
X9169288Y-13759798D01*
X9159765Y-13797893D01*
X9150241Y-13816941D01*
X9140717Y-13826465D01*
X9121669Y-13835989D01*
X9102622Y-13835989D01*
X9083574Y-13826465D01*
X9074050Y-13816941D01*
X9064527Y-13797893D01*
X9055003Y-13759798D01*
X9055003Y-13712179D01*
X9064527Y-13674084D01*
X9074050Y-13655036D01*
X9083574Y-13645513D01*
X9102622Y-13635989D01*
X9255003Y-13835989D02*
X9255003Y-13702655D01*
X9255003Y-13721703D02*
X9264527Y-13712179D01*
X9283574Y-13702655D01*
X9312146Y-13702655D01*
X9331193Y-13712179D01*
X9340717Y-13731227D01*
X9340717Y-13835989D01*
X9340717Y-13731227D02*
X9350241Y-13712179D01*
X9369288Y-13702655D01*
X9397860Y-13702655D01*
X9416907Y-13712179D01*
X9426431Y-13731227D01*
X9426431Y-13835989D01*
X9521669Y-13835989D02*
X9521669Y-13702655D01*
X9521669Y-13721703D02*
X9531193Y-13712179D01*
X9550241Y-13702655D01*
X9578812Y-13702655D01*
X9597860Y-13712179D01*
X9607384Y-13731227D01*
X9607384Y-13835989D01*
X9607384Y-13731227D02*
X9616907Y-13712179D01*
X9635955Y-13702655D01*
X9664527Y-13702655D01*
X9683574Y-13712179D01*
X9693098Y-13731227D01*
X9693098Y-13835989D01*
X10083574Y-13626465D02*
X9912146Y-13883608D01*
X10340717Y-13635989D02*
X10359765Y-13635989D01*
X10378812Y-13645513D01*
X10388336Y-13655036D01*
X10397860Y-13674084D01*
X10407384Y-13712179D01*
X10407384Y-13759798D01*
X10397860Y-13797893D01*
X10388336Y-13816941D01*
X10378812Y-13826465D01*
X10359765Y-13835989D01*
X10340717Y-13835989D01*
X10321669Y-13826465D01*
X10312146Y-13816941D01*
X10302622Y-13797893D01*
X10293098Y-13759798D01*
X10293098Y-13712179D01*
X10302622Y-13674084D01*
X10312146Y-13655036D01*
X10321669Y-13645513D01*
X10340717Y-13635989D01*
X10493098Y-13816941D02*
X10502622Y-13826465D01*
X10493098Y-13835989D01*
X10483574Y-13826465D01*
X10493098Y-13816941D01*
X10493098Y-13835989D01*
X10626431Y-13635989D02*
X10645479Y-13635989D01*
X10664527Y-13645513D01*
X10674050Y-13655036D01*
X10683574Y-13674084D01*
X10693098Y-13712179D01*
X10693098Y-13759798D01*
X10683574Y-13797893D01*
X10674050Y-13816941D01*
X10664527Y-13826465D01*
X10645479Y-13835989D01*
X10626431Y-13835989D01*
X10607384Y-13826465D01*
X10597860Y-13816941D01*
X10588336Y-13797893D01*
X10578812Y-13759798D01*
X10578812Y-13712179D01*
X10588336Y-13674084D01*
X10597860Y-13655036D01*
X10607384Y-13645513D01*
X10626431Y-13635989D01*
X10769288Y-13655036D02*
X10778812Y-13645513D01*
X10797860Y-13635989D01*
X10845479Y-13635989D01*
X10864527Y-13645513D01*
X10874050Y-13655036D01*
X10883574Y-13674084D01*
X10883574Y-13693132D01*
X10874050Y-13721703D01*
X10759765Y-13835989D01*
X10883574Y-13835989D01*
X10950241Y-13635989D02*
X11074050Y-13635989D01*
X11007384Y-13712179D01*
X11035955Y-13712179D01*
X11055003Y-13721703D01*
X11064527Y-13731227D01*
X11074050Y-13750274D01*
X11074050Y-13797893D01*
X11064527Y-13816941D01*
X11055003Y-13826465D01*
X11035955Y-13835989D01*
X10978812Y-13835989D01*
X10959765Y-13826465D01*
X10950241Y-13816941D01*
X11245479Y-13635989D02*
X11207384Y-13635989D01*
X11188336Y-13645513D01*
X11178812Y-13655036D01*
X11159765Y-13683608D01*
X11150241Y-13721703D01*
X11150241Y-13797893D01*
X11159765Y-13816941D01*
X11169288Y-13826465D01*
X11188336Y-13835989D01*
X11226431Y-13835989D01*
X11245479Y-13826465D01*
X11255003Y-13816941D01*
X11264526Y-13797893D01*
X11264526Y-13750274D01*
X11255003Y-13731227D01*
X11245479Y-13721703D01*
X11226431Y-13712179D01*
X11188336Y-13712179D01*
X11169288Y-13721703D01*
X11159765Y-13731227D01*
X11150241Y-13750274D01*
X11340717Y-13635989D02*
X11340717Y-13674084D01*
X11416907Y-13635989D02*
X11416907Y-13674084D01*
X11712145Y-13912179D02*
X11702622Y-13902655D01*
X11683574Y-13874084D01*
X11674050Y-13855036D01*
X11664526Y-13826465D01*
X11655003Y-13778846D01*
X11655003Y-13740751D01*
X11664526Y-13693132D01*
X11674050Y-13664560D01*
X11683574Y-13645513D01*
X11702622Y-13616941D01*
X11712145Y-13607417D01*
X11826431Y-13635989D02*
X11845479Y-13635989D01*
X11864526Y-13645513D01*
X11874050Y-13655036D01*
X11883574Y-13674084D01*
X11893098Y-13712179D01*
X11893098Y-13759798D01*
X11883574Y-13797893D01*
X11874050Y-13816941D01*
X11864526Y-13826465D01*
X11845479Y-13835989D01*
X11826431Y-13835989D01*
X11807384Y-13826465D01*
X11797860Y-13816941D01*
X11788336Y-13797893D01*
X11778812Y-13759798D01*
X11778812Y-13712179D01*
X11788336Y-13674084D01*
X11797860Y-13655036D01*
X11807384Y-13645513D01*
X11826431Y-13635989D01*
X12131193Y-13835989D02*
X12131193Y-13635989D01*
X12216907Y-13835989D02*
X12216907Y-13731227D01*
X12207384Y-13712179D01*
X12188336Y-13702655D01*
X12159765Y-13702655D01*
X12140717Y-13712179D01*
X12131193Y-13721703D01*
X12340717Y-13835989D02*
X12321669Y-13826465D01*
X12312145Y-13816941D01*
X12302622Y-13797893D01*
X12302622Y-13740751D01*
X12312145Y-13721703D01*
X12321669Y-13712179D01*
X12340717Y-13702655D01*
X12369288Y-13702655D01*
X12388336Y-13712179D01*
X12397860Y-13721703D01*
X12407384Y-13740751D01*
X12407384Y-13797893D01*
X12397860Y-13816941D01*
X12388336Y-13826465D01*
X12369288Y-13835989D01*
X12340717Y-13835989D01*
X12521669Y-13835989D02*
X12502622Y-13826465D01*
X12493098Y-13807417D01*
X12493098Y-13635989D01*
X12674050Y-13826465D02*
X12655003Y-13835989D01*
X12616907Y-13835989D01*
X12597860Y-13826465D01*
X12588336Y-13807417D01*
X12588336Y-13731227D01*
X12597860Y-13712179D01*
X12616907Y-13702655D01*
X12655003Y-13702655D01*
X12674050Y-13712179D01*
X12683574Y-13731227D01*
X12683574Y-13750274D01*
X12588336Y-13769322D01*
X12759765Y-13826465D02*
X12778812Y-13835989D01*
X12816907Y-13835989D01*
X12835955Y-13826465D01*
X12845479Y-13807417D01*
X12845479Y-13797893D01*
X12835955Y-13778846D01*
X12816907Y-13769322D01*
X12788336Y-13769322D01*
X12769288Y-13759798D01*
X12759765Y-13740751D01*
X12759765Y-13731227D01*
X12769288Y-13712179D01*
X12788336Y-13702655D01*
X12816907Y-13702655D01*
X12835955Y-13712179D01*
X13083574Y-13759798D02*
X13235955Y-13759798D01*
X13159765Y-13835989D02*
X13159765Y-13683608D01*
X13569288Y-13702655D02*
X13569288Y-13835989D01*
X13521669Y-13626465D02*
X13474050Y-13769322D01*
X13597860Y-13769322D01*
X13816907Y-13826465D02*
X13835955Y-13835989D01*
X13874050Y-13835989D01*
X13893098Y-13826465D01*
X13902622Y-13807417D01*
X13902622Y-13797893D01*
X13893098Y-13778846D01*
X13874050Y-13769322D01*
X13845479Y-13769322D01*
X13826431Y-13759798D01*
X13816907Y-13740751D01*
X13816907Y-13731227D01*
X13826431Y-13712179D01*
X13845479Y-13702655D01*
X13874050Y-13702655D01*
X13893098Y-13712179D01*
X14016907Y-13835989D02*
X13997860Y-13826465D01*
X13988336Y-13807417D01*
X13988336Y-13635989D01*
X14121669Y-13835989D02*
X14102622Y-13826465D01*
X14093098Y-13816941D01*
X14083574Y-13797893D01*
X14083574Y-13740751D01*
X14093098Y-13721703D01*
X14102622Y-13712179D01*
X14121669Y-13702655D01*
X14150241Y-13702655D01*
X14169288Y-13712179D01*
X14178812Y-13721703D01*
X14188336Y-13740751D01*
X14188336Y-13797893D01*
X14178812Y-13816941D01*
X14169288Y-13826465D01*
X14150241Y-13835989D01*
X14121669Y-13835989D01*
X14245479Y-13702655D02*
X14321669Y-13702655D01*
X14274050Y-13635989D02*
X14274050Y-13807417D01*
X14283574Y-13826465D01*
X14302622Y-13835989D01*
X14321669Y-13835989D01*
X14378812Y-13826465D02*
X14397860Y-13835989D01*
X14435955Y-13835989D01*
X14455003Y-13826465D01*
X14464526Y-13807417D01*
X14464526Y-13797893D01*
X14455003Y-13778846D01*
X14435955Y-13769322D01*
X14407384Y-13769322D01*
X14388336Y-13759798D01*
X14378812Y-13740751D01*
X14378812Y-13731227D01*
X14388336Y-13712179D01*
X14407384Y-13702655D01*
X14435955Y-13702655D01*
X14455003Y-13712179D01*
X14531193Y-13912179D02*
X14540717Y-13902655D01*
X14559765Y-13874084D01*
X14569288Y-13855036D01*
X14578812Y-13826465D01*
X14588336Y-13778846D01*
X14588336Y-13740751D01*
X14578812Y-13693132D01*
X14569288Y-13664560D01*
X14559765Y-13645513D01*
X14540717Y-13616941D01*
X14531193Y-13607417D01*
D15*
X8130722Y-14032494D02*
X8130722Y-13986531D01*
X8084760Y-13986531D01*
X8084760Y-14032494D01*
X8130722Y-14032494D01*
D11*
X8435955Y-13899989D02*
X8455003Y-13899989D01*
X8474050Y-13909513D01*
X8483574Y-13919036D01*
X8493098Y-13938084D01*
X8502622Y-13976179D01*
X8502622Y-14023798D01*
X8493098Y-14061893D01*
X8483574Y-14080941D01*
X8474050Y-14090465D01*
X8455003Y-14099989D01*
X8435955Y-14099989D01*
X8416907Y-14090465D01*
X8407384Y-14080941D01*
X8397860Y-14061893D01*
X8388336Y-14023798D01*
X8388336Y-13976179D01*
X8397860Y-13938084D01*
X8407384Y-13919036D01*
X8416907Y-13909513D01*
X8435955Y-13899989D01*
X8588336Y-14080941D02*
X8597860Y-14090465D01*
X8588336Y-14099989D01*
X8578812Y-14090465D01*
X8588336Y-14080941D01*
X8588336Y-14099989D01*
X8769288Y-13899989D02*
X8731193Y-13899989D01*
X8712146Y-13909513D01*
X8702622Y-13919036D01*
X8683574Y-13947608D01*
X8674050Y-13985703D01*
X8674050Y-14061893D01*
X8683574Y-14080941D01*
X8693098Y-14090465D01*
X8712146Y-14099989D01*
X8750241Y-14099989D01*
X8769288Y-14090465D01*
X8778812Y-14080941D01*
X8788336Y-14061893D01*
X8788336Y-14014274D01*
X8778812Y-13995227D01*
X8769288Y-13985703D01*
X8750241Y-13976179D01*
X8712146Y-13976179D01*
X8693098Y-13985703D01*
X8683574Y-13995227D01*
X8674050Y-14014274D01*
X8969288Y-13899989D02*
X8874050Y-13899989D01*
X8864527Y-13995227D01*
X8874050Y-13985703D01*
X8893098Y-13976179D01*
X8940717Y-13976179D01*
X8959765Y-13985703D01*
X8969288Y-13995227D01*
X8978812Y-14014274D01*
X8978812Y-14061893D01*
X8969288Y-14080941D01*
X8959765Y-14090465D01*
X8940717Y-14099989D01*
X8893098Y-14099989D01*
X8874050Y-14090465D01*
X8864527Y-14080941D01*
X9102622Y-13899989D02*
X9121669Y-13899989D01*
X9140717Y-13909513D01*
X9150241Y-13919036D01*
X9159765Y-13938084D01*
X9169288Y-13976179D01*
X9169288Y-14023798D01*
X9159765Y-14061893D01*
X9150241Y-14080941D01*
X9140717Y-14090465D01*
X9121669Y-14099989D01*
X9102622Y-14099989D01*
X9083574Y-14090465D01*
X9074050Y-14080941D01*
X9064527Y-14061893D01*
X9055003Y-14023798D01*
X9055003Y-13976179D01*
X9064527Y-13938084D01*
X9074050Y-13919036D01*
X9083574Y-13909513D01*
X9102622Y-13899989D01*
X9255003Y-14099989D02*
X9255003Y-13966655D01*
X9255003Y-13985703D02*
X9264527Y-13976179D01*
X9283574Y-13966655D01*
X9312146Y-13966655D01*
X9331193Y-13976179D01*
X9340717Y-13995227D01*
X9340717Y-14099989D01*
X9340717Y-13995227D02*
X9350241Y-13976179D01*
X9369288Y-13966655D01*
X9397860Y-13966655D01*
X9416907Y-13976179D01*
X9426431Y-13995227D01*
X9426431Y-14099989D01*
X9521669Y-14099989D02*
X9521669Y-13966655D01*
X9521669Y-13985703D02*
X9531193Y-13976179D01*
X9550241Y-13966655D01*
X9578812Y-13966655D01*
X9597860Y-13976179D01*
X9607384Y-13995227D01*
X9607384Y-14099989D01*
X9607384Y-13995227D02*
X9616907Y-13976179D01*
X9635955Y-13966655D01*
X9664527Y-13966655D01*
X9683574Y-13976179D01*
X9693098Y-13995227D01*
X9693098Y-14099989D01*
X10083574Y-13890465D02*
X9912146Y-14147608D01*
X10340717Y-13899989D02*
X10359765Y-13899989D01*
X10378812Y-13909513D01*
X10388336Y-13919036D01*
X10397860Y-13938084D01*
X10407384Y-13976179D01*
X10407384Y-14023798D01*
X10397860Y-14061893D01*
X10388336Y-14080941D01*
X10378812Y-14090465D01*
X10359765Y-14099989D01*
X10340717Y-14099989D01*
X10321669Y-14090465D01*
X10312146Y-14080941D01*
X10302622Y-14061893D01*
X10293098Y-14023798D01*
X10293098Y-13976179D01*
X10302622Y-13938084D01*
X10312146Y-13919036D01*
X10321669Y-13909513D01*
X10340717Y-13899989D01*
X10493098Y-14080941D02*
X10502622Y-14090465D01*
X10493098Y-14099989D01*
X10483574Y-14090465D01*
X10493098Y-14080941D01*
X10493098Y-14099989D01*
X10626431Y-13899989D02*
X10645479Y-13899989D01*
X10664527Y-13909513D01*
X10674050Y-13919036D01*
X10683574Y-13938084D01*
X10693098Y-13976179D01*
X10693098Y-14023798D01*
X10683574Y-14061893D01*
X10674050Y-14080941D01*
X10664527Y-14090465D01*
X10645479Y-14099989D01*
X10626431Y-14099989D01*
X10607384Y-14090465D01*
X10597860Y-14080941D01*
X10588336Y-14061893D01*
X10578812Y-14023798D01*
X10578812Y-13976179D01*
X10588336Y-13938084D01*
X10597860Y-13919036D01*
X10607384Y-13909513D01*
X10626431Y-13899989D01*
X10769288Y-13919036D02*
X10778812Y-13909513D01*
X10797860Y-13899989D01*
X10845479Y-13899989D01*
X10864527Y-13909513D01*
X10874050Y-13919036D01*
X10883574Y-13938084D01*
X10883574Y-13957132D01*
X10874050Y-13985703D01*
X10759765Y-14099989D01*
X10883574Y-14099989D01*
X11064527Y-13899989D02*
X10969288Y-13899989D01*
X10959765Y-13995227D01*
X10969288Y-13985703D01*
X10988336Y-13976179D01*
X11035955Y-13976179D01*
X11055003Y-13985703D01*
X11064527Y-13995227D01*
X11074050Y-14014274D01*
X11074050Y-14061893D01*
X11064527Y-14080941D01*
X11055003Y-14090465D01*
X11035955Y-14099989D01*
X10988336Y-14099989D01*
X10969288Y-14090465D01*
X10959765Y-14080941D01*
X11245479Y-13899989D02*
X11207384Y-13899989D01*
X11188336Y-13909513D01*
X11178812Y-13919036D01*
X11159765Y-13947608D01*
X11150241Y-13985703D01*
X11150241Y-14061893D01*
X11159765Y-14080941D01*
X11169288Y-14090465D01*
X11188336Y-14099989D01*
X11226431Y-14099989D01*
X11245479Y-14090465D01*
X11255003Y-14080941D01*
X11264526Y-14061893D01*
X11264526Y-14014274D01*
X11255003Y-13995227D01*
X11245479Y-13985703D01*
X11226431Y-13976179D01*
X11188336Y-13976179D01*
X11169288Y-13985703D01*
X11159765Y-13995227D01*
X11150241Y-14014274D01*
X11340717Y-13899989D02*
X11340717Y-13938084D01*
X11416907Y-13899989D02*
X11416907Y-13938084D01*
X11712145Y-14176179D02*
X11702622Y-14166655D01*
X11683574Y-14138084D01*
X11674050Y-14119036D01*
X11664526Y-14090465D01*
X11655003Y-14042846D01*
X11655003Y-14004751D01*
X11664526Y-13957132D01*
X11674050Y-13928560D01*
X11683574Y-13909513D01*
X11702622Y-13880941D01*
X11712145Y-13871417D01*
X11893098Y-14099989D02*
X11778812Y-14099989D01*
X11835955Y-14099989D02*
X11835955Y-13899989D01*
X11816907Y-13928560D01*
X11797860Y-13947608D01*
X11778812Y-13957132D01*
X11969288Y-13919036D02*
X11978812Y-13909513D01*
X11997860Y-13899989D01*
X12045479Y-13899989D01*
X12064526Y-13909513D01*
X12074050Y-13919036D01*
X12083574Y-13938084D01*
X12083574Y-13957132D01*
X12074050Y-13985703D01*
X11959765Y-14099989D01*
X12083574Y-14099989D01*
X12321669Y-14099989D02*
X12321669Y-13899989D01*
X12407384Y-14099989D02*
X12407384Y-13995227D01*
X12397860Y-13976179D01*
X12378812Y-13966655D01*
X12350241Y-13966655D01*
X12331193Y-13976179D01*
X12321669Y-13985703D01*
X12531193Y-14099989D02*
X12512145Y-14090465D01*
X12502622Y-14080941D01*
X12493098Y-14061893D01*
X12493098Y-14004751D01*
X12502622Y-13985703D01*
X12512145Y-13976179D01*
X12531193Y-13966655D01*
X12559765Y-13966655D01*
X12578812Y-13976179D01*
X12588336Y-13985703D01*
X12597860Y-14004751D01*
X12597860Y-14061893D01*
X12588336Y-14080941D01*
X12578812Y-14090465D01*
X12559765Y-14099989D01*
X12531193Y-14099989D01*
X12712145Y-14099989D02*
X12693098Y-14090465D01*
X12683574Y-14071417D01*
X12683574Y-13899989D01*
X12864526Y-14090465D02*
X12845479Y-14099989D01*
X12807384Y-14099989D01*
X12788336Y-14090465D01*
X12778812Y-14071417D01*
X12778812Y-13995227D01*
X12788336Y-13976179D01*
X12807384Y-13966655D01*
X12845479Y-13966655D01*
X12864526Y-13976179D01*
X12874050Y-13995227D01*
X12874050Y-14014274D01*
X12778812Y-14033322D01*
X12950241Y-14090465D02*
X12969288Y-14099989D01*
X13007384Y-14099989D01*
X13026431Y-14090465D01*
X13035955Y-14071417D01*
X13035955Y-14061893D01*
X13026431Y-14042846D01*
X13007384Y-14033322D01*
X12978812Y-14033322D01*
X12959765Y-14023798D01*
X12950241Y-14004751D01*
X12950241Y-13995227D01*
X12959765Y-13976179D01*
X12978812Y-13966655D01*
X13007384Y-13966655D01*
X13026431Y-13976179D01*
X13102622Y-14176179D02*
X13112145Y-14166655D01*
X13131193Y-14138084D01*
X13140717Y-14119036D01*
X13150241Y-14090465D01*
X13159765Y-14042846D01*
X13159765Y-14004751D01*
X13150241Y-13957132D01*
X13140717Y-13928560D01*
X13131193Y-13909513D01*
X13112145Y-13880941D01*
X13102622Y-13871417D01*
D16*
X8090241Y-14323513D02*
X8140241Y-14273513D01*
X8090241Y-14223513D01*
X8040241Y-14273513D01*
X8090241Y-14323513D01*
D11*
X8502622Y-14363989D02*
X8388336Y-14363989D01*
X8445479Y-14363989D02*
X8445479Y-14163989D01*
X8426431Y-14192560D01*
X8407384Y-14211608D01*
X8388336Y-14221132D01*
X8588336Y-14344941D02*
X8597860Y-14354465D01*
X8588336Y-14363989D01*
X8578812Y-14354465D01*
X8588336Y-14344941D01*
X8588336Y-14363989D01*
X8721669Y-14163989D02*
X8740717Y-14163989D01*
X8759765Y-14173513D01*
X8769288Y-14183036D01*
X8778812Y-14202084D01*
X8788336Y-14240179D01*
X8788336Y-14287798D01*
X8778812Y-14325893D01*
X8769288Y-14344941D01*
X8759765Y-14354465D01*
X8740717Y-14363989D01*
X8721669Y-14363989D01*
X8702622Y-14354465D01*
X8693098Y-14344941D01*
X8683574Y-14325893D01*
X8674050Y-14287798D01*
X8674050Y-14240179D01*
X8683574Y-14202084D01*
X8693098Y-14183036D01*
X8702622Y-14173513D01*
X8721669Y-14163989D01*
X8912146Y-14163989D02*
X8931193Y-14163989D01*
X8950241Y-14173513D01*
X8959765Y-14183036D01*
X8969288Y-14202084D01*
X8978812Y-14240179D01*
X8978812Y-14287798D01*
X8969288Y-14325893D01*
X8959765Y-14344941D01*
X8950241Y-14354465D01*
X8931193Y-14363989D01*
X8912146Y-14363989D01*
X8893098Y-14354465D01*
X8883574Y-14344941D01*
X8874050Y-14325893D01*
X8864527Y-14287798D01*
X8864527Y-14240179D01*
X8874050Y-14202084D01*
X8883574Y-14183036D01*
X8893098Y-14173513D01*
X8912146Y-14163989D01*
X9102622Y-14163989D02*
X9121669Y-14163989D01*
X9140717Y-14173513D01*
X9150241Y-14183036D01*
X9159765Y-14202084D01*
X9169288Y-14240179D01*
X9169288Y-14287798D01*
X9159765Y-14325893D01*
X9150241Y-14344941D01*
X9140717Y-14354465D01*
X9121669Y-14363989D01*
X9102622Y-14363989D01*
X9083574Y-14354465D01*
X9074050Y-14344941D01*
X9064527Y-14325893D01*
X9055003Y-14287798D01*
X9055003Y-14240179D01*
X9064527Y-14202084D01*
X9074050Y-14183036D01*
X9083574Y-14173513D01*
X9102622Y-14163989D01*
X9255003Y-14363989D02*
X9255003Y-14230655D01*
X9255003Y-14249703D02*
X9264527Y-14240179D01*
X9283574Y-14230655D01*
X9312146Y-14230655D01*
X9331193Y-14240179D01*
X9340717Y-14259227D01*
X9340717Y-14363989D01*
X9340717Y-14259227D02*
X9350241Y-14240179D01*
X9369288Y-14230655D01*
X9397860Y-14230655D01*
X9416907Y-14240179D01*
X9426431Y-14259227D01*
X9426431Y-14363989D01*
X9521669Y-14363989D02*
X9521669Y-14230655D01*
X9521669Y-14249703D02*
X9531193Y-14240179D01*
X9550241Y-14230655D01*
X9578812Y-14230655D01*
X9597860Y-14240179D01*
X9607384Y-14259227D01*
X9607384Y-14363989D01*
X9607384Y-14259227D02*
X9616907Y-14240179D01*
X9635955Y-14230655D01*
X9664527Y-14230655D01*
X9683574Y-14240179D01*
X9693098Y-14259227D01*
X9693098Y-14363989D01*
X10083574Y-14154465D02*
X9912146Y-14411608D01*
X10340717Y-14163989D02*
X10359765Y-14163989D01*
X10378812Y-14173513D01*
X10388336Y-14183036D01*
X10397860Y-14202084D01*
X10407384Y-14240179D01*
X10407384Y-14287798D01*
X10397860Y-14325893D01*
X10388336Y-14344941D01*
X10378812Y-14354465D01*
X10359765Y-14363989D01*
X10340717Y-14363989D01*
X10321669Y-14354465D01*
X10312146Y-14344941D01*
X10302622Y-14325893D01*
X10293098Y-14287798D01*
X10293098Y-14240179D01*
X10302622Y-14202084D01*
X10312146Y-14183036D01*
X10321669Y-14173513D01*
X10340717Y-14163989D01*
X10493098Y-14344941D02*
X10502622Y-14354465D01*
X10493098Y-14363989D01*
X10483574Y-14354465D01*
X10493098Y-14344941D01*
X10493098Y-14363989D01*
X10626431Y-14163989D02*
X10645479Y-14163989D01*
X10664527Y-14173513D01*
X10674050Y-14183036D01*
X10683574Y-14202084D01*
X10693098Y-14240179D01*
X10693098Y-14287798D01*
X10683574Y-14325893D01*
X10674050Y-14344941D01*
X10664527Y-14354465D01*
X10645479Y-14363989D01*
X10626431Y-14363989D01*
X10607384Y-14354465D01*
X10597860Y-14344941D01*
X10588336Y-14325893D01*
X10578812Y-14287798D01*
X10578812Y-14240179D01*
X10588336Y-14202084D01*
X10597860Y-14183036D01*
X10607384Y-14173513D01*
X10626431Y-14163989D01*
X10759765Y-14163989D02*
X10883574Y-14163989D01*
X10816907Y-14240179D01*
X10845479Y-14240179D01*
X10864527Y-14249703D01*
X10874050Y-14259227D01*
X10883574Y-14278274D01*
X10883574Y-14325893D01*
X10874050Y-14344941D01*
X10864527Y-14354465D01*
X10845479Y-14363989D01*
X10788336Y-14363989D01*
X10769288Y-14354465D01*
X10759765Y-14344941D01*
X10978812Y-14363989D02*
X11016907Y-14363989D01*
X11035955Y-14354465D01*
X11045479Y-14344941D01*
X11064527Y-14316370D01*
X11074050Y-14278274D01*
X11074050Y-14202084D01*
X11064527Y-14183036D01*
X11055003Y-14173513D01*
X11035955Y-14163989D01*
X10997860Y-14163989D01*
X10978812Y-14173513D01*
X10969288Y-14183036D01*
X10959765Y-14202084D01*
X10959765Y-14249703D01*
X10969288Y-14268751D01*
X10978812Y-14278274D01*
X10997860Y-14287798D01*
X11035955Y-14287798D01*
X11055003Y-14278274D01*
X11064527Y-14268751D01*
X11074050Y-14249703D01*
X11245479Y-14230655D02*
X11245479Y-14363989D01*
X11197860Y-14154465D02*
X11150241Y-14297322D01*
X11274050Y-14297322D01*
X11340717Y-14163989D02*
X11340717Y-14202084D01*
X11416907Y-14163989D02*
X11416907Y-14202084D01*
X11712145Y-14440179D02*
X11702622Y-14430655D01*
X11683574Y-14402084D01*
X11674050Y-14383036D01*
X11664526Y-14354465D01*
X11655003Y-14306846D01*
X11655003Y-14268751D01*
X11664526Y-14221132D01*
X11674050Y-14192560D01*
X11683574Y-14173513D01*
X11702622Y-14144941D01*
X11712145Y-14135417D01*
X11874050Y-14230655D02*
X11874050Y-14363989D01*
X11826431Y-14154465D02*
X11778812Y-14297322D01*
X11902622Y-14297322D01*
X11969288Y-14183036D02*
X11978812Y-14173513D01*
X11997860Y-14163989D01*
X12045479Y-14163989D01*
X12064526Y-14173513D01*
X12074050Y-14183036D01*
X12083574Y-14202084D01*
X12083574Y-14221132D01*
X12074050Y-14249703D01*
X11959765Y-14363989D01*
X12083574Y-14363989D01*
X12321669Y-14363989D02*
X12321669Y-14163989D01*
X12407384Y-14363989D02*
X12407384Y-14259227D01*
X12397860Y-14240179D01*
X12378812Y-14230655D01*
X12350241Y-14230655D01*
X12331193Y-14240179D01*
X12321669Y-14249703D01*
X12531193Y-14363989D02*
X12512145Y-14354465D01*
X12502622Y-14344941D01*
X12493098Y-14325893D01*
X12493098Y-14268751D01*
X12502622Y-14249703D01*
X12512145Y-14240179D01*
X12531193Y-14230655D01*
X12559765Y-14230655D01*
X12578812Y-14240179D01*
X12588336Y-14249703D01*
X12597860Y-14268751D01*
X12597860Y-14325893D01*
X12588336Y-14344941D01*
X12578812Y-14354465D01*
X12559765Y-14363989D01*
X12531193Y-14363989D01*
X12712145Y-14363989D02*
X12693098Y-14354465D01*
X12683574Y-14335417D01*
X12683574Y-14163989D01*
X12864526Y-14354465D02*
X12845479Y-14363989D01*
X12807384Y-14363989D01*
X12788336Y-14354465D01*
X12778812Y-14335417D01*
X12778812Y-14259227D01*
X12788336Y-14240179D01*
X12807384Y-14230655D01*
X12845479Y-14230655D01*
X12864526Y-14240179D01*
X12874050Y-14259227D01*
X12874050Y-14278274D01*
X12778812Y-14297322D01*
X12950241Y-14354465D02*
X12969288Y-14363989D01*
X13007384Y-14363989D01*
X13026431Y-14354465D01*
X13035955Y-14335417D01*
X13035955Y-14325893D01*
X13026431Y-14306846D01*
X13007384Y-14297322D01*
X12978812Y-14297322D01*
X12959765Y-14287798D01*
X12950241Y-14268751D01*
X12950241Y-14259227D01*
X12959765Y-14240179D01*
X12978812Y-14230655D01*
X13007384Y-14230655D01*
X13026431Y-14240179D01*
X13102622Y-14440179D02*
X13112145Y-14430655D01*
X13131193Y-14402084D01*
X13140717Y-14383036D01*
X13150241Y-14354465D01*
X13159765Y-14306846D01*
X13159765Y-14268751D01*
X13150241Y-14221132D01*
X13140717Y-14192560D01*
X13131193Y-14173513D01*
X13112145Y-14144941D01*
X13102622Y-14135417D01*
X7940241Y-14437513D02*
X8140241Y-14637513D01*
X8140241Y-14437513D02*
X7940241Y-14637513D01*
X8140241Y-14537513D02*
G75*
G03*
X8140241Y-14537513I-100000J0D01*
G01*
X8378812Y-14427989D02*
X8502622Y-14427989D01*
X8435955Y-14504179D01*
X8464527Y-14504179D01*
X8483574Y-14513703D01*
X8493098Y-14523227D01*
X8502622Y-14542274D01*
X8502622Y-14589893D01*
X8493098Y-14608941D01*
X8483574Y-14618465D01*
X8464527Y-14627989D01*
X8407384Y-14627989D01*
X8388336Y-14618465D01*
X8378812Y-14608941D01*
X8588336Y-14608941D02*
X8597860Y-14618465D01*
X8588336Y-14627989D01*
X8578812Y-14618465D01*
X8588336Y-14608941D01*
X8588336Y-14627989D01*
X8788336Y-14627989D02*
X8674050Y-14627989D01*
X8731193Y-14627989D02*
X8731193Y-14427989D01*
X8712146Y-14456560D01*
X8693098Y-14475608D01*
X8674050Y-14485132D01*
X8912146Y-14427989D02*
X8931193Y-14427989D01*
X8950241Y-14437513D01*
X8959765Y-14447036D01*
X8969288Y-14466084D01*
X8978812Y-14504179D01*
X8978812Y-14551798D01*
X8969288Y-14589893D01*
X8959765Y-14608941D01*
X8950241Y-14618465D01*
X8931193Y-14627989D01*
X8912146Y-14627989D01*
X8893098Y-14618465D01*
X8883574Y-14608941D01*
X8874050Y-14589893D01*
X8864527Y-14551798D01*
X8864527Y-14504179D01*
X8874050Y-14466084D01*
X8883574Y-14447036D01*
X8893098Y-14437513D01*
X8912146Y-14427989D01*
X9102622Y-14427989D02*
X9121669Y-14427989D01*
X9140717Y-14437513D01*
X9150241Y-14447036D01*
X9159765Y-14466084D01*
X9169288Y-14504179D01*
X9169288Y-14551798D01*
X9159765Y-14589893D01*
X9150241Y-14608941D01*
X9140717Y-14618465D01*
X9121669Y-14627989D01*
X9102622Y-14627989D01*
X9083574Y-14618465D01*
X9074050Y-14608941D01*
X9064527Y-14589893D01*
X9055003Y-14551798D01*
X9055003Y-14504179D01*
X9064527Y-14466084D01*
X9074050Y-14447036D01*
X9083574Y-14437513D01*
X9102622Y-14427989D01*
X9255003Y-14627989D02*
X9255003Y-14494655D01*
X9255003Y-14513703D02*
X9264527Y-14504179D01*
X9283574Y-14494655D01*
X9312146Y-14494655D01*
X9331193Y-14504179D01*
X9340717Y-14523227D01*
X9340717Y-14627989D01*
X9340717Y-14523227D02*
X9350241Y-14504179D01*
X9369288Y-14494655D01*
X9397860Y-14494655D01*
X9416907Y-14504179D01*
X9426431Y-14523227D01*
X9426431Y-14627989D01*
X9521669Y-14627989D02*
X9521669Y-14494655D01*
X9521669Y-14513703D02*
X9531193Y-14504179D01*
X9550241Y-14494655D01*
X9578812Y-14494655D01*
X9597860Y-14504179D01*
X9607384Y-14523227D01*
X9607384Y-14627989D01*
X9607384Y-14523227D02*
X9616907Y-14504179D01*
X9635955Y-14494655D01*
X9664527Y-14494655D01*
X9683574Y-14504179D01*
X9693098Y-14523227D01*
X9693098Y-14627989D01*
X10083574Y-14418465D02*
X9912146Y-14675608D01*
X10340717Y-14427989D02*
X10359765Y-14427989D01*
X10378812Y-14437513D01*
X10388336Y-14447036D01*
X10397860Y-14466084D01*
X10407384Y-14504179D01*
X10407384Y-14551798D01*
X10397860Y-14589893D01*
X10388336Y-14608941D01*
X10378812Y-14618465D01*
X10359765Y-14627989D01*
X10340717Y-14627989D01*
X10321669Y-14618465D01*
X10312146Y-14608941D01*
X10302622Y-14589893D01*
X10293098Y-14551798D01*
X10293098Y-14504179D01*
X10302622Y-14466084D01*
X10312146Y-14447036D01*
X10321669Y-14437513D01*
X10340717Y-14427989D01*
X10493098Y-14608941D02*
X10502622Y-14618465D01*
X10493098Y-14627989D01*
X10483574Y-14618465D01*
X10493098Y-14608941D01*
X10493098Y-14627989D01*
X10693098Y-14627989D02*
X10578812Y-14627989D01*
X10635955Y-14627989D02*
X10635955Y-14427989D01*
X10616907Y-14456560D01*
X10597860Y-14475608D01*
X10578812Y-14485132D01*
X10769288Y-14447036D02*
X10778812Y-14437513D01*
X10797860Y-14427989D01*
X10845479Y-14427989D01*
X10864527Y-14437513D01*
X10874050Y-14447036D01*
X10883574Y-14466084D01*
X10883574Y-14485132D01*
X10874050Y-14513703D01*
X10759765Y-14627989D01*
X10883574Y-14627989D01*
X10959765Y-14447036D02*
X10969288Y-14437513D01*
X10988336Y-14427989D01*
X11035955Y-14427989D01*
X11055003Y-14437513D01*
X11064527Y-14447036D01*
X11074050Y-14466084D01*
X11074050Y-14485132D01*
X11064527Y-14513703D01*
X10950241Y-14627989D01*
X11074050Y-14627989D01*
X11197860Y-14427989D02*
X11216907Y-14427989D01*
X11235955Y-14437513D01*
X11245479Y-14447036D01*
X11255003Y-14466084D01*
X11264526Y-14504179D01*
X11264526Y-14551798D01*
X11255003Y-14589893D01*
X11245479Y-14608941D01*
X11235955Y-14618465D01*
X11216907Y-14627989D01*
X11197860Y-14627989D01*
X11178812Y-14618465D01*
X11169288Y-14608941D01*
X11159765Y-14589893D01*
X11150241Y-14551798D01*
X11150241Y-14504179D01*
X11159765Y-14466084D01*
X11169288Y-14447036D01*
X11178812Y-14437513D01*
X11197860Y-14427989D01*
X11340717Y-14427989D02*
X11340717Y-14466084D01*
X11416907Y-14427989D02*
X11416907Y-14466084D01*
X11712145Y-14704179D02*
X11702622Y-14694655D01*
X11683574Y-14666084D01*
X11674050Y-14647036D01*
X11664526Y-14618465D01*
X11655003Y-14570846D01*
X11655003Y-14532751D01*
X11664526Y-14485132D01*
X11674050Y-14456560D01*
X11683574Y-14437513D01*
X11702622Y-14408941D01*
X11712145Y-14399417D01*
X11769288Y-14427989D02*
X11893098Y-14427989D01*
X11826431Y-14504179D01*
X11855003Y-14504179D01*
X11874050Y-14513703D01*
X11883574Y-14523227D01*
X11893098Y-14542274D01*
X11893098Y-14589893D01*
X11883574Y-14608941D01*
X11874050Y-14618465D01*
X11855003Y-14627989D01*
X11797860Y-14627989D01*
X11778812Y-14618465D01*
X11769288Y-14608941D01*
X12131193Y-14627989D02*
X12131193Y-14427989D01*
X12216907Y-14627989D02*
X12216907Y-14523227D01*
X12207384Y-14504179D01*
X12188336Y-14494655D01*
X12159765Y-14494655D01*
X12140717Y-14504179D01*
X12131193Y-14513703D01*
X12340717Y-14627989D02*
X12321669Y-14618465D01*
X12312145Y-14608941D01*
X12302622Y-14589893D01*
X12302622Y-14532751D01*
X12312145Y-14513703D01*
X12321669Y-14504179D01*
X12340717Y-14494655D01*
X12369288Y-14494655D01*
X12388336Y-14504179D01*
X12397860Y-14513703D01*
X12407384Y-14532751D01*
X12407384Y-14589893D01*
X12397860Y-14608941D01*
X12388336Y-14618465D01*
X12369288Y-14627989D01*
X12340717Y-14627989D01*
X12521669Y-14627989D02*
X12502622Y-14618465D01*
X12493098Y-14599417D01*
X12493098Y-14427989D01*
X12674050Y-14618465D02*
X12655003Y-14627989D01*
X12616907Y-14627989D01*
X12597860Y-14618465D01*
X12588336Y-14599417D01*
X12588336Y-14523227D01*
X12597860Y-14504179D01*
X12616907Y-14494655D01*
X12655003Y-14494655D01*
X12674050Y-14504179D01*
X12683574Y-14523227D01*
X12683574Y-14542274D01*
X12588336Y-14561322D01*
X12759765Y-14618465D02*
X12778812Y-14627989D01*
X12816907Y-14627989D01*
X12835955Y-14618465D01*
X12845479Y-14599417D01*
X12845479Y-14589893D01*
X12835955Y-14570846D01*
X12816907Y-14561322D01*
X12788336Y-14561322D01*
X12769288Y-14551798D01*
X12759765Y-14532751D01*
X12759765Y-14523227D01*
X12769288Y-14504179D01*
X12788336Y-14494655D01*
X12816907Y-14494655D01*
X12835955Y-14504179D01*
X12912145Y-14704179D02*
X12921669Y-14694655D01*
X12940717Y-14666084D01*
X12950241Y-14647036D01*
X12959765Y-14618465D01*
X12969288Y-14570846D01*
X12969288Y-14532751D01*
X12959765Y-14485132D01*
X12950241Y-14456560D01*
X12940717Y-14437513D01*
X12921669Y-14408941D01*
X12912145Y-14399417D01*
M02*
