G04 #@! TF.GenerationSoftware,KiCad,Pcbnew,(6.0.1-0)*
G04 #@! TF.CreationDate,2023-01-23T19:01:16+00:00*
G04 #@! TF.ProjectId,Snowduino zero LE way,536e6f77-6475-4696-9e6f-207a65726f20,rev?*
G04 #@! TF.SameCoordinates,Original*
G04 #@! TF.FileFunction,Paste,Top*
G04 #@! TF.FilePolarity,Positive*
%FSLAX46Y46*%
G04 Gerber Fmt 4.6, Leading zero omitted, Abs format (unit mm)*
G04 Created by KiCad (PCBNEW (6.0.1-0)) date 2023-01-23 19:01:16*
%MOMM*%
%LPD*%
G01*
G04 APERTURE LIST*
G04 Aperture macros list*
%AMRoundRect*
0 Rectangle with rounded corners*
0 $1 Rounding radius*
0 $2 $3 $4 $5 $6 $7 $8 $9 X,Y pos of 4 corners*
0 Add a 4 corners polygon primitive as box body*
4,1,4,$2,$3,$4,$5,$6,$7,$8,$9,$2,$3,0*
0 Add four circle primitives for the rounded corners*
1,1,$1+$1,$2,$3*
1,1,$1+$1,$4,$5*
1,1,$1+$1,$6,$7*
1,1,$1+$1,$8,$9*
0 Add four rect primitives between the rounded corners*
20,1,$1+$1,$2,$3,$4,$5,0*
20,1,$1+$1,$4,$5,$6,$7,0*
20,1,$1+$1,$6,$7,$8,$9,0*
20,1,$1+$1,$8,$9,$2,$3,0*%
G04 Aperture macros list end*
%ADD10RoundRect,0.225000X0.250000X-0.225000X0.250000X0.225000X-0.250000X0.225000X-0.250000X-0.225000X0*%
%ADD11RoundRect,0.218750X-0.218750X-0.256250X0.218750X-0.256250X0.218750X0.256250X-0.218750X0.256250X0*%
%ADD12RoundRect,0.200000X0.200000X0.275000X-0.200000X0.275000X-0.200000X-0.275000X0.200000X-0.275000X0*%
%ADD13RoundRect,0.225000X-0.225000X-0.250000X0.225000X-0.250000X0.225000X0.250000X-0.225000X0.250000X0*%
%ADD14RoundRect,0.250000X-0.255000X0.255000X-0.255000X-0.255000X0.255000X-0.255000X0.255000X0.255000X0*%
%ADD15RoundRect,0.062500X-0.062500X0.350000X-0.062500X-0.350000X0.062500X-0.350000X0.062500X0.350000X0*%
%ADD16RoundRect,0.062500X-0.350000X0.062500X-0.350000X-0.062500X0.350000X-0.062500X0.350000X0.062500X0*%
%ADD17R,2.400000X1.500000*%
%ADD18R,1.100000X1.100000*%
%ADD19RoundRect,0.250000X0.312500X1.450000X-0.312500X1.450000X-0.312500X-1.450000X0.312500X-1.450000X0*%
%ADD20RoundRect,0.250000X-0.250000X-0.475000X0.250000X-0.475000X0.250000X0.475000X-0.250000X0.475000X0*%
%ADD21RoundRect,0.200000X0.275000X-0.200000X0.275000X0.200000X-0.275000X0.200000X-0.275000X-0.200000X0*%
%ADD22RoundRect,0.250000X0.550000X-1.500000X0.550000X1.500000X-0.550000X1.500000X-0.550000X-1.500000X0*%
%ADD23RoundRect,0.150000X-0.150000X0.587500X-0.150000X-0.587500X0.150000X-0.587500X0.150000X0.587500X0*%
%ADD24RoundRect,0.150000X0.587500X0.150000X-0.587500X0.150000X-0.587500X-0.150000X0.587500X-0.150000X0*%
%ADD25RoundRect,0.075000X0.075000X-0.662500X0.075000X0.662500X-0.075000X0.662500X-0.075000X-0.662500X0*%
%ADD26RoundRect,0.075000X0.662500X-0.075000X0.662500X0.075000X-0.662500X0.075000X-0.662500X-0.075000X0*%
%ADD27RoundRect,0.225000X-0.250000X0.225000X-0.250000X-0.225000X0.250000X-0.225000X0.250000X0.225000X0*%
%ADD28RoundRect,0.150000X0.512500X0.150000X-0.512500X0.150000X-0.512500X-0.150000X0.512500X-0.150000X0*%
%ADD29R,1.000000X1.800000*%
%ADD30RoundRect,0.250000X-0.475000X0.250000X-0.475000X-0.250000X0.475000X-0.250000X0.475000X0.250000X0*%
%ADD31R,1.500000X2.000000*%
%ADD32R,3.800000X2.000000*%
%ADD33RoundRect,0.200000X-0.200000X-0.275000X0.200000X-0.275000X0.200000X0.275000X-0.200000X0.275000X0*%
%ADD34RoundRect,0.225000X0.225000X0.250000X-0.225000X0.250000X-0.225000X-0.250000X0.225000X-0.250000X0*%
%ADD35RoundRect,0.250000X0.475000X-0.250000X0.475000X0.250000X-0.475000X0.250000X-0.475000X-0.250000X0*%
%ADD36R,1.300000X1.000000*%
%ADD37R,1.450000X0.600000*%
%ADD38R,1.450000X0.300000*%
%ADD39R,1.220000X0.650000*%
G04 APERTURE END LIST*
D10*
X103241000Y-89888000D03*
X103241000Y-88338000D03*
D11*
X92278500Y-101238000D03*
X93853500Y-101238000D03*
D12*
X97103500Y-102963000D03*
X95453500Y-102963000D03*
D13*
X107866000Y-81013000D03*
X109416000Y-81013000D03*
D10*
X124861000Y-93273000D03*
X124861000Y-91723000D03*
D12*
X107391000Y-91463000D03*
X105741000Y-91463000D03*
D14*
X111891000Y-92163000D03*
X111891000Y-93413000D03*
X113141000Y-92163000D03*
X113141000Y-93413000D03*
D15*
X113516000Y-90850500D03*
X113016000Y-90850500D03*
X112516000Y-90850500D03*
X112016000Y-90850500D03*
X111516000Y-90850500D03*
D16*
X110578500Y-91788000D03*
X110578500Y-92288000D03*
X110578500Y-92788000D03*
X110578500Y-93288000D03*
X110578500Y-93788000D03*
D15*
X111516000Y-94725500D03*
X112016000Y-94725500D03*
X112516000Y-94725500D03*
X113016000Y-94725500D03*
X113516000Y-94725500D03*
D16*
X114453500Y-93788000D03*
X114453500Y-93288000D03*
X114453500Y-92788000D03*
X114453500Y-92288000D03*
X114453500Y-91788000D03*
D17*
X119216000Y-114788000D03*
X119216000Y-109288000D03*
D18*
X109141000Y-115363000D03*
X111941000Y-115363000D03*
D19*
X96453500Y-83438000D03*
X92178500Y-83438000D03*
D12*
X138046000Y-103593000D03*
X136396000Y-103593000D03*
X110441000Y-108163000D03*
X108791000Y-108163000D03*
D20*
X110516000Y-85738000D03*
X112416000Y-85738000D03*
D13*
X111441000Y-97488000D03*
X112991000Y-97488000D03*
D21*
X91412000Y-88436000D03*
X91412000Y-86786000D03*
D11*
X92278500Y-102963000D03*
X93853500Y-102963000D03*
D22*
X102841000Y-115688000D03*
X102841000Y-110288000D03*
D13*
X110516000Y-88063000D03*
X112066000Y-88063000D03*
D18*
X97291000Y-110338000D03*
X97291000Y-113138000D03*
D23*
X109466000Y-97750500D03*
X107566000Y-97750500D03*
X108516000Y-99625500D03*
D24*
X101053500Y-100403000D03*
X101053500Y-98503000D03*
X99178500Y-99453000D03*
D25*
X128891000Y-97000500D03*
X129391000Y-97000500D03*
X129891000Y-97000500D03*
X130391000Y-97000500D03*
X130891000Y-97000500D03*
X131391000Y-97000500D03*
X131891000Y-97000500D03*
X132391000Y-97000500D03*
X132891000Y-97000500D03*
X133391000Y-97000500D03*
X133891000Y-97000500D03*
X134391000Y-97000500D03*
D26*
X135803500Y-95588000D03*
X135803500Y-95088000D03*
X135803500Y-94588000D03*
X135803500Y-94088000D03*
X135803500Y-93588000D03*
X135803500Y-93088000D03*
X135803500Y-92588000D03*
X135803500Y-92088000D03*
X135803500Y-91588000D03*
X135803500Y-91088000D03*
X135803500Y-90588000D03*
X135803500Y-90088000D03*
D25*
X134391000Y-88675500D03*
X133891000Y-88675500D03*
X133391000Y-88675500D03*
X132891000Y-88675500D03*
X132391000Y-88675500D03*
X131891000Y-88675500D03*
X131391000Y-88675500D03*
X130891000Y-88675500D03*
X130391000Y-88675500D03*
X129891000Y-88675500D03*
X129391000Y-88675500D03*
X128891000Y-88675500D03*
D26*
X127478500Y-90088000D03*
X127478500Y-90588000D03*
X127478500Y-91088000D03*
X127478500Y-91588000D03*
X127478500Y-92088000D03*
X127478500Y-92588000D03*
X127478500Y-93088000D03*
X127478500Y-93588000D03*
X127478500Y-94088000D03*
X127478500Y-94588000D03*
X127478500Y-95088000D03*
X127478500Y-95588000D03*
D22*
X136266000Y-114238000D03*
X136266000Y-108838000D03*
D12*
X105206000Y-96593000D03*
X103556000Y-96593000D03*
D27*
X114091000Y-115013000D03*
X114091000Y-116563000D03*
D28*
X111628500Y-113013000D03*
X111628500Y-112063000D03*
X111628500Y-111113000D03*
X109353500Y-111113000D03*
X109353500Y-112063000D03*
X109353500Y-113013000D03*
D22*
X119266000Y-105963000D03*
X119266000Y-100563000D03*
D29*
X127876000Y-100493000D03*
X130376000Y-100493000D03*
D11*
X92253500Y-97788000D03*
X93828500Y-97788000D03*
D30*
X122716000Y-94833000D03*
X122716000Y-96733000D03*
D31*
X129316000Y-108288000D03*
D32*
X127016000Y-114588000D03*
D31*
X127016000Y-108288000D03*
X124716000Y-108288000D03*
D33*
X107666000Y-101663000D03*
X109316000Y-101663000D03*
D13*
X126366000Y-103638000D03*
X127916000Y-103638000D03*
D12*
X129861000Y-84348000D03*
X128211000Y-84348000D03*
D33*
X124786000Y-84348000D03*
X126436000Y-84348000D03*
D21*
X91416000Y-93113000D03*
X91416000Y-91463000D03*
D10*
X138641000Y-94213000D03*
X138641000Y-92663000D03*
D34*
X131756000Y-103653000D03*
X130206000Y-103653000D03*
D20*
X136496000Y-101793000D03*
X138396000Y-101793000D03*
D12*
X97103500Y-96063000D03*
X95453500Y-96063000D03*
D35*
X122711000Y-93248000D03*
X122711000Y-91348000D03*
D33*
X103531000Y-94793000D03*
X105181000Y-94793000D03*
D34*
X126386000Y-86373000D03*
X124836000Y-86373000D03*
D13*
X107866000Y-82738000D03*
X109416000Y-82738000D03*
X82356000Y-83723000D03*
X83906000Y-83723000D03*
X128261000Y-86323000D03*
X129811000Y-86323000D03*
D36*
X83491000Y-74788000D03*
X91891000Y-74788000D03*
X83491000Y-79288000D03*
X91891000Y-79288000D03*
D12*
X107391000Y-89813000D03*
X105741000Y-89813000D03*
X129861000Y-82523000D03*
X128211000Y-82523000D03*
D28*
X98716000Y-90888000D03*
X98716000Y-89938000D03*
X98716000Y-88988000D03*
X96441000Y-88988000D03*
X96441000Y-89938000D03*
X96441000Y-90888000D03*
D27*
X124866000Y-94808000D03*
X124866000Y-96358000D03*
D37*
X89176000Y-86613000D03*
X89176000Y-87413000D03*
D38*
X89176000Y-88613000D03*
X89176000Y-89613000D03*
X89176000Y-90113000D03*
X89176000Y-91113000D03*
D37*
X89176000Y-92313000D03*
X89176000Y-93113000D03*
X89176000Y-93113000D03*
X89176000Y-92313000D03*
D38*
X89176000Y-91613000D03*
X89176000Y-90613000D03*
X89176000Y-89113000D03*
X89176000Y-88113000D03*
D37*
X89176000Y-87413000D03*
X89176000Y-86613000D03*
D13*
X136446000Y-99993000D03*
X137996000Y-99993000D03*
D24*
X101053500Y-103953000D03*
X101053500Y-102053000D03*
X99178500Y-103003000D03*
D12*
X97103500Y-99513000D03*
X95453500Y-99513000D03*
D27*
X103241000Y-91588000D03*
X103241000Y-93138000D03*
D39*
X101686000Y-96723000D03*
X101686000Y-94823000D03*
X99066000Y-95773000D03*
D11*
X92253500Y-96063000D03*
X93828500Y-96063000D03*
D12*
X97103500Y-101238000D03*
X95453500Y-101238000D03*
X100491000Y-85763000D03*
X98841000Y-85763000D03*
D33*
X102166000Y-85738000D03*
X103816000Y-85738000D03*
D34*
X86966000Y-83038000D03*
X85416000Y-83038000D03*
D13*
X111341000Y-100113000D03*
X112891000Y-100113000D03*
D18*
X114141000Y-113113000D03*
X114141000Y-110313000D03*
D33*
X105441000Y-108163000D03*
X107091000Y-108163000D03*
D12*
X83956000Y-82173000D03*
X82306000Y-82173000D03*
X113741000Y-108188000D03*
X112091000Y-108188000D03*
X109116000Y-95613000D03*
X107466000Y-95613000D03*
X97103500Y-97788000D03*
X95453500Y-97788000D03*
D11*
X92266000Y-99513000D03*
X93841000Y-99513000D03*
D12*
X90341000Y-83038000D03*
X88691000Y-83038000D03*
M02*
